<svg width="96" height="112" viewBox="0 0 96 112" fill="none" xmlns="http://www.w3.org/2000/svg">
<path d="M57.4457 109.863C27.4042 110.706 2.36782 87.0352 1.52539 56.9937C0.682958 26.9522 24.3535 1.91583 54.3949 1.0734C84.4364 0.230968 93.3558 24.3534 94.1982 54.3949C95.0406 84.4364 87.4871 109.021 57.4457 109.863Z" fill="url(#paint0_linear_1_4236)"/>
<g clip-path="url(#clip0_1_4236)">
<path d="M49.974 23.1621C49.8335 23.2207 49.611 23.4197 49.4705 23.607C49.2246 23.8998 49.2129 24.0403 49.248 25.1877C49.2832 26.382 49.2949 26.4639 49.611 26.7684C50.0559 27.2133 50.735 27.2133 51.1917 26.7684C51.4961 26.4522 51.5078 26.4171 51.5078 25.1057C51.5078 23.8295 51.4961 23.7475 51.2151 23.4665C50.8872 23.1387 50.3486 23.0099 49.974 23.1621Z" fill="white"/>
<path d="M43.558 25.4572C43.078 25.7148 42.9141 25.9724 42.9023 26.4875C42.9023 26.8973 42.996 27.0378 43.6985 27.7638C44.8577 28.9815 45.5016 29.1571 46.1222 28.4195C46.6491 27.7872 46.4852 27.2486 45.3963 26.1948C44.8108 25.6211 44.284 25.2816 43.9795 25.2816C43.9327 25.2816 43.7454 25.3635 43.558 25.4572Z" fill="white"/>
<path d="M55.2902 26.3238C54.494 27.1434 54.377 27.3073 54.377 27.682C54.377 28.2323 54.658 28.6303 55.1497 28.7943C55.7351 28.9933 56.0747 28.8177 57.0582 27.799C57.7841 27.0614 57.8895 26.8858 57.8895 26.5111C57.8895 25.8788 57.3743 25.3988 56.707 25.3988C56.2269 25.3988 56.1449 25.4573 55.2902 26.3238Z" fill="white"/>
<path d="M49.0493 29.5436C47.293 29.8831 45.4197 31.2413 44.4947 32.822L44.0381 33.5948L43.7453 33.4074C42.6564 32.6932 41.8017 32.4239 40.6192 32.4239C38.8512 32.4239 37.2588 33.3138 36.2636 34.8593C35.6196 35.8545 35.5142 36.3697 35.444 38.5709C35.3503 41.58 35.6313 42.587 36.9544 43.9686C37.329 44.3549 37.6335 44.753 37.6335 44.8467C37.6335 44.9638 37.2237 45.1043 36.3338 45.3268C34.7883 45.7014 33.9804 46.0644 33.2076 46.7669C31.908 47.9378 31.4396 49.132 31.346 51.5089C31.2991 52.8788 31.3225 53.1481 31.5099 53.4993C31.8611 54.1667 32.0133 54.2019 35.0927 54.2019H37.8676V56.5436C37.8676 59.2483 37.9496 59.5995 38.617 59.8805C38.9448 60.021 39.7176 60.0562 42.4691 60.0562C44.3659 60.0562 46.0754 60.021 46.2861 59.9859C47.2228 59.7986 47.5623 58.7214 46.895 58.054C46.5788 57.7379 46.4852 57.7144 45.7358 57.7144H44.9162L44.8694 56.2392L44.8342 54.7639L44.4361 54.4126C44.1083 54.1199 43.9795 54.0731 43.6165 54.1316C43.3473 54.1667 43.078 54.3307 42.8789 54.5531C42.5628 54.9044 42.5511 54.9395 42.5511 56.3094V57.7144H41.3802H40.2094V56.0987C40.2094 55.2088 40.2679 54.1784 40.3381 53.8038C40.6192 52.2582 41.591 50.9586 42.9257 50.338C43.6048 50.0219 47.0706 49.0735 47.176 49.1789C47.1994 49.2023 47.7028 50.3263 48.2883 51.6845C48.9205 53.1364 49.4825 54.2487 49.6465 54.4009C49.8455 54.5882 50.0914 54.6702 50.3958 54.6702C50.7002 54.6702 50.9461 54.5882 51.1452 54.4009C51.3208 54.2487 51.8594 53.1832 52.5034 51.6845C53.1005 50.3263 53.5923 49.214 53.6157 49.1906C53.7093 49.0852 57.2453 50.0453 57.8776 50.338C59.189 50.9586 60.1725 52.2817 60.4535 53.8038C60.5237 54.1784 60.5823 55.2088 60.5823 56.0987V57.7144H59.4231H58.264L58.2171 56.2392L58.182 54.7639L57.7839 54.4126C57.4561 54.1199 57.3273 54.0731 56.9643 54.1316C56.695 54.1667 56.4257 54.3307 56.2267 54.5531C55.9106 54.9044 55.8988 54.9395 55.8988 56.3094V57.7144H55.009C54.1894 57.7144 54.0957 57.7379 53.7796 58.054C53.1122 58.7214 53.4518 59.7986 54.3884 59.9859C54.5992 60.021 56.3321 60.0562 58.264 60.0562C62.2215 60.0562 62.4557 60.021 62.7484 59.3068C62.8889 58.9907 62.924 58.3467 62.924 56.5553V54.2136L65.8511 54.1784L68.7783 54.1433L69.0944 53.8155C69.3988 53.5111 69.4223 53.4291 69.4574 52.2348C69.5511 49.6589 69.0359 48.1251 67.7011 46.8723C66.8112 46.0644 66.1087 45.7249 64.4344 45.3151C63.5563 45.1043 63.1582 44.9638 63.1582 44.8467C63.1582 44.753 63.4626 44.3549 63.849 43.9686C65.1018 42.6572 65.3828 41.7674 65.3828 39.0861C65.3828 36.9317 65.2774 36.2526 64.7857 35.2808C63.9075 33.5362 62.1044 32.4239 60.1491 32.4239C59.2943 32.4239 58.1352 32.7166 57.5732 33.0796C57.421 33.1733 57.1751 33.3255 57.0229 33.4308C56.7419 33.6065 56.7302 33.6065 56.4726 33.103C55.1027 30.41 52.0467 28.9465 49.0493 29.5436ZM51.5433 31.8853C53.0771 32.2951 54.3884 33.6299 54.7748 35.1637L54.8568 35.4916L54.3533 35.2106C52.6907 34.2387 52.4917 34.1568 52.1404 34.227C51.9413 34.2622 51.4613 34.5783 51.0632 34.9413C49.8572 36.0301 48.8503 36.3931 47.012 36.4048H45.9114L45.9817 35.714C46.2159 33.0679 48.944 31.1945 51.5433 31.8853ZM42.153 35.1871C42.6682 35.5033 43.2536 36.1589 43.2536 36.4165C43.2536 36.4751 43.0545 36.6039 42.8204 36.7092C41.8603 37.1308 40.7128 37.3532 39.2375 37.4235L37.7388 37.4937L37.8208 37.1542C38.0784 36.0887 38.535 35.4798 39.4483 35.0349C40.2913 34.6368 41.3568 34.6954 42.153 35.1871ZM61.0623 34.8827C61.9053 35.1169 62.7718 36.1121 62.9825 37.0722L63.0645 37.4586H62.1278C61.6009 37.4586 60.7813 37.4001 60.2779 37.3298C59.3178 37.201 57.6434 36.6507 57.5732 36.4517C57.5498 36.3814 57.6903 36.1121 57.8776 35.8545C58.5216 34.953 59.8563 34.5549 61.0623 34.8827ZM53.6976 37.5406L54.8451 38.2079V39.5076C54.8451 41.381 54.5055 42.2708 53.4049 43.2778C52.7141 43.91 52.1287 44.2027 51.1686 44.3784C49.2015 44.7413 47.1877 43.6759 46.3212 41.8142C46.0636 41.2639 46.0051 40.936 45.97 39.9408L45.9231 38.7465H47.0706C47.7146 38.7465 48.5927 38.6646 49.0493 38.5709C49.9626 38.3719 51.274 37.7747 51.9765 37.2361C52.2341 37.0371 52.4682 36.8732 52.4917 36.8732C52.5151 36.8732 53.0537 37.1776 53.6976 37.5406ZM43.6048 39.613C43.6048 41.2522 43.078 42.2942 41.9773 42.868C40.3967 43.6993 38.4296 42.8797 37.9262 41.1819C37.8325 40.8541 37.7506 40.4092 37.7506 40.2101V39.8354L39.3663 39.7652C40.8767 39.6949 42.633 39.3788 43.1248 39.0978C43.5112 38.8636 43.6048 38.9573 43.6048 39.613ZM57.8542 39.1563C58.744 39.4959 59.8563 39.6949 61.4487 39.7652L63.0645 39.8354L63.006 40.5028C62.7484 43.4183 58.8962 44.2262 57.5966 41.6386C57.3507 41.1351 57.3039 40.8775 57.3039 40.0111C57.3039 39.4491 57.3273 38.9807 57.3624 38.9807C57.3858 38.9807 57.62 39.0627 57.8542 39.1563ZM45.6304 44.7882C46.1924 45.3385 46.5554 45.76 46.4383 45.7131C46.3329 45.6663 45.6656 45.4907 44.963 45.3268C44.2722 45.1511 43.6634 44.9521 43.64 44.8701C43.5931 44.753 44.4127 43.8515 44.6118 43.7812C44.6235 43.7812 45.0801 44.2379 45.6304 44.7882ZM56.7067 44.2379C57.0112 44.5189 57.1985 44.7647 57.1517 44.8584C57.1165 44.9521 56.6833 45.116 56.1213 45.2448C55.5827 45.3619 54.927 45.5375 54.6812 45.6195C54.4236 45.7014 54.2011 45.76 54.1894 45.7366C54.166 45.7131 54.4002 45.5141 54.7046 45.2916C55.009 45.0575 55.4422 44.6242 55.6647 44.3315C55.8871 44.0271 56.0979 43.7929 56.133 43.7929C56.1681 43.7929 56.4257 43.992 56.7067 44.2379ZM41.3217 46.0059C41.427 46.6615 41.8837 47.0011 42.9609 47.2353C43.4409 47.3406 43.839 47.446 43.839 47.4694C43.839 47.4928 43.5346 47.5982 43.1716 47.7036C41.4036 48.2188 39.6239 49.6238 38.8277 51.1225L38.4414 51.8601H36.0294H33.6174L33.6877 50.982C33.8048 49.6121 34.238 48.8042 35.1512 48.2188C35.5025 47.9963 36.2519 47.7504 37.493 47.4577C39.5888 46.9425 39.9752 46.7201 39.9752 45.959V45.5375H40.6074H41.2397L41.3217 46.0059ZM60.8165 45.959C60.8165 46.7084 61.2145 46.9543 63.0996 47.3992C64.0012 47.6099 64.9496 47.8792 65.2072 47.9846C66.378 48.4998 66.9869 49.4365 67.104 50.9235L67.1742 51.8601H64.7622H62.3503L61.9639 51.1225C61.1677 49.6238 59.388 48.2188 57.6317 47.7036C57.257 47.5982 56.9526 47.4928 56.9526 47.4694C56.9526 47.446 57.3507 47.3406 57.8308 47.2353C58.908 47.0011 59.3763 46.6498 59.4817 45.9942L59.5636 45.5375H60.1842H60.8165V45.959ZM51.8008 47.1182C51.8008 47.3172 51.4847 48.1837 51.11 49.0384L50.4192 50.6073L50.2436 50.2678C49.7284 49.2608 48.9908 47.3875 48.9908 47.1065V46.7669H50.3958H51.8008V47.1182Z" fill="white"/>
<path d="M23.8174 41.4391C22.424 41.603 21.0776 42.7387 20.656 44.0969C20.4336 44.8346 20.4219 45.1741 20.4219 54.4942C20.4219 60.688 20.4687 64.4699 20.5507 65.0553C20.7029 66.191 21.2415 67.8419 21.7918 68.8372C22.2601 69.7036 24.4965 72.8883 24.8711 73.2279C25.5854 73.8719 26.9436 73.0288 26.6977 72.0804C26.6625 71.9399 26.0771 71.0267 25.4097 70.0666C24.7306 69.0947 23.9579 67.8888 23.712 67.3736C22.7987 65.5471 22.8338 66.1208 22.7987 54.9391C22.7636 46.1811 22.7753 44.9165 22.9275 44.6121C23.4661 43.57 24.9297 43.4647 25.6205 44.4014C25.8664 44.7292 25.8664 44.8463 25.9249 52.9486C25.9952 61.9759 25.9717 61.6832 26.7328 63.217C27.2948 64.3411 27.6929 64.8445 29.8707 67.1628C33.8282 71.3896 34.0975 71.6472 34.601 71.6472C34.9054 71.6472 35.1513 71.5536 35.3971 71.3428C35.7016 71.0852 35.7601 70.9564 35.7601 70.5232C35.7601 70.0197 35.7367 69.9846 33.2193 67.3033C29.2853 63.1234 29.4141 63.2873 29.4141 62.3857C29.4141 61.3085 30.1166 60.5943 31.1938 60.5826C31.826 60.5826 31.8729 60.606 34.0038 62.0345C36.8607 63.9547 37.7506 64.6455 38.8043 65.7461C40.2679 67.2799 41.3919 69.165 42.1179 71.296C42.2818 71.776 42.8906 74.4339 43.4761 77.2088C44.5767 82.4191 44.6703 82.7235 45.2675 82.9343C45.9583 83.1802 46.7662 82.6182 46.7662 81.8922C46.7662 81.4707 45.1153 73.4386 44.6703 71.6941C44.1083 69.5163 43.0311 67.2565 41.6495 65.4417C41.0173 64.5987 39.4015 63.018 38.4531 62.2921C37.1768 61.3085 33.3364 58.7678 32.751 58.5102C31.5567 57.9833 30.0346 58.1472 28.8638 58.9317L28.2783 59.3298L28.2432 51.8246C28.2081 44.4014 28.2081 44.296 27.9505 43.7574C27.2246 42.165 25.5502 41.24 23.8174 41.4391Z" fill="white"/>
<path d="M74.8081 41.7789C74.0002 42.1536 73.204 42.9497 72.8411 43.7576C72.5835 44.2962 72.5835 44.4016 72.5484 51.8248L72.5132 59.33L71.9278 58.9319C70.7569 58.1475 69.2348 57.9836 68.0406 58.5104C67.4551 58.768 63.6147 61.3088 62.3385 62.2923C61.3901 63.0182 59.7743 64.5989 59.142 65.4419C57.7604 67.2567 56.6832 69.5165 56.1212 71.6943C55.6763 73.4389 54.0254 81.471 54.0254 81.8925C54.0254 82.6184 54.8333 83.1804 55.5241 82.9345C56.1212 82.7238 56.2149 82.4194 57.3155 77.209C57.9009 74.4341 58.5098 71.7763 58.6737 71.2962C59.3996 69.1652 60.5237 67.2802 61.9872 65.7463C63.041 64.6457 63.9308 63.9549 66.7877 62.0347C68.9187 60.6063 68.9655 60.5829 69.5978 60.5829C70.675 60.5946 71.3775 61.3088 71.3775 62.386C71.3775 63.2875 71.5063 63.1236 67.5839 67.3036C65.0549 69.9848 65.0315 70.02 65.0315 70.5234C65.0315 70.9567 65.09 71.0855 65.3944 71.343C65.6403 71.5538 65.8862 71.6475 66.1906 71.6475C66.6941 71.6475 66.9634 71.3899 70.9209 67.1631C73.0987 64.8448 73.4968 64.3413 74.0588 63.2173C74.8198 61.6835 74.7964 61.9762 74.8667 52.9489C74.9252 44.8465 74.9252 44.7294 75.1711 44.4016C75.8619 43.4649 77.3255 43.5703 77.8523 44.6007C78.0046 44.8934 78.028 46.275 78.028 54.471C78.028 64.9033 78.0046 65.2546 77.3489 66.8469C76.8922 67.9007 76.5293 68.451 71.7522 75.1717C69.4456 78.415 67.4903 81.2719 67.4083 81.5178C67.2795 81.8925 67.2795 82.0096 67.4317 82.3023C67.783 82.9814 68.4269 83.1804 69.0475 82.794C69.4105 82.5716 78.4612 69.8795 79.0466 68.7672C79.5618 67.7953 80.1004 66.1444 80.2409 65.0555C80.3229 64.4701 80.3697 60.6882 80.3697 54.4944C80.3697 45.1744 80.358 44.8348 80.1355 44.0972C79.8194 43.0902 79.0935 42.2706 78.0865 41.7906C77.466 41.4979 77.2084 41.4393 76.4356 41.4393C75.6628 41.4393 75.3935 41.4979 74.8081 41.7789Z" fill="white"/>
<path d="M49.6582 57.9954C48.6045 58.9789 49.9158 60.6064 51.0633 59.7517C51.9414 59.096 51.4848 57.7144 50.3959 57.7144C50.1032 57.7144 49.869 57.808 49.6582 57.9954Z" fill="white"/>
<path d="M27.3889 75.0781C27.1899 75.242 27.0611 75.4996 27.0142 75.8157C26.9674 76.2255 27.0025 76.3543 27.2952 76.6821C27.5528 76.9632 27.7285 77.0568 28.068 77.0685C28.8408 77.0919 29.4496 76.3777 29.274 75.6752C29.0632 74.8556 28.0212 74.5278 27.3889 75.0781Z" fill="white"/>
<path d="M29.7653 78.5556C29.1798 79.1411 29.3086 79.6094 30.5263 81.3071C31.4981 82.6888 31.8494 83.0049 32.3997 83.0049C32.751 83.0049 33.1491 82.7122 33.3598 82.3024C33.512 82.0097 33.512 81.8926 33.3832 81.5179C33.1959 80.9793 31.6504 78.7781 31.2289 78.4385C30.7722 78.0873 30.1985 78.1341 29.7653 78.5556Z" fill="white"/>
</g>
<defs>
<linearGradient id="paint0_linear_1_4236" x1="88.4582" y1="3.23364" x2="-3.2655" y2="98.6009" gradientUnits="userSpaceOnUse">
<stop offset="0.28125" stop-color="#02A59D"/>
<stop offset="0.786458" stop-color="#2B338E"/>
</linearGradient>
<clipPath id="clip0_1_4236">
<rect width="59.9479" height="59.9479" fill="white" transform="translate(20.4219 23.0569)"/>
</clipPath>
</defs>
</svg>
