<svg width="97" height="112" viewBox="0 0 97 112" fill="none" xmlns="http://www.w3.org/2000/svg">
<path d="M57.8744 109.863C27.8329 110.706 2.79653 87.0352 1.9541 56.9937C1.11167 26.9522 24.7822 1.91583 54.8237 1.0734C84.8651 0.230968 93.7845 24.3534 94.6269 54.3949C95.4694 84.4364 87.9159 109.021 57.8744 109.863Z" fill="url(#paint0_linear_1_4259)"/>
<path d="M30.2665 27.3424C28.494 27.775 27.038 29.2837 26.6582 31.0773C26.5105 31.7948 26.4999 40.9632 26.6476 41.7651C26.9642 43.4848 28.5889 45.2151 30.161 45.5L30.5514 45.5738V47.2408C30.5514 48.7601 30.5725 48.9289 30.7729 49.1821C30.9312 49.3826 31.0789 49.4564 31.3638 49.4564C31.7119 49.4564 31.8913 49.3087 33.6638 47.5573L35.5734 45.6582L41.0386 45.6793L46.5038 45.711L46.6938 46.2174C47.1052 47.2936 48.0442 48.1798 49.1309 48.5174C49.6901 48.6968 50.1121 48.7179 52.4438 48.7179C54.976 48.7179 55.1237 48.7074 55.3874 48.4963C55.7462 48.2115 55.7673 47.6839 55.4191 47.3674C55.1764 47.1459 55.1026 47.1353 52.5177 47.1353C50.3443 47.1353 49.7745 47.1037 49.458 46.9665C49.0043 46.7766 48.5296 46.3546 48.3185 45.9431L48.1603 45.6582H48.73C50.9878 45.6582 53.0347 43.949 53.4356 41.7123C53.4989 41.3536 53.5516 39.7816 53.5516 38.0935V35.1076H60.5467H67.5523L68.0165 35.3503C68.2697 35.4875 68.6284 35.804 68.7972 36.0466L69.1138 36.5003L69.1454 40.8894C69.1771 45.8376 69.1771 45.8692 68.428 46.5445C68.027 46.9138 67.4573 47.1353 66.9403 47.1353C66.7926 47.1353 66.5711 47.2408 66.4445 47.378C66.2334 47.5995 66.2123 47.7367 66.2123 48.7179V49.8046L64.8513 48.4752L63.4903 47.1353H60.8843C59.4283 47.1353 58.2044 47.1775 58.0989 47.2408C57.9934 47.2936 57.8457 47.4729 57.7824 47.6523C57.6769 47.9055 57.6769 48.011 57.8141 48.2748C57.8985 48.4436 58.0567 48.6124 58.1411 48.6546C58.2361 48.6863 59.3228 48.7179 60.5467 48.7179H62.7728L64.6825 50.617C66.3284 52.2523 66.6344 52.5161 66.9192 52.5161C67.0986 52.5161 67.3518 52.4212 67.489 52.3157C67.7316 52.1152 67.7422 52.0519 67.7738 50.3849L67.8055 48.6546L68.4807 48.3592C69.2615 48.0216 70.1055 47.1986 70.4642 46.4284C70.6963 45.9325 70.6963 45.8376 70.6963 41.1215V36.321L70.422 35.7301C70.0422 34.9283 69.5147 34.3691 68.7234 33.9365L68.0587 33.5778L60.8104 33.5462L53.5516 33.5145V32.6388C53.5516 31.4466 53.4039 30.7608 52.9714 29.8746C52.3383 28.5874 51.0828 27.6062 49.669 27.3108C48.8355 27.1314 31.005 27.1631 30.2665 27.3424ZM50.091 29.1255C50.7768 29.4631 51.3677 30.0645 51.6947 30.7714C51.9163 31.2461 51.9163 31.3727 51.9163 36.4265V41.5963L51.6631 42.1554C51.3255 42.9045 50.4498 43.7064 49.7323 43.9174C49.2681 44.0545 48.1392 44.0756 42.1359 44.0756C37.1771 44.0756 35.0037 44.1073 34.8454 44.1917C34.7188 44.255 34.0542 44.8564 33.3789 45.5316L32.1339 46.766V45.6899C32.1339 44.3394 32.039 44.1917 31.0789 44.0545C29.8656 43.8963 29.0215 43.3055 28.4623 42.2504L28.1775 41.7018V36.532C28.1775 31.6998 28.188 31.3305 28.3779 30.8452C28.5995 30.2544 29.2642 29.4842 29.7495 29.231C30.6041 28.7878 30.5303 28.7878 40.2051 28.809L49.4897 28.8301L50.091 29.1255Z" fill="white"/>
<path d="M29.6018 50.6487C28.6523 50.9124 27.8821 51.5877 27.4495 52.5056C27.249 52.9487 27.2279 53.223 27.1963 55.5969C27.1541 58.6249 27.2385 59.4479 27.7344 60.4502L28.0825 61.1571L27.5972 61.5158C27.3229 61.7162 26.9536 62.1172 26.7637 62.3915C26.1623 63.2988 26.1201 63.6259 26.1201 66.9704C26.1201 69.8824 26.1307 70.009 26.3417 70.2833C26.6371 70.6631 27.1857 70.6631 27.4811 70.2833C27.6922 70.009 27.7027 69.8718 27.7027 67.0232V64.0374L27.9981 63.4887C28.2091 63.0773 28.4096 62.8663 28.7578 62.6658L29.2431 62.402L29.9922 62.7713C30.9945 63.2777 32.0179 63.4465 32.9991 63.2883C33.6638 63.1828 34.761 62.7502 35.2147 62.4126C35.6367 62.1066 36.0271 62.5075 38.2216 65.4089C39.3717 66.9388 40.4584 68.342 40.6483 68.5319L40.9753 68.8695H43.9928C47.274 68.8695 47.3901 68.8906 47.8438 69.4604C48.1497 69.8507 48.1497 70.737 47.8438 71.1274C47.3795 71.7076 47.3268 71.7182 43.3703 71.7182C40.3001 71.7182 39.6671 71.6971 39.4033 71.5599C39.2134 71.4544 38.3693 70.431 37.2088 68.8801C36.1643 67.498 35.2358 66.3374 35.1409 66.2952C34.8033 66.1686 34.4867 66.2319 34.2652 66.4746C33.8326 66.9282 33.9381 67.1603 35.4574 69.1861L36.8817 71.0746V74.5141V77.943H32.2922H27.7027V75.527C27.7027 73.3219 27.6816 73.0898 27.5022 72.8682C27.2279 72.5306 26.5949 72.5306 26.3206 72.8682C26.1307 73.0898 26.1201 73.343 26.1201 76.065V79.0087L26.3839 79.2619L26.6371 79.5256H53.1296H79.6221L79.8754 79.2619L80.1391 79.0087V76.065C80.1391 73.343 80.1286 73.0898 79.9387 72.8682C79.6643 72.5306 79.0313 72.5306 78.757 72.8682C78.5776 73.0898 78.5565 73.3219 78.5565 75.527V77.943H73.967H69.3775V74.5141V71.0852L70.8018 69.1861C72.3317 67.1392 72.4372 66.886 71.9835 66.464C71.7409 66.2319 71.4454 66.1791 71.1289 66.2952C71.034 66.3268 70.1055 67.498 69.061 68.8801C67.911 70.3994 67.0353 71.465 66.8454 71.5599C66.5922 71.6971 65.938 71.7182 62.8889 71.7182C58.9324 71.7182 58.8797 71.7076 58.4155 71.1274C58.1095 70.737 58.1095 69.8507 58.4155 69.4604C58.8691 68.8906 58.9852 68.8695 62.2664 68.8695H65.2839L65.611 68.5214C65.8009 68.342 66.8876 66.9388 68.0376 65.4195C69.3775 63.6259 70.2321 62.5919 70.4431 62.4864C70.7596 62.3176 70.7913 62.3282 71.6248 62.7397C73.239 63.5415 74.7161 63.552 76.2671 62.7713L77.0161 62.402L77.5015 62.6658C77.8496 62.8663 78.0501 63.0773 78.2717 63.4887L78.5565 64.0374V67.0232C78.5565 69.8718 78.5671 70.009 78.7781 70.2833C79.0735 70.6631 79.6221 70.6631 79.9176 70.2833C80.1286 70.009 80.1391 69.8824 80.1391 66.9704C80.1391 63.6259 80.0969 63.2988 79.4955 62.3915C79.3056 62.1172 78.9364 61.7162 78.662 61.5158L78.1767 61.1571L78.5249 60.4502C79.0208 59.4479 79.1052 58.6249 79.063 55.5969C79.0313 52.9909 79.0313 52.9909 78.7359 52.3895C78.3983 51.7037 77.7969 51.1129 77.09 50.7858C76.6363 50.5748 76.4359 50.5643 74.0198 50.5643C72.1312 50.5643 71.3294 50.6065 71.034 50.7014C70.422 50.923 69.6729 51.5771 69.3248 52.2102L69.0083 52.7799L68.9766 55.8185C68.9449 59.068 68.9871 59.585 69.4303 60.4818L69.694 61.0094L69.2615 61.3681C69.0294 61.558 67.8899 62.9718 66.7293 64.5016L64.6192 67.287H63.0472H61.4646V65.4617C61.4646 64.4699 61.4118 63.4782 61.3591 63.2672C61.0953 62.3282 59.9664 61.2204 58.5843 60.5557C57.8352 60.197 57.7719 60.1442 57.8246 59.9015C58.0462 58.7832 58.0989 57.6965 58.0673 54.5418L58.0356 51.0179L57.7297 50.7647L57.4237 50.501L53.8787 50.5326C50.7557 50.5643 50.281 50.5854 49.9222 50.7542C49.2154 51.0707 48.6351 51.6299 48.2869 52.3262L47.9598 52.9698V55.9873C47.9598 58.3612 47.9915 59.1419 48.1181 59.6378C48.2763 60.2497 48.2341 60.4185 47.9282 60.4291C47.8754 60.4291 47.5167 60.619 47.1263 60.8511C46.2506 61.3786 45.5543 62.0328 45.1534 62.708C44.8474 63.225 44.8474 63.2355 44.8158 65.2507L44.7736 67.287H43.2121H41.64L39.5299 64.5016C38.3693 62.9718 37.2299 61.558 36.9978 61.3681L36.5652 61.0094L36.829 60.4818C37.2721 59.585 37.3143 59.068 37.2826 55.8185L37.251 52.7799L36.9345 52.2102C36.5863 51.5877 36.1221 51.1551 35.4046 50.7964C34.9615 50.5748 34.7716 50.5643 32.5032 50.5432C30.8046 50.5221 29.9289 50.5537 29.6018 50.6487ZM34.8771 52.3368C35.489 52.6638 35.7212 53.1175 35.7212 54.0143C35.7212 54.4047 35.6789 54.7423 35.6262 54.7845C35.4152 54.9111 34.6344 54.6896 34.0753 54.3519C32.978 53.6978 32.6087 53.9088 32.3872 55.312C32.134 56.8313 31.5959 57.6437 30.6358 57.9075C30.161 58.0341 29.0004 57.9708 28.8316 57.802C28.7789 57.7492 28.7578 56.7258 28.7789 55.5125C28.8211 52.9698 28.8738 52.7482 29.7073 52.3262C30.1504 52.1047 30.3087 52.0941 32.3028 52.0941C34.3074 52.0941 34.4445 52.1047 34.8771 52.3368ZM56.4847 53.223L56.5164 54.3097H53.0241H49.5424V53.8033C49.5424 53.1281 49.8273 52.6322 50.3865 52.3368C50.8401 52.0941 50.9034 52.0941 53.6466 52.1152L56.4531 52.1469L56.4847 53.223ZM76.5519 52.3262C76.9001 52.5056 77.09 52.6955 77.2694 53.0437C77.4909 53.4868 77.5015 53.645 77.5015 55.6497C77.5015 56.8208 77.4593 57.802 77.4065 57.8336C77.185 57.9813 76.0455 58.013 75.6235 57.9075C74.6634 57.6437 74.1253 56.8313 73.8721 55.312C73.6505 53.9088 73.2812 53.6978 72.184 54.3519C71.572 54.7212 70.7913 54.9217 70.6119 54.7423C70.5592 54.6896 70.5275 54.2992 70.5486 53.8666C70.6014 52.9698 70.7913 52.6322 71.4349 52.3051C71.8147 52.1152 72.0574 52.0941 73.967 52.0941C75.9505 52.0941 76.1193 52.1047 76.5519 52.3262ZM56.4742 57.4433C56.4109 59.4268 56.2842 59.8277 55.4085 60.7034C54.6489 61.463 53.9737 61.7479 52.9186 61.7373C51.547 61.7268 50.2388 60.8194 49.764 59.5217C49.5741 59.0364 49.5424 58.6988 49.5424 57.4222V55.8923H53.0347H56.5269L56.4742 57.4433ZM34.951 56.3249C35.2569 56.3882 35.5629 56.3987 35.6156 56.3671C35.6789 56.3249 35.7212 56.7786 35.7212 57.6226C35.7212 58.6882 35.6789 59.0575 35.5101 59.5217C35.0248 60.7983 33.706 61.7373 32.3555 61.7373C31.4798 61.7373 30.7096 61.4841 30.1293 60.9883C29.6546 60.5768 29.0743 59.8488 29.0743 59.6483C29.0743 59.5745 29.3802 59.5323 29.95 59.5323C31.0683 59.5323 31.7752 59.2791 32.5138 58.6038C33.0941 58.0763 33.6532 57.1162 33.7798 56.4515C33.8431 56.1244 33.8748 56.0928 34.128 56.1561C34.2757 56.1983 34.645 56.2721 34.951 56.3249ZM72.4794 56.4621C72.606 57.1267 73.1652 58.0763 73.7455 58.6038C74.484 59.2791 75.1909 59.5323 76.3198 59.5323C76.879 59.5323 77.185 59.5745 77.185 59.6483C77.185 59.8488 76.6047 60.5768 76.1299 60.9883C75.5496 61.4841 74.7794 61.7373 73.9037 61.7373C72.5532 61.7373 71.2344 60.7983 70.7491 59.5217C70.5803 59.0575 70.5381 58.6882 70.5381 57.6437C70.5381 56.4515 70.5592 56.3354 70.728 56.3776C70.823 56.3987 71.1922 56.3565 71.5404 56.2721C72.4372 56.0717 72.4055 56.0717 72.4794 56.4621ZM49.6901 62.0855C50.7663 63.0562 52.3278 63.5204 53.7521 63.2777C54.67 63.13 55.7462 62.6025 56.3897 62.0117C56.643 61.7795 56.9173 61.5896 57.0017 61.5896C57.2971 61.5896 58.6476 62.3493 59.1118 62.7819C59.8503 63.4676 59.882 63.5626 59.882 65.525V67.2553L59.2701 67.3186C58.1939 67.4136 57.276 68.0888 56.8223 69.1122C56.548 69.7241 56.5269 70.7686 56.759 71.3384L56.9173 71.7182H53.1296H49.342L49.5002 71.3384C49.7323 70.7686 49.7112 69.7241 49.4369 69.1122C48.9832 68.0888 48.0653 67.4136 46.9892 67.3186L46.3772 67.2553V65.525C46.3772 63.5942 46.4089 63.4887 47.0841 62.8241C47.4112 62.5181 48.8988 61.6107 49.1098 61.5896C49.1204 61.5896 49.3842 61.8112 49.6901 62.0855ZM67.7949 75.6219V77.943H53.1296H38.4643V75.6219V73.3008H53.1296H67.7949V75.6219Z" fill="white"/>
<defs>
<linearGradient id="paint0_linear_1_4259" x1="88.8869" y1="3.23364" x2="-2.83679" y2="98.6009" gradientUnits="userSpaceOnUse">
<stop offset="0.28125" stop-color="#02A59D"/>
<stop offset="0.786458" stop-color="#2B338E"/>
</linearGradient>
</defs>
</svg>
