<svg width="97" height="112" viewBox="0 0 97 112" fill="none" xmlns="http://www.w3.org/2000/svg">
<path d="M57.766 109.863C27.7245 110.706 2.68813 87.0354 1.8457 56.9939C1.00327 26.9524 24.6738 1.91608 54.7153 1.07364C84.7567 0.231212 93.6761 24.3537 94.5185 54.3952C95.361 84.4366 87.8075 109.021 57.766 109.863Z" fill="url(#paint0_linear_1_4301)"/>
<g clip-path="url(#clip0_1_4301)">
<g clip-path="url(#clip1_1_4301)">
<path d="M62.5788 19.8452C62.169 20.0091 62.1456 20.3253 62.0871 26.4723L62.0285 32.549L58.516 34.4575C56.5841 35.5113 54.9683 36.3426 54.9214 36.3075C54.8629 36.2841 54.8278 36.1787 54.8278 36.085C54.8278 35.7455 53.4344 33.1579 53.0481 32.7949C52.1348 31.9168 50.9991 31.788 49.6409 32.4319C48.1539 33.1462 47.4514 34.1882 47.6036 35.4762C47.6972 36.2021 48.9852 38.7312 49.4887 39.1761L49.8516 39.4922L49.5472 40.1245C49.0906 41.0377 48.5754 42.8526 48.6691 43.2272C48.7159 43.4263 48.8915 43.6136 49.1374 43.719C49.4769 43.8829 49.5706 43.8946 49.8633 43.7541C50.1443 43.6136 50.2497 43.438 50.4722 42.7121C50.9405 41.2134 51.1044 40.8153 51.4206 40.4757C51.5962 40.2767 54.1604 38.8131 57.4037 37.0568C63.5858 33.6965 63.3633 33.7784 62.9652 34.9961C62.5906 36.1084 61.9817 36.5885 57.3451 39.3868C55.0268 40.7802 53.0598 42.0096 52.9895 42.1032C52.9076 42.2086 52.8373 42.4545 52.8373 42.6652C52.8373 43.1219 53.3291 43.5785 53.7389 43.4965C53.8911 43.4731 54.0082 43.5083 53.9965 43.5785C53.9965 43.6488 53.6686 44.6557 53.2705 45.8031L52.5446 47.9107L50.6244 48.7069C49.5589 49.1401 48.6691 49.4796 48.6456 49.4445C48.6222 49.4211 48.7979 48.6834 49.0437 47.817C49.4067 46.4822 49.4535 46.1778 49.3482 45.9319C49.0906 45.3699 48.189 45.288 47.8612 45.8031C47.7792 45.9319 47.4045 47.1028 47.0416 48.3907C46.3156 50.9432 46.3273 50.8261 46.058 56.1769L45.9527 58.343L44.0559 62.3239C43.0021 64.5134 42.1005 66.3751 42.0303 66.4454C41.9483 66.5507 41.4332 66.5976 40.2038 66.5976C38.588 66.5976 38.4475 66.621 37.8737 66.902C36.5975 67.5343 36.2111 68.389 36.2111 70.6019V72.1006L35.9067 71.9835C35.7311 71.9133 33.8343 71.8664 31.3404 71.8664C26.5867 71.8664 26.575 71.8664 25.7437 72.6626C24.9475 73.4237 24.8538 73.7632 24.8538 75.9879V77.9549H23.6244C22.4653 77.9549 22.3716 77.9783 22.1023 78.2476C21.7276 78.6106 21.7276 79.0555 22.1023 79.4185L22.3833 79.7112H48.5988H74.8143L75.0602 79.4419C75.3997 79.0789 75.3997 78.5403 75.0485 78.2125C74.8026 77.9783 74.6504 77.9549 73.4678 77.9549H72.1565V66.2697V54.5846L71.852 53.9757C71.6881 53.6362 71.3603 53.2147 71.1261 53.0156C70.3533 52.3716 69.9552 52.3131 66.7471 52.3131H63.8434V44.7377V37.1505L64.3117 36.2138C64.862 35.1015 65.0494 34.0828 64.9089 33.0408C64.7801 32.1275 64.6396 31.8816 64.1946 31.7294C63.8551 31.6006 63.8434 31.5772 63.8434 30.8396V30.0668H69.2293C75.2592 30.0668 75.2358 30.0668 75.5988 29.3057C75.9735 28.533 75.7744 28.1817 74.1469 26.7767C73.0814 25.8517 72.777 25.5356 72.8941 25.4419C72.9761 25.3717 73.6083 24.8331 74.2991 24.2242C75.7393 22.9714 75.9618 22.5616 75.6222 21.8591C75.2592 21.0863 75.47 21.1097 69.3815 21.0746L63.8434 21.0395V20.6531C63.8434 20.0208 63.1877 19.5993 62.5788 19.8452ZM73.0931 22.9246C73.0931 22.9831 73.058 23.0417 73.0112 23.0417C72.9526 23.0417 72.4492 23.4749 71.8872 24.0135C70.9505 24.8799 70.8451 25.0204 70.7866 25.4888L70.7163 26.0039L71.934 27.1631L73.1517 28.3105L68.5268 28.2871L63.9019 28.252L63.8668 25.6761C63.8551 24.2593 63.8668 23.0417 63.8902 22.9597C63.9722 22.7724 73.0931 22.7372 73.0931 22.9246ZM51.8889 34.118C52.2753 34.6097 53.1886 36.4714 53.1886 36.7641C53.1886 37.1739 52.8841 37.5369 52.2519 37.853C51.6079 38.1809 51.1279 38.2277 50.7883 37.9818C50.6595 37.8881 50.2731 37.2442 49.9219 36.5299C49.2077 35.0781 49.1959 34.8322 49.8516 34.3287C50.6946 33.6848 51.4908 33.6028 51.8889 34.118ZM62.0871 45.4636V52.3131H61.771C61.3026 52.3131 60.3308 52.8049 59.8976 53.2498C59.1248 54.046 59.1014 54.1396 59.0663 57.781C59.0429 59.6076 58.996 61.0945 58.9492 61.0945C58.9024 61.0945 58.6682 61.036 58.434 60.9775C58.0476 60.8604 58.0008 60.8135 58.0476 60.5325C58.2233 59.5724 58.7033 55.3222 58.7033 54.7602C58.715 53.7884 58.3989 53.2732 56.186 50.6505L54.254 48.3556L55.3078 45.1943L56.3616 42.033L58.5511 40.7099C59.7571 39.984 61.0099 39.2112 61.326 39.0122C61.6539 38.8014 61.9466 38.6258 62.0051 38.6258C62.052 38.6141 62.0871 41.6934 62.0871 45.4636ZM51.362 54.1865C50.7298 57.6756 50.5541 58.4016 50.32 58.7528C50.156 58.9753 48.7744 60.8252 47.2406 62.8508C44.8052 66.0824 44.0559 66.9488 44.0559 66.5039C44.0559 66.4337 44.8521 64.7125 45.8122 62.6752C47.8377 58.4133 47.6972 59.0104 47.9314 54.3621C48.0017 52.8751 48.0953 51.6574 48.1422 51.634C48.4934 51.4701 52.088 50.0065 52.0997 50.0182C52.1114 50.0299 51.7835 51.9033 51.362 54.1865ZM55.2376 52.2663C56.8416 54.1631 56.9353 54.3036 56.9353 54.9007C56.9353 55.3456 56.4553 59.5139 56.2913 60.474C56.2328 60.7901 56.1625 60.8604 55.9401 60.8604C55.7762 60.8604 55.6474 60.8487 55.6474 60.8252C55.6474 60.8135 55.5186 59.6193 55.3664 58.1674C55.179 56.3409 55.0385 55.4159 54.898 55.1466C54.7692 54.9124 54.4063 54.5612 53.9613 54.2801L53.2237 53.8118L53.3642 53.039C53.4462 52.6058 53.575 51.8682 53.6569 51.3881C53.774 50.6973 53.8325 50.5451 53.9379 50.6856C54.0082 50.7793 54.5936 51.4935 55.2376 52.2663ZM69.7328 54.1982C69.8733 54.2684 70.084 54.4441 70.1894 54.5846C70.3768 54.8187 70.4002 55.6149 70.4002 66.3868V77.9549H65.5997H60.7991V75.2502C60.7991 72.0655 60.7406 71.8664 59.8976 71.8664C59.6634 71.8664 59.4175 71.9601 59.277 72.1006C59.0546 72.3231 59.0429 72.487 59.0429 75.1448V77.9549H54.1838H49.313L49.3482 70.7307C49.3833 62.7806 49.3482 63.1435 50.0975 62.7923C50.6478 62.5347 57.8369 62.5347 58.3403 62.7923C58.9843 63.1201 59.0429 63.4011 59.0429 66.1292C59.0429 68.5997 59.0429 68.5997 59.3356 68.8807C59.6985 69.2554 60.1435 69.2554 60.5064 68.8807L60.7991 68.5997V61.7268V54.8656L61.1972 54.4675L61.5953 54.0694H65.5411C68.2107 54.0694 69.5572 54.1162 69.7328 54.1982ZM53.2003 55.8608C53.3525 55.9779 53.4462 56.5282 53.6335 58.4016C53.7623 59.7246 53.856 60.8135 53.8325 60.837C53.8208 60.8487 53.1651 60.8487 52.3924 60.837L50.9756 60.8018L51.5494 60.0408C52.1699 59.2212 52.3456 58.6943 52.6734 56.8443C52.7905 56.2238 52.9076 55.7086 52.9427 55.7086C52.9778 55.7086 53.0949 55.7788 53.2003 55.8608ZM47.5685 66.0824V66.7381L47.1938 66.6561C46.983 66.6093 46.784 66.5507 46.7606 66.5273C46.7254 66.4922 47.4631 65.4267 47.5333 65.4267C47.5567 65.4267 47.5685 65.7194 47.5685 66.0824ZM47.2289 68.6934L47.5685 69.033V73.4939V77.9549H42.7679H37.9674V73.611C37.9674 69.1032 37.9791 68.9627 38.4826 68.5646C38.7051 68.3773 39.1149 68.3539 42.8031 68.3539H46.8894L47.2289 68.6934ZM35.6374 73.7398C36.1058 73.9974 36.2111 74.454 36.2111 76.2572V77.9549H31.4106H26.6101V76.1284V74.3018L26.9496 73.9623L27.2892 73.6227H31.3521C33.9045 73.6227 35.4852 73.6696 35.6374 73.7398Z" fill="#F5F5F5"/>
</g>
</g>
<defs>
<linearGradient id="paint0_linear_1_4301" x1="88.7785" y1="3.23388" x2="-2.94519" y2="98.6011" gradientUnits="userSpaceOnUse">
<stop offset="0.28125" stop-color="#02A59D"/>
<stop offset="0.786458" stop-color="#2B338E"/>
</linearGradient>
<clipPath id="clip0_1_4301">
<rect width="59.9479" height="59.9479" fill="white" transform="translate(18.7656 19.7632)"/>
</clipPath>
<clipPath id="clip1_1_4301">
<rect width="59.9479" height="59.9479" fill="white" transform="translate(18.7656 19.7632)"/>
</clipPath>
</defs>
</svg>
