<svg width="96" height="112" viewBox="0 0 96 112" fill="none" xmlns="http://www.w3.org/2000/svg">
<path d="M57.4457 109.863C27.4042 110.706 2.36782 87.0352 1.52539 56.9937C0.682958 26.9522 24.3535 1.91583 54.3949 1.0734C84.4364 0.230968 93.3558 24.3534 94.1982 54.3949C95.0406 84.4364 87.4871 109.021 57.4457 109.863Z" fill="url(#paint0_linear_1_4267)"/>
<path d="M48.7326 26.3673C45.7095 27.4656 45.3698 31.4285 48.1665 32.9684C48.8458 33.342 48.9704 33.376 49.8648 33.376C50.6801 33.3647 50.9178 33.3194 51.4047 33.0703C52.2539 32.6174 52.6162 32.2777 53.0465 31.4851C53.3862 30.8397 53.4201 30.6812 53.4315 29.8094C53.4315 28.6771 53.1597 28.0091 52.4124 27.2618C51.484 26.3333 49.8988 25.9484 48.7326 26.3673ZM50.5782 28.1563C51.7444 28.6431 52.0275 30.1604 51.1217 31.0662C49.8535 32.3456 47.7702 31.202 48.0985 29.4131C48.3023 28.3488 49.5478 27.7147 50.5782 28.1563Z" fill="white"/>
<path d="M43.8636 31.5871C43.0371 31.9154 31.4314 37.3389 31.3069 37.4522C31.0125 37.7352 31.0918 38.4033 31.4541 38.709C31.6239 38.8562 31.8504 38.9807 31.9523 38.9807C32.0542 38.9807 34.9867 37.6673 38.4741 36.0708C44.4071 33.3307 44.8147 33.1269 44.9506 32.7873C45.2676 32.0513 44.5883 31.3153 43.8636 31.5871Z" fill="white"/>
<path d="M55.0957 31.6776C54.7107 31.9607 54.5975 32.357 54.7786 32.7873C54.9145 33.1269 55.3447 33.3421 61.2551 36.0595C64.7425 37.6673 67.675 38.9807 67.7769 38.9807C67.8788 38.9807 68.1053 38.8562 68.2751 38.709C68.6375 38.4033 68.7167 37.7352 68.4337 37.4522C68.2298 37.2597 56.0354 31.621 55.6391 31.5531C55.4806 31.5191 55.2428 31.5757 55.0957 31.6776Z" fill="white"/>
<path d="M48.3024 36.2634C47.3739 36.4559 46.8984 36.8182 46.4681 37.6447C45.9699 38.5845 45.7548 38.8223 45.0868 39.1619C43.9432 39.7394 43.1846 39.8187 42.2448 39.445C41.7353 39.2412 40.9314 39.2978 40.3653 39.5696C39.6972 39.8866 38.0894 41.4944 37.7724 42.1624C37.4554 42.8078 37.4554 43.4985 37.7497 44.3703C38.0102 45.1063 37.9875 45.5705 37.6252 46.4763C37.2516 47.4161 36.8666 47.903 36.2212 48.2087C34.8059 48.8767 34.5228 49.4315 34.5228 51.5488C34.5228 53.6662 34.8059 54.221 36.2212 54.889C36.8666 55.1947 37.2629 55.6816 37.6252 56.6214C37.9875 57.5611 38.0102 57.9461 37.7384 58.7613C37.4214 59.7238 37.478 60.5277 37.9083 61.1844L38.2253 61.6599L37.6592 62.8601C37.3535 63.5168 37.0364 64.2528 36.9572 64.4906L36.8213 64.9095L36.3797 64.3547C35.9834 63.8565 34.7832 62.8488 34.4662 62.7356C34.3983 62.7129 34.5681 62.2713 34.8285 61.7505C35.3041 60.8334 35.3154 60.7768 35.3154 59.7124C35.3154 58.7274 35.2814 58.5575 34.9531 57.8668C34.4549 56.8138 33.8208 56.1571 32.7905 55.6476C31.9752 55.2513 31.8733 55.2287 30.843 55.2287C29.8126 55.2287 29.7107 55.2513 28.8955 55.6589C26.5177 56.8365 25.6686 59.4633 26.8914 61.8411C27.1405 62.3279 27.2877 62.7129 27.2197 62.7356C26.8801 62.8488 25.6912 63.8678 25.2383 64.4339C24.0607 65.9059 23.5399 67.6269 23.6192 69.8122C23.6531 70.8991 23.6984 71.1709 23.9702 71.7597C24.3778 72.6428 25.1477 73.4127 26.0196 73.8204L26.7102 74.1374H30.843H34.9757L35.6211 73.8317L36.2665 73.5373L36.3005 75.7565C36.3344 78.2701 36.4476 78.6891 37.2742 79.5609C37.9196 80.2289 38.531 80.4554 39.7312 80.4667C40.6823 80.478 41.0333 80.3988 45.3132 79.2439L49.8762 77.9984L54.4279 79.2326C57.134 79.9572 59.274 80.478 59.7269 80.512C61.2554 80.6139 62.5349 79.8893 63.1236 78.5758C63.3727 78.0324 63.3954 77.8059 63.4294 75.7565L63.4633 73.5373L64.1087 73.8317L64.7541 74.1374H68.8868H73.0196L73.7103 73.8204C74.5821 73.4127 75.352 72.6428 75.7596 71.7597C76.0314 71.1709 76.0767 70.8991 76.1106 69.8122C76.1899 67.6269 75.6691 65.9059 74.4915 64.4339C74.0386 63.8678 72.8497 62.8488 72.5101 62.7356C72.4421 62.7129 72.612 62.2713 72.8724 61.7505C73.3479 60.8334 73.3593 60.7768 73.3593 59.7124C73.3593 58.6708 73.3366 58.5688 72.9403 57.7536C72.4308 56.7233 71.7741 56.0892 70.7211 55.591C70.0304 55.2627 69.8606 55.2287 68.8755 55.2287C67.8565 55.2287 67.7546 55.2513 66.9394 55.6476C65.909 56.1571 65.2749 56.8138 64.7767 57.8668C64.4484 58.5575 64.4144 58.7274 64.4144 59.7124C64.4144 60.7768 64.4257 60.8334 64.9013 61.7505C65.1617 62.2713 65.3316 62.7129 65.2636 62.7356C64.9466 62.8488 63.7464 63.8565 63.3501 64.3547L62.9085 64.9095L62.7726 64.4906C62.6934 64.2528 62.3764 63.5168 62.0706 62.8601L61.5045 61.6599L61.8216 61.1844C62.2518 60.5277 62.3084 59.7238 61.9914 58.7613C61.7196 57.9461 61.7423 57.5611 62.1046 56.6214C62.4669 55.6816 62.8632 55.1947 63.5086 54.889C64.9239 54.221 65.207 53.6662 65.207 51.5488C65.207 49.4315 64.9239 48.8767 63.5086 48.2087C62.8632 47.903 62.4783 47.4161 62.1046 46.4763C61.7423 45.5705 61.7196 45.1063 61.9801 44.3703C62.2745 43.4985 62.2745 42.8078 61.9574 42.1624C61.6404 41.4944 60.0326 39.8866 59.3646 39.5696C58.7984 39.2978 57.9945 39.2412 57.485 39.445C56.5452 39.8187 55.7866 39.7394 54.643 39.1619C53.9637 38.8109 53.7033 38.5392 53.239 37.6221C52.9107 36.9654 52.7975 36.8521 52.2087 36.5578C51.6086 36.252 51.4274 36.2294 50.1706 36.1954C49.412 36.1728 48.5741 36.2068 48.3024 36.2634ZM51.0311 38.0297C51.4161 38.0976 51.484 38.1769 51.869 38.8902C52.0955 39.3205 52.4804 39.8526 52.7408 40.0791C53.3862 40.6339 54.643 41.2227 55.6621 41.4265C56.4546 41.585 56.5792 41.585 57.2472 41.4038C58.6286 41.0302 58.504 40.9962 59.5117 42.0266C60.5195 43.0569 60.4855 42.921 60.1118 44.2911C59.6136 46.1706 60.8591 48.922 62.5915 49.7712C63.3614 50.1448 63.452 50.3373 63.452 51.5488C63.452 52.7604 63.3614 52.9529 62.6141 53.3039C61.4139 53.87 60.4289 55.3646 60.0779 57.1196C59.9194 57.9235 59.9194 58.048 60.1005 58.7047C60.5081 60.2219 60.5308 60.1993 59.4212 59.1237C58.2889 58.0367 57.2812 57.2894 56.2056 56.7572C55.7979 56.5534 55.4469 56.3723 55.4243 56.3496C55.4016 56.327 55.5375 56.0779 55.7413 55.7948C57.3831 53.5077 57.5416 50.36 56.1263 47.9256C55.5715 46.9859 54.4279 45.8423 53.4881 45.2875C52.2993 44.5968 51.3821 44.359 49.8649 44.359C48.8346 44.359 48.393 44.4156 47.7702 44.6081C44.7471 45.5705 42.6185 48.4351 42.6185 51.5488C42.6185 52.9981 43.1393 54.6173 43.9885 55.7948C44.1923 56.0779 44.3282 56.3157 44.3055 56.3383C44.2829 56.3609 43.9319 56.5421 43.5243 56.7459C42.426 57.312 41.4296 58.0367 40.3086 59.1237C39.199 60.1993 39.2217 60.2219 39.6293 58.7047C39.8105 58.048 39.8105 57.9235 39.6519 57.1196C39.3009 55.3646 38.3159 53.87 37.1157 53.3039C36.3684 52.9529 36.2778 52.7604 36.2778 51.5488C36.2778 50.3373 36.3684 50.1448 37.1044 49.7938C38.146 49.307 38.9952 48.1747 39.4821 46.6235C39.7878 45.6498 39.8218 45.0723 39.618 44.2911C39.2443 42.921 39.2104 43.0456 40.2181 42.0266C41.2258 40.9962 41.1012 41.0302 42.4826 41.4038C43.1506 41.585 43.2752 41.585 44.0677 41.4265C45.0868 41.2227 46.3436 40.6339 46.989 40.0791C47.2494 39.8526 47.6457 39.3205 47.8721 38.8789C48.2005 38.2448 48.3477 38.075 48.5968 38.041C49.1063 37.9618 50.5782 37.9618 51.0311 38.0297ZM51.167 46.2839C54.0656 47.0425 55.8659 50.009 55.1299 52.8283C54.6204 54.7871 53.1145 56.3043 51.167 56.8138C48.325 57.5498 45.3585 55.7495 44.5999 52.8509C43.5922 48.9673 47.2834 45.2761 51.167 46.2839ZM31.6808 57.1196C32.3036 57.3007 33.2434 58.2405 33.4245 58.8632C33.7416 59.9276 33.5151 60.7768 32.7112 61.5693C31.5676 62.7242 30.1183 62.7242 28.9747 61.5693C27.8085 60.4144 27.8312 58.8179 29.0314 57.7423C29.8353 57.0177 30.6731 56.8252 31.6808 57.1196ZM69.7247 57.1196C70.6985 57.4139 71.6043 58.6594 71.6043 59.7011C71.6043 61.1051 70.2908 62.4185 68.8868 62.4185C67.4828 62.4185 66.1694 61.1051 66.1694 59.7011C66.1694 58.9878 66.4298 58.4103 67.0186 57.8329C67.8112 57.029 68.6604 56.8138 69.7247 57.1196ZM46.7172 58.0593C48.7553 59.0218 51.0311 59.0218 53.0013 58.0593L53.8278 57.6517L54.5977 57.9801C57.8247 59.3388 60.3496 62.3506 61.312 65.9965C61.5838 66.9928 61.5838 67.0948 61.5838 72.3824C61.5838 77.5342 61.5725 77.7719 61.3573 78.089C61.0969 78.4739 60.5647 78.723 59.976 78.723C59.6136 78.723 53.6353 77.2058 53.5108 77.0813C53.4655 77.036 53.4655 77.036 55.6394 76.4585C58.153 75.7792 58.7531 75.4055 59.4551 74.0468C59.7155 73.5486 59.7608 73.3108 59.7722 72.4956C59.7722 71.6691 59.7269 71.4426 59.4551 70.8878C59.274 70.5142 58.9003 70.0273 58.572 69.7329C58.1191 69.3253 58.0172 69.1668 58.0172 68.8497C58.0172 68.3629 57.7681 68.0006 57.3605 67.91C56.8849 67.8081 56.432 68.0232 56.2848 68.4195C56.2056 68.6346 56.081 68.7592 55.9338 68.7592C55.8093 68.7592 53.0239 69.4498 49.7517 70.2877C46.4681 71.1256 43.7281 71.8163 43.6488 71.8163C43.5582 71.8163 43.5243 71.3067 43.5243 70.1179C43.5243 68.4535 43.5129 68.3968 43.2412 68.1364C42.8789 67.7628 42.358 67.7628 41.9957 68.1364C41.7126 68.4082 41.7126 68.4421 41.7126 70.4009C41.7126 72.1107 41.69 72.3824 41.5428 72.3824C41.2371 72.3824 40.8068 72.9146 40.8068 73.2882C40.8068 73.6958 41.2371 74.194 41.5994 74.194C41.7353 74.194 45.0302 73.3788 48.9365 72.3711C53.9863 71.069 56.1376 70.5708 56.398 70.6047C56.9981 70.7067 57.5303 71.1029 57.7794 71.6351C58.3568 72.824 57.7794 73.9676 56.398 74.3638C53.4768 75.2017 40.5125 78.6325 40.0596 78.6891C39.3009 78.7683 38.7235 78.5758 38.4065 78.1229L38.146 77.7606V72.3258C38.1574 67.14 38.1687 66.8457 38.3951 66.0417C39.267 62.9167 40.8974 60.5956 43.3431 58.9765C44.0677 58.4896 45.5397 57.731 45.8567 57.663C45.868 57.663 46.253 57.8442 46.7172 58.0593ZM29.6767 64.0603C30.5033 64.2754 31.1487 64.2754 31.9979 64.049C32.6772 63.8791 32.6885 63.8791 33.2886 64.1735C34.1152 64.5811 34.9984 65.419 35.5079 66.2795C36.0853 67.2419 36.3118 68.3402 36.2552 69.7669C36.2212 70.7406 36.1759 70.9331 35.9155 71.3294C35.7456 71.5785 35.4173 71.9068 35.1795 72.054L34.7493 72.3258H30.843H26.9367L26.5064 72.054C26.2686 71.9068 25.9403 71.5785 25.7705 71.3294C25.51 70.9444 25.4647 70.7406 25.4308 69.7895C25.3742 68.4421 25.5327 67.559 25.9969 66.6079C26.4385 65.7021 27.4915 64.6151 28.3407 64.1962C28.6804 64.0263 28.9747 63.8905 28.9861 63.8905C29.0087 63.8905 29.3144 63.9697 29.6767 64.0603ZM67.7206 64.0603C68.5472 64.2754 69.2265 64.2754 70.0757 64.0603C70.7324 63.8905 70.7437 63.8905 71.3438 64.1735C72.1591 64.5811 73.0536 65.419 73.5517 66.2795C74.1066 67.2193 74.3556 68.3289 74.299 69.6876C74.2537 70.9444 74.0273 71.4766 73.314 71.9861L72.8271 72.3258H68.8868H64.9466L64.4597 71.9861C63.7464 71.4879 63.5199 70.9444 63.4746 69.7216C63.418 68.4195 63.5879 67.5363 64.0408 66.6079C64.4824 65.7021 65.5354 64.6151 66.3846 64.1962C66.7242 64.0263 67.0186 63.8905 67.0299 63.8905C67.0526 63.8905 67.3583 63.9697 67.7206 64.0603Z" fill="white"/>
<path d="M52.9104 63.5393C52.7066 63.6978 52.6387 63.8676 52.6387 64.2299C52.6387 64.5923 52.7066 64.7621 52.9104 64.9206C53.1369 65.1131 53.3746 65.1357 54.79 65.1357C55.6844 65.1357 56.4997 65.1018 56.6016 65.0678C56.8846 64.9546 57.1337 64.3658 57.0545 63.9922C56.9186 63.4034 56.6695 63.3241 54.8353 63.3241C53.3746 63.3241 53.1369 63.3468 52.9104 63.5393Z" fill="white"/>
<path d="M25.1816 37.237C23.0077 38.0296 22.0906 40.3734 23.1549 42.3888C23.5625 43.1474 23.9248 43.4984 24.774 43.94C25.2609 44.1891 25.4987 44.2344 26.3139 44.2344C27.1291 44.2344 27.3669 44.1891 27.8538 43.94C28.703 43.4871 29.0653 43.1474 29.4955 42.3548C29.8352 41.7094 29.8692 41.5509 29.8805 40.6791C29.8805 39.5468 29.6088 38.8788 28.8615 38.1315C27.933 37.2031 26.3479 36.8181 25.1816 37.237ZM27.0272 39.026C28.1934 39.5129 28.4765 41.0301 27.5707 41.9359C26.3026 43.2153 24.2192 42.0718 24.5476 40.2828C24.7514 39.2185 25.9969 38.5844 27.0272 39.026Z" fill="white"/>
<path d="M72.2835 37.237C70.1096 38.0296 69.1811 40.3734 70.2455 42.3661C70.6644 43.1474 71.0267 43.4984 71.8759 43.94C72.3628 44.1891 72.6006 44.2344 73.4158 44.2344C74.231 44.2344 74.4688 44.1891 74.9557 43.94C75.8049 43.4871 76.1672 43.1474 76.5974 42.3548C76.9371 41.7094 76.9711 41.5509 76.9824 40.6791C76.9824 39.5468 76.7107 38.8788 75.9634 38.1315C75.0349 37.2031 73.4498 36.8181 72.2835 37.237ZM74.1291 39.026C75.3067 39.5129 75.5897 41.0641 74.6499 41.9472C73.8913 42.6719 72.8836 42.6719 72.159 41.9359C70.755 40.5432 72.3062 38.2561 74.1291 39.026Z" fill="white"/>
<path d="M27.2762 46.0572C27.1177 46.2044 26.9932 46.4421 26.9932 46.578C26.9932 46.8611 28.3858 52.2733 28.6463 52.9753C28.8501 53.5641 29.235 53.7679 29.7785 53.5867C30.1861 53.4508 30.3899 53.1904 30.3899 52.8168C30.3899 52.6243 29.3709 48.6274 28.8501 46.8158C28.7595 46.4874 28.5783 46.1138 28.4651 46.0006C28.1481 45.6835 27.6159 45.7062 27.2762 46.0572Z" fill="white"/>
<path d="M71.276 45.9666C71.0948 46.1251 70.8344 46.929 70.189 49.386C69.7248 51.1523 69.3398 52.6922 69.3398 52.8168C69.3398 53.1904 69.5437 53.4508 69.9513 53.5867C70.4947 53.7679 70.8797 53.5641 71.0835 52.9753C71.3439 52.2733 72.7366 46.8611 72.7366 46.578C72.7366 45.944 71.7855 45.5477 71.276 45.9666Z" fill="white"/>
<defs>
<linearGradient id="paint0_linear_1_4267" x1="88.4582" y1="3.23364" x2="-3.2655" y2="98.6009" gradientUnits="userSpaceOnUse">
<stop offset="0.28125" stop-color="#02A59D"/>
<stop offset="0.786458" stop-color="#2B338E"/>
</linearGradient>
</defs>
</svg>
