<svg width="97" height="112" viewBox="0 0 97 112" fill="none" xmlns="http://www.w3.org/2000/svg">
<path d="M58.4212 109.863C28.3798 110.706 3.34341 87.0352 2.50098 56.9937C1.65854 26.9522 25.3291 1.91583 55.3705 1.0734C85.412 0.230968 94.3314 24.3534 95.1738 54.3949C96.0162 84.4364 88.4627 109.021 58.4212 109.863Z" fill="url(#paint0_linear_1_4311)"/>
<g clip-path="url(#clip0_1_4311)">
<path d="M33.3064 26.521C29.0378 27.223 25.3127 29.9857 23.3539 33.9033C22.9349 34.7525 22.5047 35.998 22.2556 37.1303C21.9838 38.3305 21.9838 41.1498 22.2556 42.4292C23.3539 47.5357 27.0903 51.4533 32.1515 52.8007C33.6121 53.197 36.0465 53.2989 37.5637 53.0272C41.8097 52.2912 45.3763 49.721 47.3011 46.0185C48.3654 43.9691 48.8183 42.0782 48.8183 39.7458C48.8183 36.0886 47.5049 32.9522 44.8668 30.3027C43.0778 28.5025 41.1077 27.3815 38.628 26.7588C37.1334 26.3738 34.7897 26.2719 33.3064 26.521ZM38.345 28.4345C40.4623 28.978 42.1493 29.9631 43.7232 31.5482C46.0103 33.858 47.12 36.5528 47.12 39.8024C47.12 42.9388 46.0443 45.5769 43.8704 47.8641C42.3305 49.4832 40.451 50.6041 38.3223 51.1589C37.1674 51.4647 34.8689 51.5666 33.68 51.3741C25.1541 50.0154 20.9308 40.4365 25.6863 33.2693C27.2828 30.8802 29.921 29.0346 32.6837 28.3892C34.0197 28.0722 34.133 28.0609 35.7408 28.1062C36.8617 28.1401 37.4844 28.2081 38.345 28.4345Z" fill="white"/>
<path d="M36.8053 36.9488L34.1218 39.6323L33.5104 39.1114C32.2989 38.0811 31.9139 38.1264 30.6118 39.4738C29.4456 40.6626 29.2305 41.0023 29.2305 41.5798C29.2305 42.0214 29.2871 42.0893 30.8949 43.6518C32.6386 45.3389 33.0801 45.6559 33.8614 45.7805C34.8125 45.9276 35.2654 45.6899 36.7487 44.2293C38.0394 42.9498 38.096 42.8932 38.0168 42.5195C37.9828 42.3157 37.8356 42.0553 37.7111 41.9421C37.2355 41.5571 36.9751 41.6817 35.673 42.9498C34.5294 44.0594 34.4049 44.15 34.0879 44.0821C33.8614 44.0368 33.2953 43.5952 32.3895 42.746L31.0421 41.4665L31.6309 40.8778L32.2083 40.289L32.7631 40.7645C33.0688 41.025 33.4311 41.308 33.567 41.376C33.884 41.5571 34.4275 41.5571 34.7332 41.376C34.8691 41.2967 36.1146 40.0739 37.5073 38.6585L40.0209 36.077L40.621 36.6658L41.2324 37.2659L40.1115 38.4094C39.4548 39.0662 38.9566 39.6776 38.9 39.8701C38.7867 40.323 39.149 40.7759 39.6586 40.8098C40.1115 40.8438 40.0322 40.9117 41.7193 39.1907C43.044 37.8207 43.044 37.8207 43.044 37.2772C43.044 36.7224 43.044 36.7224 41.8212 35.4995C40.5983 34.2767 40.5983 34.2767 40.0435 34.2767H39.4887L36.8053 36.9488Z" fill="white"/>
<path d="M62.1785 26.4755C61.2161 26.6 59.631 27.0642 58.5327 27.5398C55.9285 28.6607 53.3356 31.1404 52.0222 33.7672C50.4597 36.8696 50.1879 40.7532 51.2975 44.0368C52.1807 46.6297 53.8678 48.9508 56.121 50.6379C57.0381 51.3285 59.0761 52.3249 60.265 52.6646C63.2995 53.5251 66.6057 53.31 69.425 52.0645C70.4893 51.6003 72.0971 50.5926 72.6293 50.0604C73.1501 49.5509 72.9463 48.7583 72.2556 48.5998C71.9612 48.5319 71.916 48.5658 70.7158 49.4037C68.5871 50.8983 66.1754 51.5776 63.4467 51.4531C60.3669 51.3172 58.0118 50.2642 55.77 48.0337C53.4488 45.7352 52.3279 43.063 52.3279 39.8135C52.3279 36.462 53.4375 33.8125 55.8379 31.4461C57.457 29.8383 59.3819 28.7966 61.5898 28.2984C62.8919 28.0153 65.4394 28.038 66.7076 28.355C68.8362 28.8872 70.829 30.0194 72.3236 31.5253C76.06 35.3071 76.8186 41.0476 74.1805 45.6446C73.4898 46.8335 73.6257 47.5241 74.5541 47.5241C75.041 47.5241 75.2108 47.343 75.9128 45.9616C77.0451 43.7537 77.4074 42.2252 77.3961 39.6549C77.3848 38.0132 77.3508 37.7188 77.0338 36.5186C75.2901 29.8383 69.006 25.5923 62.1785 26.4755Z" fill="white"/>
<path d="M59.518 32.7142C59.167 32.9067 57.0836 34.9787 56.9024 35.3184C56.6986 35.7147 56.6986 36.1336 56.9138 36.5299C57.0043 36.7111 57.763 37.5037 58.6122 38.3076L60.1633 39.7568L58.5103 41.3873C56.2344 43.6292 56.2231 43.6405 58.1932 45.6559C59.9709 47.4562 60.0162 47.4562 62.3599 45.2143L64.0696 43.5726L65.5869 45.1011C67.1607 46.6863 67.5117 46.958 68.0099 46.958C68.4741 46.958 68.7232 46.7768 69.8555 45.6672C71.0557 44.501 71.2368 44.2179 71.2368 43.5499C71.2368 43.0857 71.1915 43.0177 69.5951 41.4213L67.9646 39.7682L69.5951 38.1151L71.2368 36.4733V35.9298C71.2368 35.4543 71.1802 35.341 70.7047 34.8089C69.4479 33.4162 68.7912 32.7935 68.4402 32.6802C67.7268 32.4538 67.4551 32.6123 65.6888 34.3447L64.0357 35.9751L62.3826 34.3899C60.503 32.5897 60.1294 32.3745 59.518 32.7142ZM61.0465 35.4769C62.6543 37.096 63.73 38.0132 64.0583 38.0132C64.2734 38.0132 64.783 37.5942 66.153 36.2582C67.1494 35.2957 67.9986 34.5145 68.0439 34.5145C68.0892 34.5258 68.4175 34.8428 68.7685 35.2278L69.4252 35.9298L67.7155 37.6169C66.7757 38.5453 65.9605 39.4285 65.9039 39.5757C65.836 39.7455 65.8473 39.9267 65.9265 40.0852C65.9945 40.2211 66.821 41.0816 67.7608 41.9987L69.4818 43.6518L68.8025 44.3425C68.4288 44.7275 68.0778 45.0332 68.0099 45.0332C67.942 45.0332 67.1833 44.3198 66.3115 43.4367C64.783 41.8968 64.3074 41.5232 63.9338 41.5232C63.8432 41.5232 62.9374 42.3044 61.941 43.2442C60.9446 44.1953 60.0841 44.9879 60.0501 45.0105C60.0048 45.0218 59.6652 44.7275 59.2915 44.3538L58.6122 43.6745L60.4011 41.8855C61.8957 40.3796 62.1788 40.0512 62.1788 39.7682C62.1788 39.4851 61.907 39.1681 60.4238 37.6848C59.4613 36.7337 58.6688 35.9185 58.6688 35.8845C58.6688 35.7939 59.9369 34.5032 60.0275 34.5032C60.0614 34.5032 60.5257 34.9447 61.0465 35.4769Z" fill="white"/>
<path d="M23.467 50.2416C22.1196 50.57 21.2138 52.1891 21.6667 53.4685C21.9271 54.1932 29.5812 65.8215 30.3851 66.7046C31.2909 67.701 32.2646 68.3464 33.7592 68.9239C34.4159 69.173 35.0613 69.4334 35.2085 69.49C35.4576 69.5919 35.4576 69.6372 35.4576 71.4262V73.2604L35.0047 73.6454C34.2461 74.2908 34.2121 74.5625 34.2121 79.284C34.2121 81.9901 34.2574 83.5073 34.3367 83.7451C34.5518 84.3565 35.2312 84.5264 35.6614 84.0622C35.9105 83.8017 35.9105 83.7564 35.9105 79.5218C35.9105 76.7931 35.9558 75.1739 36.0237 75.0267C36.137 74.8229 36.3181 74.8116 41.5492 74.8116C45.614 74.8116 46.9953 74.8456 47.0972 74.9475C47.1991 75.0494 47.2331 76.2043 47.2331 79.4199V83.7678L47.5162 84.0395C47.8672 84.4018 48.2974 84.4018 48.6484 84.0395L48.9315 83.7678V79.3406C48.9315 74.6418 48.9202 74.5285 48.3654 73.8265C48.1502 73.5548 48.1389 73.3736 48.1389 70.5656C48.1389 67.9841 48.1049 67.4859 47.9124 66.7273C47.6067 65.5044 46.9727 64.3722 46.1008 63.4664C45.2856 62.6172 44.9006 62.4926 44.3911 62.9003C43.9382 63.2739 44.0514 63.7155 44.8214 64.5533C45.546 65.3346 46.1235 66.3763 46.316 67.2255C46.3839 67.5085 46.4405 68.9465 46.4405 70.4184V73.1132H41.7983H37.156V71.6413C37.156 70.3392 37.1786 70.158 37.3598 70.0901C37.9146 69.8976 38.1411 69.2296 37.8014 68.7767C37.7334 68.6634 36.7371 68.2332 35.6048 67.8143C33.1931 66.8971 32.4798 66.5008 31.6419 65.5837C31.1097 64.9949 23.6255 53.695 23.3198 53.0043C23.0367 52.3816 23.7274 51.6683 24.3615 51.9287C24.52 51.9966 26.626 53.7629 29.0377 55.8689C33.3403 59.6054 33.4422 59.7073 33.7139 60.3753C33.9404 60.9528 34.2234 61.2924 35.6501 62.7191C36.5672 63.6475 37.4164 64.4288 37.5296 64.4628C38.0618 64.6326 38.7185 63.9759 38.56 63.4437C38.526 63.3192 37.7561 62.4587 36.8616 61.5529L35.2312 59.8998V59.3676C35.2312 58.9034 35.2878 58.7675 35.6161 58.4392C36.0351 58.0202 36.5899 57.9296 37.0767 58.1901C37.2126 58.258 38.3335 59.1525 39.5677 60.1715C41.0283 61.3717 41.9002 62.0171 42.07 62.0171C42.2172 62.0171 42.4663 61.9039 42.6361 61.7793C42.8852 61.5868 42.9418 61.4623 42.9079 61.1226C42.8739 60.7376 42.7267 60.5904 40.6094 58.8241C39.3639 57.7824 38.0958 56.7974 37.7901 56.6389C36.7031 56.0841 35.2764 56.3332 34.382 57.2276C34.0423 57.5673 33.8272 57.7032 33.7253 57.6353C33.6347 57.59 31.7778 55.9935 29.5812 54.0913C27.3846 52.1891 25.4258 50.5586 25.222 50.4454C24.7691 50.219 23.9652 50.1171 23.467 50.2416Z" fill="white"/>
<path d="M74.8035 50.2302C74.6224 50.2755 74.328 50.3887 74.1695 50.4793C73.9996 50.5699 72.0635 52.189 69.8669 54.1025C67.659 56.0047 65.7908 57.5899 65.7115 57.6465C65.6209 57.7031 65.3945 57.5446 65.0661 57.2275C64.1943 56.3557 62.745 56.084 61.7146 56.6161C61.0579 56.9445 53.7209 63.002 53.0642 63.7493C52.3848 64.5193 51.8074 65.6515 51.5356 66.7272C51.3432 67.4858 51.3092 67.984 51.3092 70.5655C51.3092 73.3735 51.2979 73.5547 51.0827 73.8264C50.5279 74.5284 50.5166 74.6417 50.5166 79.3405V83.7677L50.7997 84.0394C51.1507 84.4017 51.5809 84.4017 51.9319 84.0394L52.215 83.7677V79.4198C52.215 76.2042 52.249 75.0493 52.3509 74.9474C52.4528 74.8455 53.8341 74.8115 57.8989 74.8115C63.13 74.8115 63.3111 74.8228 63.4243 75.0266C63.4923 75.1738 63.5376 76.8043 63.5376 79.5443V83.8356L63.798 84.0734C64.2622 84.515 64.8963 84.3564 65.1114 83.745C65.2812 83.2468 65.2812 75.6041 65.1114 74.7889C65.0095 74.3133 64.8736 74.0869 64.4887 73.7132L63.9905 73.2263V71.4147C63.9905 69.6371 63.9905 69.5918 64.2509 69.4899C64.3868 69.4333 65.0322 69.1729 65.6889 68.9238C67.1834 68.3463 68.1572 67.7009 69.063 66.7045C69.8669 65.8214 77.521 54.1931 77.7814 53.4684C78.1777 52.3249 77.5776 50.9888 76.3887 50.3774C76.0603 50.2075 75.1998 50.1283 74.8035 50.2302ZM75.766 51.9965C76.1509 52.189 76.2981 52.6306 76.1283 53.0042C75.8226 53.6949 68.3383 64.9948 67.8062 65.5836C66.9683 66.5007 66.2437 66.9083 63.832 67.8141C62.6997 68.2331 61.7146 68.6633 61.6467 68.7766C61.307 69.2295 61.5335 69.8975 62.0996 70.09C62.2694 70.1579 62.2921 70.3391 62.2921 71.6412V73.1131H57.6385H52.9962L53.0302 70.1353C53.0642 67.2027 53.0755 67.1574 53.3812 66.4441C53.9134 65.176 54.3889 64.7004 58.3518 61.4395C60.4239 59.7185 62.2355 58.2579 62.3713 58.19C62.8582 57.9295 63.413 58.0201 63.832 58.439C64.1603 58.7674 64.2169 58.9033 64.2169 59.3675V59.8997L62.5865 61.5528C61.692 62.4586 60.9221 63.3191 60.8881 63.4436C60.7296 63.9871 61.3863 64.6325 61.9184 64.4627C62.0317 64.4287 62.9035 63.6135 63.8433 62.6624C65.3152 61.1791 65.5756 60.8621 65.7568 60.3299C65.9493 59.7638 66.1078 59.594 67.6137 58.2919C75.0526 51.8493 75.03 51.8606 75.347 51.838C75.3923 51.8267 75.5848 51.9059 75.766 51.9965Z" fill="white"/>
</g>
<defs>
<linearGradient id="paint0_linear_1_4311" x1="89.4337" y1="3.23364" x2="-2.28991" y2="98.6009" gradientUnits="userSpaceOnUse">
<stop offset="0.28125" stop-color="#02A59D"/>
<stop offset="0.786458" stop-color="#2B338E"/>
</linearGradient>
<clipPath id="clip0_1_4311">
<rect width="57.9716" height="57.9716" fill="white" transform="translate(20.7383 26.3508)"/>
</clipPath>
</defs>
</svg>
