<svg width="96" height="112" viewBox="0 0 96 112" fill="none" xmlns="http://www.w3.org/2000/svg">
<path d="M57.4457 109.863C27.4042 110.706 2.36782 87.0354 1.52539 56.9939C0.682958 26.9524 24.3535 1.91608 54.3949 1.07364C84.4364 0.231212 93.3558 24.3537 94.1982 54.3952C95.0406 84.4366 87.4871 109.021 57.4457 109.863Z" fill="url(#paint0_linear_1_4284)"/>
<path d="M54.2343 26.78C51.9326 27.1923 49.8485 28.3145 48.2339 30.0093C46.8597 31.4521 45.9093 33.1927 45.4169 35.1509C45.142 36.2846 45.142 38.6092 45.4283 39.949L45.6459 40.9796L44.4779 43.2927C43.848 44.5753 43.3213 45.7433 43.3213 45.9036C43.3213 46.2815 43.8022 46.7625 44.1687 46.7625C44.329 46.7625 45.2565 46.3617 46.2299 45.8807L47.9934 44.999L48.7492 45.6975C50.2149 47.0831 52.2189 48.0679 54.2801 48.4229C58.4255 49.1443 62.5823 47.4152 65.113 43.934C65.7428 43.0637 66.5215 41.346 66.8192 40.1665C67.1742 38.7237 67.1742 36.4792 66.8192 35.0249C66.4986 33.7767 65.6512 31.956 64.9183 30.9941C62.4449 27.7305 58.2079 26.0586 54.2343 26.78ZM58.3224 28.7038C60.6928 29.3566 62.5365 30.6735 63.8305 32.6545C64.7008 33.9829 65.1588 35.4028 65.2733 37.0976C65.6169 42.4568 61.002 47.0716 55.6428 46.7281C53.2037 46.5678 51.3143 45.686 49.505 43.8538C48.4858 42.8118 48.3026 42.7774 47.1002 43.3843L46.2986 43.7851L46.9284 42.5255C47.272 41.8384 47.5583 41.1628 47.5583 41.0368C47.5583 40.9109 47.4437 40.407 47.3063 39.9261C46.9857 38.7809 46.9399 36.5365 47.2376 35.483C47.5697 34.2806 47.9018 33.5134 48.4629 32.6545C49.8256 30.5704 51.9441 29.1275 54.429 28.6008C55.3451 28.4061 57.4292 28.4634 58.3224 28.7038Z" fill="#F3F3F3"/>
<path d="M54.8522 33.9599C54.3598 34.4867 53.7644 35.1508 53.5353 35.46C53.3063 35.7578 53.0658 35.9753 52.9971 35.9524C51.4627 35.231 50.0771 34.8531 48.9549 34.8531C48.577 34.8531 48.3937 34.9218 48.1647 35.1508C47.8784 35.4371 47.867 35.4829 47.9471 36.4105C48.096 38.4145 48.8747 40.0749 50.3634 41.5521C51.4169 42.6056 52.3788 43.2011 53.6842 43.6362C54.4973 43.8996 54.7835 43.934 56.1462 43.934C57.4975 43.9454 57.8067 43.8996 58.5739 43.6477C59.9366 43.2011 60.91 42.5942 61.9406 41.5635C63.4063 40.0978 64.1965 38.403 64.3453 36.4105C64.4255 35.4715 64.414 35.4371 64.1049 35.1394C63.8071 34.8302 63.7728 34.8188 62.8452 34.8989C61.8146 34.9791 60.6351 35.2883 59.7763 35.7349C59.4671 35.8837 59.2037 35.9982 59.1923 35.9753C59.0434 35.7234 57.3944 33.8454 57.0051 33.4904C56.2035 32.7461 55.9516 32.8033 54.8522 33.9599ZM56.9249 36.0899C59.0549 38.5748 59.3755 39.8573 58.196 41.1971C57.8181 41.6208 57.1081 42.0789 57.028 41.9414C57.0165 41.9185 56.9135 41.5292 56.799 41.094C56.5241 39.9718 55.8141 38.5748 55.1042 37.7961C54.5774 37.2006 54.5316 37.109 54.6805 36.9372C55.608 35.8265 56.0661 35.3112 56.1577 35.3112C56.2035 35.3112 56.5585 35.6662 56.9249 36.0899ZM51.6459 37.3838C52.9284 37.9908 53.9018 38.9756 54.5316 40.2696C55.0584 41.3345 55.2416 42.0674 54.9782 42.0674C54.6118 42.0674 53.3636 41.5635 52.7452 41.1628C51.2795 40.2123 50.1916 38.6664 49.8824 37.0976C49.8137 36.7655 49.8137 36.7655 50.2603 36.8456C50.5008 36.8914 51.1306 37.1319 51.6459 37.3838ZM62.3872 37.2235C62.2383 38.0595 61.0474 40.2352 60.7496 40.2352C60.7038 40.2352 60.6809 39.9604 60.7038 39.6283C60.7382 39.2275 60.6695 38.7923 60.5092 38.3457C60.2229 37.5213 60.2229 37.5327 60.4748 37.4296C61.1848 37.1205 62.078 36.8113 62.2612 36.8113C62.4444 36.7998 62.4559 36.8571 62.3872 37.2235Z" fill="#F3F3F3"/>
<path d="M30.0951 33.1584C29.0645 33.3531 27.759 34.0745 26.9002 34.9219C24.3809 37.4412 24.3809 41.4262 26.9002 43.9455C29.4195 46.4533 33.4618 46.4533 35.9467 43.9341C38.4316 41.4033 38.4202 37.4412 35.9352 34.9334C34.4237 33.3989 32.2708 32.7462 30.0951 33.1584ZM33.29 35.2884C34.3321 35.7693 34.9962 36.4335 35.5115 37.4641C35.9123 38.2886 35.9352 38.3917 35.9352 39.4337C35.9352 40.4758 35.9123 40.5788 35.5115 41.4033C34.9962 42.4454 34.3321 43.0867 33.2671 43.5905C32.5686 43.9226 32.3968 43.957 31.412 43.957C30.4272 43.957 30.2554 43.9226 29.5569 43.5905C28.4919 43.0867 27.8277 42.4454 27.3124 41.4033C26.9116 40.5788 26.8887 40.4758 26.8887 39.4452C26.8887 38.4489 26.9231 38.2771 27.2552 37.5786C27.7132 36.6053 28.366 35.8953 29.2248 35.4487C30.118 34.9677 30.6219 34.8532 31.6639 34.899C32.3624 34.9334 32.7174 35.025 33.29 35.2884Z" fill="#F3F3F3"/>
<path d="M28.2628 46.9C27.9536 46.9573 27.278 47.2092 26.7627 47.4497C25.0221 48.2856 23.625 50.1063 23.293 51.9615C23.2128 52.3966 23.167 55.1334 23.167 59.4964V66.3557L23.4533 66.6305C23.6021 66.7908 23.8083 66.9168 23.9113 66.9168C24.0602 66.9168 24.0831 67.7527 24.0831 74.7036V82.4905H24.9992H25.9153V74.7036V66.9168H31.4119H36.9085V74.7036V82.4905H37.8246H38.7407V74.7036C38.7407 67.7527 38.7636 66.9168 38.9125 66.9168C39.0155 66.9168 39.2216 66.7908 39.3705 66.6305L39.6568 66.3557V63.6303V60.9049L44.7297 56.9656C47.5238 54.8014 49.94 52.8432 50.1003 52.6142C51.3829 50.8049 50.0889 48.2512 47.8902 48.2512C47.0657 48.2512 46.5733 48.5375 43.2067 50.9537C41.3172 52.2935 39.7484 53.4043 39.714 53.4043C39.6797 53.4043 39.6568 53.2325 39.6568 53.0264C39.6568 52.2592 39.4049 51.2629 38.9697 50.3583C38.1338 48.6177 36.313 47.2206 34.4579 46.8885C33.6334 46.7397 29.0644 46.7397 28.2628 46.9ZM35.0992 49.0185C36.4275 49.6483 37.2864 50.6675 37.6643 52.076C37.9391 53.118 37.9162 53.1295 36.9085 52.4424C35.8779 51.7439 35.1221 51.5034 34.2976 51.6294C32.7059 51.8698 31.6409 53.0951 31.6409 54.6868C31.6409 56.2786 31.9501 56.6336 35.1908 58.7864L37.8246 60.5384V62.8172V65.0846H31.4119H24.9877L25.0221 58.5803L25.0564 52.0874L25.4229 51.3202C25.6176 50.8965 25.9955 50.3239 26.2474 50.0491C26.7512 49.4994 27.7818 48.8925 28.5033 48.7207C28.7552 48.6635 30.1637 48.6177 31.6409 48.6291L34.332 48.652L35.0992 49.0185ZM48.5315 50.3697C48.8979 50.7247 48.9094 51.24 48.5659 51.6065C48.417 51.7668 46.2069 53.5188 43.6304 55.5113L38.9697 59.1414L36.3932 57.4008C34.9732 56.4503 33.7365 55.5571 33.6449 55.4312C33.5533 55.2938 33.4731 54.9617 33.4731 54.6868C33.4731 54.2861 33.5418 54.1257 33.8052 53.8624C34.1716 53.4959 34.5953 53.3471 34.9961 53.4501C35.1335 53.4845 35.9466 54.0112 36.794 54.6181C38.5689 55.8778 38.901 56.061 39.2789 55.9121C39.4278 55.8549 41.3516 54.5265 43.5617 52.9463C47.8902 49.8659 47.9818 49.8086 48.5315 50.3697Z" fill="#F3F3F3"/>
<path d="M52.3218 62.4507C51.6004 62.6339 50.5698 63.2523 50.0659 63.7905C49.814 64.0653 49.4361 64.6379 49.2414 65.0616C48.9094 65.7601 48.875 65.9319 48.875 66.9282C48.875 67.9588 48.8979 68.0618 49.2987 68.8863C49.814 69.9284 50.4782 70.5696 51.5431 71.0735C52.2417 71.4056 52.4134 71.4399 53.3982 71.4399C54.383 71.4399 54.5548 71.4056 55.2533 71.0735C56.3183 70.5696 56.9825 69.9284 57.4978 68.8863C57.8986 68.0618 57.9215 67.9588 57.9215 66.9167C57.9215 65.8746 57.8986 65.7716 57.4978 64.9471C56.7191 63.3897 55.345 62.4622 53.6502 62.382C53.1692 62.3591 52.5738 62.3935 52.3218 62.4507ZM54.2456 64.3058C54.8755 64.489 55.8259 65.4395 56.0091 66.0693C56.3298 67.1457 56.1007 68.0046 55.2877 68.8062C54.1311 69.9742 52.6654 69.9742 51.5088 68.8062C50.3408 67.6496 50.3408 66.1838 51.5088 65.0272C52.3104 64.2142 53.1692 63.9966 54.2456 64.3058Z" fill="#F3F3F3"/>
<path d="M68.8121 62.4507C68.0906 62.6339 67.06 63.2523 66.5562 63.7905C66.3042 64.0653 65.9263 64.6379 65.7317 65.0616C65.3996 65.7601 65.3652 65.9319 65.3652 66.9282C65.3652 67.9588 65.3881 68.0618 65.7889 68.8863C66.3042 69.9284 66.9684 70.5696 68.0334 71.0735C68.7319 71.4056 68.9037 71.4399 69.8885 71.4399C70.8733 71.4399 71.0451 71.4056 71.7436 71.0735C72.8085 70.5696 73.4727 69.9284 73.988 68.8863C74.3888 68.0618 74.4117 67.9588 74.4117 66.9167C74.4117 65.8746 74.3888 65.7716 73.988 64.9471C73.2093 63.3897 71.8352 62.4622 70.1404 62.382C69.6595 62.3591 69.064 62.3935 68.8121 62.4507ZM70.7359 64.3058C71.7207 64.6035 72.6368 65.8632 72.6368 66.9167C72.6368 68.3367 71.3084 69.665 69.8885 69.665C68.835 69.665 67.5753 68.7489 67.2776 67.7641C66.957 66.6877 67.186 65.8288 67.999 65.0272C68.8006 64.2142 69.6595 63.9966 70.7359 64.3058Z" fill="#F3F3F3"/>
<path d="M30.8395 68.955C30.6105 69.1382 30.4044 69.9856 29.2364 75.4593C28.492 78.9176 27.8622 81.872 27.8393 82.0209C27.8049 82.2843 27.8622 82.3186 28.6867 82.4904L29.5684 82.6851L29.6715 82.2156C29.7288 81.9636 30.1296 80.0627 30.5647 78.0015C30.9998 75.9288 31.3777 74.2455 31.4121 74.2455C31.4464 74.2455 31.8243 75.9288 32.2595 78.0015C32.6946 80.0627 33.0954 81.9636 33.1527 82.2156L33.2557 82.6851L34.1375 82.5018C34.9734 82.3301 35.0192 82.2957 34.9849 82.0323C34.962 81.872 34.3322 78.9176 33.5878 75.4593C32.1335 68.6344 32.1679 68.7489 31.4121 68.7489C31.2403 68.7489 30.9769 68.8405 30.8395 68.955Z" fill="#F3F3F3"/>
<path d="M51.1651 72.5508C49.4016 72.8829 47.5694 74.3143 46.7564 76.0091C46.1724 77.2344 46.0693 77.8871 46.0693 80.3949V82.4905H46.974H47.8786L47.9244 80.1086L47.9588 77.7382L48.3252 76.971C48.8291 75.906 49.4704 75.2418 50.5124 74.7265L51.3827 74.3028H53.3981H55.4136L56.2838 74.7265C57.3259 75.2418 57.9672 75.906 58.471 76.971L58.8375 77.7382L58.8718 80.1086L58.9176 82.4905H59.8223H60.7269V80.3949C60.7269 77.8871 60.6239 77.2344 60.0399 76.0091C59.2039 74.257 57.3946 72.8714 55.5281 72.5393C54.715 72.3905 51.9667 72.3905 51.1651 72.5508Z" fill="#F3F3F3"/>
<path d="M67.6554 72.5508C65.8919 72.8829 64.0597 74.3143 63.2466 76.0091C62.6626 77.2344 62.5596 77.8871 62.5596 80.3949V82.4905H63.4642H64.3689L64.4147 80.1086L64.449 77.7382L64.8155 76.971C65.3193 75.906 65.9606 75.2418 67.0027 74.7265L67.8729 74.3028H69.8884H71.9038L72.7741 74.7265C73.8161 75.2418 74.4574 75.906 74.9613 76.971L75.3277 77.7382L75.3621 80.1086L75.4079 82.4905H76.3125H77.2172V80.3949C77.2172 77.8871 77.1141 77.2344 76.5301 76.0091C75.6941 74.257 73.8849 72.8714 72.0183 72.5393C71.2053 72.3905 68.457 72.3905 67.6554 72.5508Z" fill="#F3F3F3"/>
<defs>
<linearGradient id="paint0_linear_1_4284" x1="88.4582" y1="3.23388" x2="-3.2655" y2="98.6011" gradientUnits="userSpaceOnUse">
<stop offset="0.28125" stop-color="#02A59D"/>
<stop offset="0.786458" stop-color="#2B338E"/>
</linearGradient>
</defs>
</svg>
