<svg width="731" height="576" viewBox="0 0 731 576" fill="none" xmlns="http://www.w3.org/2000/svg">
<path d="M116.594 397.124C30.2302 262.11 148.249 153.782 148.249 153.782C256.129 41.0266 337.963 38.7998 347.773 38.9685C348.481 38.9685 349.19 38.9685 349.907 38.9685C362.871 38.8251 482.4 39.9385 529.238 127.938C529.238 127.938 538.567 150.29 529.238 196.462C529.238 196.462 515.009 250.714 551.809 272.678C551.809 272.678 656.67 317.897 644.229 373.001C644.229 373.001 624.922 485.183 391.364 515.025C391.364 515.025 228.337 540.169 133.699 419.375L116.594 397.124Z" fill="#F5F5F5"/>
<path opacity="0.7" d="M644.229 373.009C644.229 373.009 637.894 409.802 588.61 446.847C583.305 450.845 577.501 454.835 571.15 458.774C568.563 460.393 565.878 462.002 563.095 463.599C525.552 485.166 470.87 504.878 391.364 515.051C391.364 515.051 228.337 540.194 133.699 419.401L116.594 397.133C30.2302 262.11 148.249 153.791 148.249 153.791C204.534 94.9499 253.742 66.2127 289.312 52.1942C295.267 49.8577 300.834 47.9262 305.996 46.3404C329.107 39.2046 343.952 38.9094 347.781 38.9685C348.498 38.9685 349.207 38.9685 349.907 38.9685C357.211 38.8926 398.28 39.2047 441.145 55.2138C445.481 56.8164 449.842 58.5877 454.177 60.5614C455.274 61.0506 456.379 61.5567 457.475 62.0797C458.276 62.4592 459.095 62.8472 459.896 63.2521C461.743 64.1546 463.59 65.0824 465.412 66.0524C490.312 79.2865 513.743 98.8551 529.238 127.955C530.272 130.774 531.045 133.682 531.549 136.643C532.317 140.87 532.827 145.14 533.076 149.43C533.194 151.269 533.275 153.237 533.32 155.334C533.531 165.92 532.612 179.618 529.204 196.496C529.204 196.496 519.344 234.081 537.259 259.351C540.869 264.457 545.456 268.794 550.755 272.113L551.742 272.72C551.742 272.72 556.06 274.584 562.842 278.001L563.027 278.093C565.431 279.316 568.147 280.725 571.083 282.311C576.346 285.162 582.318 288.611 588.543 292.576C617.482 310.913 651.643 340.207 644.229 373.009Z" fill="#F5F5F5"/>
<path d="M550.789 272.096H305.987V259.334H537.293C540.903 264.44 545.49 268.777 550.789 272.096Z" fill="#E6E6E6"/>
<path d="M562.91 277.984H305.987V272.08H550.789L551.776 272.687C551.776 272.687 556.128 274.568 562.91 277.984Z" fill="white"/>
<path d="M533.076 149.43H305.987V136.643H531.549C532.317 140.87 532.827 145.14 533.076 149.43Z" fill="#E6E6E6"/>
<path d="M533.354 155.317H305.987V149.413H533.076C533.216 151.263 533.309 153.231 533.354 155.317Z" fill="white"/>
<path d="M305.987 46.3405V441.862H289.312V52.1773C295.258 49.8577 300.825 47.9262 305.987 46.3405Z" fill="white"/>
<path d="M588.61 292.576V446.847C583.305 450.845 577.502 454.835 571.15 458.774V282.311C576.414 285.162 582.385 288.612 588.61 292.576Z" fill="white"/>
<path d="M571.15 282.311V458.774C568.563 460.393 565.878 462.002 563.095 463.599V278.076C565.499 279.299 568.215 280.708 571.15 282.311Z" fill="#E6E6E6"/>
<path d="M514.881 172.98L414.086 173.756L406.562 173.815L454.168 111.153V60.5446C455.265 61.0338 456.37 61.5399 457.466 62.0628C458.267 62.4424 459.086 62.8304 459.887 63.2352C461.734 64.1378 463.581 65.0656 465.403 66.0356V110.149L514.881 172.98Z" fill="#2B338E"/>
<path opacity="0.2" d="M479.195 151.176C479.195 151.176 472.523 162.116 446.198 163.634L414.146 173.756L406.622 173.815L454.228 111.153V60.5446C455.324 61.0338 456.429 61.5399 457.526 62.0628C458.327 62.4424 459.145 62.8304 459.946 63.2352V110.883C459.946 110.883 487.528 139.173 479.195 151.176Z" fill="black" fill-opacity="0.27"/>
<path d="M515.995 175.443C515.949 176.375 515.551 177.255 514.882 177.906C509.821 183.498 487.612 187.707 461.034 187.707C430.669 187.707 406.082 182.216 406.082 175.443C406.082 170.534 419.029 166.283 437.721 164.334C445.467 163.543 453.248 163.158 461.034 163.179C468.246 163.179 475.137 163.491 481.446 164.022C501.69 165.852 515.995 170.272 515.995 175.443Z" fill="white"/>
<path d="M515.995 175.443C515.949 176.375 515.551 177.255 514.881 177.906C482.374 165.161 460.056 166.097 460.056 166.097C435.519 166.097 406.073 175.417 406.073 175.417C406.073 170.508 419.021 166.257 437.712 164.309C445.458 163.518 453.24 163.132 461.026 163.153C468.237 163.153 475.128 163.465 481.438 163.997C501.689 165.852 515.995 170.272 515.995 175.443Z" fill="#CCCCCC"/>
<path d="M481.446 164.039C480.638 169.235 478.006 173.975 474.023 177.409C470.04 180.842 464.965 182.747 459.706 182.782C454.447 182.816 449.347 180.978 445.319 177.597C441.291 174.215 438.598 169.511 437.721 164.326C445.466 163.535 453.248 163.149 461.034 163.17C468.246 163.17 475.137 163.482 481.446 164.039Z" fill="#2F2E41"/>
<path d="M457.467 62.088H305.987V55.2222H441.137C446.569 57.2381 452.043 59.5155 457.467 62.088Z" fill="white"/>
<path d="M441.137 55.2222H305.987V46.3404C329.098 39.2046 343.944 38.9094 347.773 38.9685C348.49 38.9685 349.198 38.9685 349.899 38.9685C357.203 38.901 398.272 39.2131 441.137 55.2222Z" fill="#E6E6E6"/>
<path d="M386.792 442.875H315.662V462.679H386.792V442.875Z" fill="#666666"/>
<path d="M315.662 462.688L337.272 483.631H413.834L386.792 462.688H315.662Z" fill="#808080"/>
<path d="M511.576 196.175H180.082C168.934 196.175 159.897 205.212 159.897 216.359V426.3C159.897 437.448 168.934 446.484 180.082 446.484H511.576C522.723 446.484 531.76 437.448 531.76 426.3V216.359C531.76 205.212 522.723 196.175 511.576 196.175Z" fill="#808080"/>
<path d="M506.726 206.98H183.119C176.755 206.98 171.597 212.138 171.597 218.502V405.247C171.597 411.61 176.755 416.769 183.119 416.769H506.726C513.089 416.769 518.248 411.61 518.248 405.247V218.502C518.248 212.138 513.089 206.98 506.726 206.98Z" fill="#EBEBEB"/>
<path d="M358.882 437.476C362.362 437.476 365.183 434.655 365.183 431.176C365.183 427.696 362.362 424.875 358.882 424.875C355.402 424.875 352.581 427.696 352.581 431.176C352.581 434.655 355.402 437.476 358.882 437.476Z" fill="#666666"/>
<path d="M384.995 435.68C387.483 435.68 389.5 433.663 389.5 431.176C389.5 428.688 387.483 426.671 384.995 426.671C382.508 426.671 380.491 428.688 380.491 431.176C380.491 433.663 382.508 435.68 384.995 435.68Z" fill="#666666"/>
<path d="M332.768 435.68C335.255 435.68 337.272 433.663 337.272 431.176C337.272 428.688 335.255 426.671 332.768 426.671C330.28 426.671 328.264 428.688 328.264 431.176C328.264 433.663 330.28 435.68 332.768 435.68Z" fill="#666666"/>
<path d="M338.132 264.244C335.344 266.711 331.988 268.45 328.364 269.304C316.555 272.02 304.072 264.564 296.051 251.457C292.792 246.078 290.425 240.207 289.041 234.073C283.702 210.852 292.643 188.955 309.015 185.151C325.387 181.347 341.652 205.771 347 229C351.15 247.076 348.026 255.699 338.132 264.244Z" fill="#F9B499"/>
<path d="M292.618 239.985C288.747 243.46 281.105 241.25 275.53 235.068C270.933 229.948 269.195 223.698 270.924 219.716C271.272 218.893 271.796 218.157 272.459 217.557C276.331 214.082 283.981 216.284 289.54 222.483C290.203 223.21 290.814 223.982 291.37 224.794C295.368 230.505 296.06 236.932 292.618 239.985Z" fill="#F9B499"/>
<path d="M343.648 211.62C343.648 211.62 333.861 210.771 328.972 203.152C328.972 203.152 315.35 223.94 303.195 204.524C303.179 204.501 303.157 204.483 303.131 204.473C303.106 204.464 303.078 204.463 303.051 204.471C303.025 204.479 303.002 204.495 302.985 204.517C302.968 204.54 302.959 204.567 302.958 204.595C303.111 206.252 302.859 210.771 295.532 210.771C295.532 210.771 303.737 225.637 289.03 224.979C288.527 224.216 287.973 223.49 287.373 222.806C282.338 216.979 275.408 214.878 271.902 218.176C271.301 218.74 270.827 219.432 270.511 220.206C270.511 220.206 265.601 207.352 273.5 194.5L340.393 164.241C340.393 164.241 355.07 160.855 351.807 179.471C351.807 179.471 363.229 177.782 364.856 187.938C364.849 187.922 368.142 211.62 343.648 211.62Z" fill="#2F2E41"/>
<path d="M365.107 176.29C362.573 176.109 360.029 176.441 357.628 177.267C355.226 178.094 353.016 179.397 351.13 181.098L350.025 179.715C351.839 178.188 352.969 175.801 353.728 173.549C354.503 171.101 354.959 168.564 355.086 166C355.257 168.603 355.093 171.216 354.597 173.777C354.015 176.442 353.112 179.082 351.147 181.115L350 179.723C352.166 178.153 354.629 177.038 357.238 176.446C359.848 175.855 362.551 175.799 365.183 176.282L365.107 176.29Z" fill="#2F2E41"/>
<path d="M275.276 286.832C275.276 286.832 260.237 296.304 249.93 298.404C248.821 298.643 247.806 299.204 247.013 300.015C246.22 300.826 245.682 301.853 245.468 302.967C241.478 323.025 226.228 408.975 258.036 411.362L279.646 407.761L281.898 416.769H391.229V311.874C391.229 311.874 388.597 288.915 356.182 278.135L275.276 286.832Z" fill="#02A59D"/>
<path opacity="0.2" d="M282.563 314.211C282.369 314.127 296.776 304.216 305.784 309.622L330.97 322.207L312.085 308.18C310.607 306.848 308.89 305.809 307.024 305.118C304.129 304.045 301 303.764 297.96 304.305C294.92 304.847 292.08 306.19 289.733 308.197L282.563 314.211Z" fill="black"/>
<path opacity="0.2" d="M247.054 299.982C252.351 299.476 262.278 301.238 264.277 306.923C262.076 304.587 259.031 303.811 256.113 302.799C253.194 301.787 250.116 301.07 247.054 299.982Z" fill="black"/>
<path opacity="0.2" d="M272.442 315.021C279.439 333.872 285.267 353.137 289.894 372.706C282.901 353.853 277.073 334.588 272.442 315.021Z" fill="black"/>
<path opacity="0.2" d="M325.05 416.769L282.564 415.833L291.378 375.346L275.302 324.442C275.302 324.442 286.722 360.332 311.571 358.384L357.338 348.262L356.216 356.435L313.106 397.462C313.106 397.462 296.625 409.566 325.05 416.769Z" fill="black"/>
<path opacity="0.05" d="M518.247 218.502V405.239C518.247 408.295 517.033 411.227 514.873 413.389C512.712 415.551 509.782 416.767 506.725 416.769H499.134L500.138 416.524C503.859 415.5 507.137 413.275 509.463 410.195C511.789 407.116 513.033 403.354 513.001 399.494V227.223C512.241 208.768 499.134 206.98 499.134 206.98H506.725C509.781 206.98 512.711 208.194 514.872 210.355C517.033 212.515 518.247 215.446 518.247 218.502Z" fill="black"/>
<path d="M227.4 239.648C226.979 196.411 227.341 196.04 227.518 195.855L227.847 195.72V196.175L228.261 196.327C227.991 197.508 228.134 222.88 228.261 239.639L227.4 239.648Z" fill="#2F2E41"/>
<path d="M227.426 246.598C229.415 246.598 231.027 244.986 231.027 242.996C231.027 241.007 229.415 239.395 227.426 239.395C225.437 239.395 223.824 241.007 223.824 242.996C223.824 244.986 225.437 246.598 227.426 246.598Z" fill="#02A59D"/>
<path d="M466.399 256.661H372.832V220.788H373.735V255.758H466.399V256.661Z" fill="#2F2E41"/>
<path d="M368.286 226.346L367.637 225.722L373.28 219.835L379.007 225.57L378.374 226.203L373.296 221.125L368.286 226.346Z" fill="#2F2E41"/>
<path d="M461.954 262.253L461.321 261.62L466.399 256.543L461.178 251.532L461.802 250.883L467.689 256.526L461.954 262.253Z" fill="#2F2E41"/>
<path d="M389.946 256.661H382.743V226.296H389.946V256.661ZM383.637 255.758H389.044V227.232H383.637V255.758Z" fill="#2F2E41"/>
<path d="M401.646 256.661H394.442V242.541H401.646V256.661ZM395.345 255.758H400.752V243.444H395.345V255.758Z" fill="#2F2E41"/>
<path d="M414.255 256.661H407.052V233.541H414.255V256.661ZM407.954 255.758H413.353V234.435H407.954V255.758Z" fill="#2F2E41"/>
<path d="M426.41 214.183H420.109V256.214H426.41V214.183Z" fill="#2F2E41"/>
<path d="M439.012 220.484H432.711V256.214H439.012V220.484Z" fill="#2F2E41"/>
<path d="M451.621 230.386H445.32V256.214H451.621V230.386Z" fill="#2F2E41"/>
<path d="M344.922 282.564L330.971 322.207C321.068 302.402 293.149 284.394 293.149 284.394L296.059 251.44C304.081 264.547 316.556 272.004 328.373 269.288C331.997 268.433 335.352 266.694 338.14 264.227L344.922 282.564Z" fill="#F9B499"/>
<path d="M344.922 282.564L342.333 289.944C306.864 282.935 296.06 251.44 296.06 251.44C304.081 264.547 316.556 272.004 328.373 269.288C331.997 268.433 335.352 266.694 338.141 264.227L344.922 282.564Z" fill="#F7A48B"/>
<path d="M294.811 261.907L276.356 284.867C275.867 285.473 275.53 286.187 275.374 286.951C275.219 287.714 275.249 288.503 275.462 289.253L282.564 314.211L293.149 305.338C293.149 305.338 302.158 300.471 312.06 308.214L330.971 322.207C330.971 322.207 324.67 306.004 293.149 284.394L294.811 261.907Z" fill="#02A59D"/>
<path d="M330.971 322.207C330.971 322.207 341.776 294.297 361.581 300.597L356.183 278.093L339.44 263.021L338.132 264.227L344.922 282.564C344.922 282.564 330.069 322.207 330.971 322.207Z" fill="#02A59D"/>
<g opacity="0.3">
<path d="M294.811 261.907L276.356 284.867C275.867 285.473 275.53 286.187 275.374 286.951C275.219 287.714 275.249 288.503 275.462 289.253L282.564 314.211L293.149 305.338C293.149 305.338 302.158 300.471 312.06 308.214L330.971 322.207C330.971 322.207 324.67 306.004 293.149 284.394L294.811 261.907Z" fill="white"/>
<path d="M330.97 322.207C330.97 322.207 341.775 294.297 361.58 300.597L356.182 278.093L339.439 263.021L338.131 264.227L344.921 282.564C344.921 282.564 330.068 322.207 330.97 322.207Z" fill="white"/>
</g>
<path d="M511.432 288.08H355.601V390.554H511.432V288.08Z" fill="white"/>
<path d="M512.334 391.448H354.697V287.177H512.334V391.448ZM356.502 389.685H510.529V288.974H356.502V389.685Z" fill="#2F2E41"/>
<path d="M500.931 385.248H366.068V385.021C366.068 383.658 365.527 382.352 364.563 381.388C363.6 380.425 362.293 379.884 360.931 379.884H360.754V298.666H360.897C361.575 298.67 362.246 298.541 362.873 298.284C363.501 298.028 364.071 297.651 364.551 297.173C365.032 296.696 365.413 296.128 365.674 295.502C365.934 294.877 366.068 294.206 366.068 293.529V293.385H500.931V293.529C500.931 294.891 501.472 296.198 502.435 297.161C503.399 298.124 504.705 298.666 506.068 298.666H506.211V379.867H506.084C504.721 379.869 503.415 380.412 502.452 381.377C501.489 382.342 500.948 383.649 500.948 385.012L500.931 385.248ZM366.388 384.961H500.644C500.661 383.555 501.222 382.209 502.21 381.208C503.198 380.206 504.535 379.626 505.941 379.589V298.961C504.55 298.923 503.226 298.353 502.241 297.37C501.256 296.387 500.684 295.064 500.644 293.672H366.388C366.348 295.064 365.777 296.387 364.792 297.37C363.807 298.353 362.483 298.923 361.091 298.961V379.563C362.502 379.6 363.843 380.184 364.831 381.191C365.82 382.199 366.378 383.55 366.388 384.961Z" fill="#2B338E"/>
<path d="M392.055 309.994C392.07 308.936 392.502 307.928 393.257 307.187C394.012 306.446 395.029 306.033 396.086 306.038C397 306.03 397.89 306.327 398.617 306.881C398.732 306.986 398.806 307.128 398.826 307.283C398.846 307.437 398.811 307.594 398.727 307.725C398.625 307.844 398.484 307.923 398.329 307.946C398.173 307.969 398.015 307.935 397.883 307.851C397.381 307.449 396.755 307.234 396.112 307.244C395.374 307.247 394.666 307.53 394.13 308.037C393.623 308.546 393.336 309.233 393.328 309.951C393.328 310.307 393.399 310.658 393.537 310.985C393.674 311.313 393.876 311.609 394.13 311.858C394.668 312.361 395.375 312.644 396.112 312.651C396.755 312.66 397.381 312.445 397.883 312.043C398.016 311.963 398.172 311.931 398.326 311.952C398.479 311.974 398.621 312.048 398.727 312.161C398.823 312.296 398.865 312.462 398.845 312.626C398.825 312.79 398.743 312.94 398.617 313.047C397.89 313.601 397 313.898 396.086 313.891C395.038 313.9 394.027 313.496 393.273 312.767C392.519 312.038 392.081 311.042 392.055 309.994Z" fill="#2B338E"/>
<path d="M400.869 313.342V306.856C400.86 306.705 400.911 306.557 401.01 306.443C401.11 306.329 401.25 306.259 401.401 306.249H405.07C405.225 306.257 405.371 306.325 405.478 306.438C405.584 306.551 405.644 306.7 405.643 306.856C405.642 307.012 405.582 307.161 405.476 307.275C405.37 307.389 405.225 307.459 405.07 307.472H402.084V309.479H404.614C404.776 309.481 404.931 309.547 405.044 309.662C405.158 309.778 405.222 309.933 405.222 310.095C405.222 310.175 405.206 310.254 405.175 310.327C405.145 310.401 405.1 310.468 405.044 310.524C404.987 310.581 404.92 310.625 404.847 310.656C404.773 310.686 404.694 310.702 404.614 310.702H402.084V312.726H405.07C405.231 312.726 405.385 312.79 405.499 312.904C405.613 313.018 405.677 313.173 405.677 313.334C405.677 313.495 405.613 313.649 405.499 313.763C405.385 313.877 405.231 313.941 405.07 313.941H401.493C401.415 313.942 401.337 313.928 401.265 313.899C401.192 313.869 401.126 313.826 401.07 313.771C401.015 313.716 400.97 313.651 400.94 313.579C400.91 313.506 400.895 313.429 400.895 313.351L400.869 313.342Z" fill="#2B338E"/>
<path d="M412.695 313.039C412.72 313.113 412.73 313.192 412.725 313.271C412.719 313.35 412.698 313.426 412.663 313.497C412.628 313.567 412.579 313.63 412.519 313.682C412.46 313.734 412.39 313.773 412.315 313.798C412.234 313.811 412.152 313.811 412.071 313.798C411.919 313.804 411.768 313.763 411.641 313.68C411.494 313.583 411.372 313.453 411.286 313.3C411.114 312.881 411.037 312.429 411.059 311.976C411.062 311.808 411.015 311.644 410.924 311.503C410.838 311.374 410.726 311.265 410.595 311.183C410.404 311.065 410.196 310.977 409.979 310.921H408.689V313.308C408.678 313.464 408.608 313.61 408.494 313.717C408.38 313.823 408.229 313.882 408.073 313.882C407.917 313.882 407.768 313.823 407.655 313.716C407.542 313.61 407.474 313.464 407.465 313.308V306.856C407.458 306.706 407.51 306.558 407.609 306.445C407.708 306.332 407.847 306.261 407.997 306.249H410.03C410.338 306.247 410.644 306.307 410.93 306.425C411.215 306.542 411.475 306.715 411.693 306.932C411.912 307.15 412.085 307.409 412.204 307.694C412.322 307.979 412.383 308.285 412.383 308.593C412.386 308.937 412.312 309.277 412.166 309.588C412.02 309.899 411.806 310.173 411.539 310.39C411.69 310.506 411.821 310.646 411.927 310.803C412.164 311.152 412.29 311.563 412.29 311.984C412.275 312.202 412.289 312.42 412.332 312.634C412.422 312.666 412.501 312.72 412.565 312.79C412.628 312.861 412.673 312.946 412.695 313.039ZM411.16 308.619C411.16 308.314 411.039 308.023 410.824 307.808C410.609 307.592 410.317 307.472 410.013 307.472H408.663V309.757H410.013C410.316 309.757 410.606 309.638 410.821 309.424C411.036 309.211 411.158 308.922 411.16 308.619Z" fill="#2B338E"/>
<path d="M418.953 307.472H417.207V313.376C417.207 313.528 417.147 313.674 417.039 313.781C416.932 313.889 416.786 313.949 416.634 313.949C416.478 313.95 416.329 313.89 416.216 313.784C416.103 313.677 416.035 313.531 416.026 313.376V307.472H414.339C414.178 307.469 414.023 307.404 413.909 307.288C413.796 307.173 413.732 307.018 413.732 306.856C413.725 306.704 413.778 306.556 413.878 306.442C413.979 306.329 414.12 306.259 414.272 306.249H419.029C419.189 306.249 419.342 306.311 419.456 306.423C419.569 306.535 419.634 306.688 419.636 306.847C419.636 306.928 419.62 307.008 419.59 307.083C419.559 307.158 419.513 307.226 419.456 307.283C419.399 307.34 419.331 307.385 419.256 307.416C419.182 307.447 419.101 307.463 419.021 307.463L418.953 307.472Z" fill="#2B338E"/>
<path d="M421.45 306.856C421.443 306.706 421.494 306.558 421.593 306.445C421.692 306.332 421.831 306.261 421.981 306.249H422.057C422.219 306.249 422.374 306.312 422.49 306.426C422.605 306.54 422.671 306.694 422.673 306.856V313.342C422.662 313.498 422.593 313.644 422.478 313.751C422.364 313.857 422.213 313.916 422.057 313.916C421.982 313.92 421.906 313.91 421.835 313.885C421.764 313.861 421.698 313.822 421.641 313.772C421.585 313.722 421.539 313.661 421.506 313.593C421.473 313.525 421.454 313.451 421.45 313.376V306.856Z" fill="#2B338E"/>
<path d="M424.74 313.342V306.856C424.74 306.698 424.802 306.546 424.912 306.432C425.022 306.319 425.173 306.253 425.331 306.249H428.941C429.103 306.251 429.257 306.317 429.371 306.432C429.484 306.547 429.548 306.702 429.548 306.864C429.548 307.025 429.484 307.18 429.37 307.294C429.256 307.408 429.102 307.472 428.941 307.472H425.955V309.479H428.485C428.648 309.481 428.803 309.547 428.918 309.662C429.033 309.777 429.099 309.932 429.101 310.095C429.099 310.257 429.033 310.411 428.918 310.525C428.802 310.638 428.647 310.702 428.485 310.702H425.955V313.342C425.942 313.497 425.872 313.642 425.758 313.748C425.644 313.854 425.495 313.914 425.339 313.916C425.185 313.914 425.038 313.854 424.927 313.747C424.815 313.641 424.749 313.496 424.74 313.342Z" fill="#2B338E"/>
<path d="M431.454 306.856C431.447 306.704 431.499 306.556 431.6 306.442C431.701 306.329 431.842 306.259 431.994 306.249H432.061C432.223 306.249 432.378 306.312 432.493 306.426C432.609 306.54 432.675 306.694 432.677 306.856V313.342C432.664 313.497 432.594 313.642 432.48 313.748C432.366 313.854 432.217 313.914 432.061 313.916C431.986 313.92 431.91 313.91 431.839 313.885C431.768 313.861 431.702 313.822 431.645 313.772C431.589 313.722 431.543 313.661 431.51 313.593C431.477 313.525 431.458 313.451 431.454 313.376V306.856Z" fill="#2B338E"/>
<path d="M434.389 309.994C434.406 308.937 434.839 307.929 435.594 307.189C436.348 306.449 437.364 306.035 438.421 306.038C439.334 306.03 440.224 306.327 440.951 306.881C441.068 306.985 441.143 307.128 441.163 307.283C441.183 307.437 441.147 307.594 441.061 307.725C440.96 307.846 440.818 307.925 440.663 307.949C440.507 307.972 440.349 307.937 440.217 307.851C439.715 307.449 439.089 307.234 438.446 307.244C437.704 307.26 436.996 307.562 436.472 308.087C436.212 308.334 436.004 308.629 435.86 308.956C435.715 309.283 435.636 309.636 435.629 309.994C435.634 310.353 435.711 310.708 435.856 311.037C436.001 311.366 436.21 311.662 436.472 311.908C437.02 312.401 437.735 312.666 438.471 312.651C439.115 312.664 439.742 312.449 440.242 312.043C440.376 311.962 440.533 311.931 440.687 311.954C440.841 311.977 440.982 312.053 441.086 312.17C441.172 312.3 441.208 312.457 441.188 312.612C441.168 312.767 441.093 312.909 440.976 313.013C440.252 313.571 439.36 313.868 438.446 313.857C437.398 313.873 436.386 313.477 435.627 312.755C434.869 312.032 434.424 311.041 434.389 309.994Z" fill="#2B338E"/>
<path d="M446.965 312.136H444.291L443.751 313.561C443.705 313.673 443.626 313.769 443.526 313.836C443.425 313.904 443.307 313.94 443.186 313.941C443.035 313.958 442.884 313.914 442.765 313.819C442.647 313.724 442.57 313.586 442.553 313.435C442.543 313.327 442.563 313.219 442.613 313.123L445.042 306.645C445.09 306.532 445.17 306.436 445.272 306.369C445.373 306.301 445.493 306.265 445.615 306.265C445.739 306.261 445.86 306.295 445.963 306.363C446.066 306.431 446.145 306.53 446.189 306.645L448.61 313.123C448.665 313.275 448.659 313.443 448.593 313.591C448.527 313.739 448.406 313.855 448.255 313.916C448.105 313.96 447.944 313.949 447.801 313.884C447.658 313.819 447.544 313.704 447.479 313.561L446.965 312.136ZM446.509 310.921L445.666 308.56L444.763 310.921H446.509Z" fill="#2B338E"/>
<path d="M453.738 307.472H451.992V313.376C451.977 313.536 451.9 313.683 451.776 313.786C451.653 313.889 451.494 313.938 451.334 313.924C451.194 313.908 451.064 313.845 450.965 313.746C450.865 313.646 450.802 313.516 450.786 313.376V307.472H449.048C448.887 307.469 448.732 307.404 448.618 307.288C448.505 307.173 448.441 307.018 448.441 306.856C448.434 306.706 448.485 306.558 448.584 306.445C448.684 306.332 448.823 306.262 448.972 306.249H453.738C453.817 306.247 453.896 306.262 453.97 306.292C454.044 306.321 454.111 306.365 454.167 306.421C454.224 306.477 454.268 306.543 454.299 306.616C454.33 306.69 454.345 306.768 454.345 306.847C454.347 306.928 454.332 307.009 454.302 307.084C454.272 307.159 454.227 307.227 454.171 307.285C454.115 307.343 454.047 307.39 453.973 307.422C453.899 307.454 453.819 307.471 453.738 307.472Z" fill="#2B338E"/>
<path d="M456.235 306.856C456.228 306.704 456.281 306.556 456.381 306.442C456.482 306.329 456.623 306.259 456.775 306.249H456.842C457.004 306.249 457.159 306.312 457.275 306.426C457.39 306.54 457.456 306.694 457.458 306.856V313.342C457.449 313.499 457.38 313.646 457.266 313.753C457.151 313.86 456.999 313.918 456.842 313.916C456.691 313.923 456.542 313.87 456.429 313.769C456.315 313.668 456.246 313.527 456.235 313.376V306.856Z" fill="#2B338E"/>
<path d="M465.598 307.21C466.313 307.959 466.712 308.954 466.712 309.989C466.712 311.025 466.313 312.02 465.598 312.769C465.262 313.13 464.854 313.419 464.402 313.616C463.949 313.814 463.46 313.916 462.966 313.916C462.464 313.915 461.966 313.813 461.504 313.616C461.042 313.419 460.624 313.131 460.276 312.769C459.575 312.012 459.187 311.02 459.187 309.989C459.187 308.959 459.575 307.966 460.276 307.21C460.619 306.84 461.036 306.545 461.499 306.343C461.962 306.141 462.461 306.037 462.966 306.038C463.462 306.039 463.953 306.144 464.406 306.346C464.859 306.548 465.265 306.842 465.598 307.21ZM465.455 309.993C465.455 309.281 465.187 308.594 464.704 308.07C464.496 307.834 464.243 307.642 463.96 307.504C463.676 307.367 463.368 307.288 463.054 307.272C462.74 307.255 462.425 307.302 462.129 307.408C461.833 307.515 461.561 307.68 461.33 307.893C461.269 307.948 461.213 308.007 461.161 308.07C460.679 308.591 460.411 309.275 460.411 309.985C460.411 310.695 460.679 311.379 461.161 311.9C461.365 312.131 461.612 312.319 461.888 312.455C462.165 312.59 462.465 312.669 462.772 312.688C463.08 312.707 463.388 312.665 463.678 312.564C463.969 312.464 464.238 312.307 464.468 312.102C464.539 312.039 464.607 311.971 464.67 311.9C465.158 311.384 465.432 310.703 465.438 309.993H465.455Z" fill="#2B338E"/>
<path d="M469.815 313.342C469.815 313.501 469.752 313.653 469.639 313.766C469.527 313.878 469.375 313.941 469.216 313.941C469.057 313.941 468.905 313.878 468.793 313.766C468.68 313.653 468.617 313.501 468.617 313.342V306.957C468.609 306.861 468.627 306.764 468.668 306.676C468.71 306.589 468.774 306.514 468.853 306.459C468.917 306.412 468.989 306.377 469.066 306.358C469.143 306.338 469.223 306.334 469.301 306.346C469.38 306.358 469.455 306.385 469.523 306.426C469.591 306.468 469.65 306.522 469.697 306.586L473.189 311.495V306.957C473.197 306.808 473.26 306.668 473.366 306.564C473.472 306.459 473.614 306.398 473.762 306.392C473.916 306.392 474.065 306.45 474.178 306.555C474.29 306.66 474.359 306.803 474.37 306.957V313.351C474.359 313.504 474.29 313.648 474.178 313.753C474.065 313.858 473.916 313.916 473.762 313.916C473.675 313.919 473.589 313.901 473.509 313.865C473.43 313.828 473.361 313.773 473.307 313.705L473.256 313.637L469.739 308.754L469.815 313.342Z" fill="#2B338E"/>
<path d="M412.855 322.274C416.297 322.224 419.741 322.187 423.188 322.165H443.853C447.278 322.165 450.719 322.201 454.177 322.274C450.753 322.331 447.311 322.367 443.853 322.384H423.188C419.747 322.384 416.302 322.348 412.855 322.274Z" fill="#2F2E41"/>
<path d="M401.367 325.497L409.405 325.421L417.444 325.395L433.52 325.353L449.589 325.395L457.627 325.421L465.674 325.497L457.627 325.564L449.589 325.581L433.52 325.64L417.444 325.581L409.405 325.564L401.367 325.497Z" fill="#2F2E41"/>
<path d="M447.792 365.115C451.284 365.053 454.776 365.016 458.268 365.005H468.744H479.228C482.72 365.005 486.212 365.041 489.704 365.115C486.221 365.165 482.72 365.199 479.228 365.216H468.744L458.268 365.224C454.776 365.224 451.284 365.188 447.792 365.115Z" fill="#2F2E41"/>
<path d="M377.345 365.115C380.837 365.055 384.337 365.022 387.821 365.005H398.305H408.781C412.273 365.005 415.768 365.041 419.265 365.115C415.757 365.176 412.251 365.205 408.747 365.199H398.271H387.804C384.312 365.216 380.825 365.188 377.345 365.115Z" fill="#2F2E41"/>
<path d="M471.949 341.371L462.342 341.447L452.734 341.464L433.52 341.514L414.306 341.464L404.69 341.447L395.083 341.371L404.69 341.303L414.306 341.278L433.52 341.228L452.734 341.278L462.342 341.303L471.949 341.371Z" fill="#2F2E41"/>
<path d="M482.087 338.149L469.95 338.225L457.804 338.25L433.52 338.292L409.228 338.25L397.082 338.225L384.944 338.149L397.082 338.081L409.228 338.064L433.52 338.014L457.804 338.064L469.95 338.081L482.087 338.149Z" fill="#2F2E41"/>
<path d="M479.026 344.593L467.648 344.66L456.269 344.677L433.521 344.728L410.764 344.677L399.385 344.66L388.007 344.593L399.385 344.517L410.764 344.492L433.521 344.449L456.269 344.492L467.648 344.517L479.026 344.593Z" fill="#2F2E41"/>
<path d="M459.364 347.806L452.903 347.874L446.442 347.891L433.52 347.941L420.59 347.891L414.129 347.874L407.668 347.806L414.129 347.731L420.59 347.705L433.52 347.663L446.442 347.705L452.903 347.731L459.364 347.806Z" fill="#2F2E41"/>
<path d="M455.316 362.972C456.016 362.491 456.733 362.027 457.484 361.606C458.218 361.158 459.006 360.803 459.829 360.551C459.933 360.52 460.041 360.497 460.149 360.484C460.215 360.469 460.283 360.472 460.347 360.493C460.411 360.514 460.468 360.551 460.512 360.602C460.622 360.809 460.671 361.043 460.655 361.277C460.647 361.707 460.605 362.136 460.529 362.559C460.377 363.402 460.166 364.246 459.955 365.089C459.499 366.741 458.935 368.361 458.268 369.939C458.099 370.339 457.896 370.722 457.661 371.086C457.594 371.183 457.514 371.271 457.425 371.348C457.366 371.406 457.288 371.442 457.205 371.449C457.15 371.45 457.097 371.433 457.054 371.398L456.978 371.314C456.849 371.11 456.784 370.872 456.792 370.631C456.811 369.769 456.965 368.915 457.247 368.1C457.497 367.278 457.819 366.479 458.209 365.713C458.567 364.904 459.07 364.166 459.694 363.537C460.028 363.244 460.436 363.048 460.874 362.972C461.1 362.938 461.331 362.955 461.549 363.023C461.752 363.131 461.917 363.299 462.022 363.504C462.114 363.691 462.233 363.865 462.376 364.018C462.437 364.092 462.517 364.148 462.608 364.179C462.699 364.21 462.797 364.216 462.89 364.195C463.285 364.055 463.648 363.84 463.962 363.563C464.139 363.436 464.299 363.301 464.476 363.183C464.567 363.116 464.662 363.057 464.763 363.006C464.816 362.973 464.877 362.956 464.94 362.956C465.003 362.956 465.064 362.973 465.117 363.006C465.286 363.217 465.244 363.445 465.328 363.63C465.35 363.725 465.408 363.807 465.49 363.859C465.572 363.911 465.672 363.929 465.767 363.908C466.124 363.682 466.44 363.397 466.703 363.065C466.99 362.753 467.276 362.432 467.546 362.112C468.12 361.462 468.66 360.813 469.233 360.172C469.52 359.851 469.807 359.539 470.119 359.236C470.279 359.084 470.439 358.949 470.608 358.814C470.7 358.746 470.799 358.69 470.903 358.645C470.962 358.619 471.025 358.605 471.089 358.603C471.127 358.601 471.165 358.61 471.199 358.628C471.233 358.645 471.262 358.672 471.283 358.704C471.385 358.917 471.417 359.156 471.376 359.387C471.354 359.603 471.321 359.817 471.274 360.028C470.982 361.29 470.523 362.507 469.908 363.647C469.796 363.843 469.66 364.024 469.503 364.187C469.454 364.237 469.395 364.276 469.329 364.3C469.264 364.325 469.194 364.335 469.124 364.33C469.006 364.32 468.892 364.289 468.786 364.237C468.577 364.136 468.393 363.99 468.248 363.809C468.102 363.628 467.998 363.417 467.943 363.191C467.909 363.055 467.927 362.911 467.993 362.787C468.032 362.747 468.078 362.716 468.128 362.694C468.196 362.659 468.272 362.644 468.348 362.652C468.576 362.669 468.801 362.72 469.014 362.803C469.419 362.947 469.857 363.124 470.212 363.301L471.384 363.799L471.949 364.01L472.228 364.077C472.309 364.078 472.39 364.061 472.464 364.027C472.793 363.866 473.004 363.453 473.307 363.183C473.476 362.991 473.711 362.87 473.965 362.846C474.012 362.841 474.06 362.845 474.105 362.86C474.15 362.875 474.191 362.898 474.227 362.93C474.26 362.964 474.285 363.005 474.3 363.051C474.315 363.096 474.318 363.144 474.311 363.191C474.304 363.311 474.284 363.43 474.252 363.546C474.193 363.731 474.168 363.976 474.252 363.984C474.412 364.003 474.573 364.003 474.733 363.984C475.127 363.867 475.494 363.672 475.812 363.411C475.981 363.293 476.158 363.166 476.352 363.048C476.562 362.905 476.818 362.845 477.069 362.879C477.499 363.041 477.877 363.315 478.166 363.672C478.302 363.819 478.455 363.949 478.621 364.06C478.697 364.119 478.773 364.128 478.79 364.111C478.876 364.068 478.958 364.017 479.034 363.959C479.373 363.699 479.694 363.417 479.996 363.116C480.632 362.552 481.198 361.915 481.683 361.218C481.919 360.891 482.062 360.506 482.096 360.104C482.096 359.725 481.7 359.539 481.253 359.489C480.417 359.329 479.558 359.329 478.722 359.489C478.308 359.563 477.901 359.676 477.508 359.826C477.309 359.902 477.119 360.001 476.943 360.121C476.782 360.239 476.639 360.408 476.69 360.56C476.774 360.73 476.918 360.862 477.094 360.931C477.28 361.015 477.474 361.1 477.668 361.167C478.066 361.307 478.472 361.425 478.883 361.521C480.551 361.839 482.245 362.002 483.943 362.011C482.232 362.052 480.52 361.927 478.832 361.639C478.41 361.547 477.989 361.429 477.584 361.294C477.38 361.226 477.18 361.147 476.985 361.057C476.873 361.015 476.771 360.95 476.684 360.867C476.597 360.785 476.527 360.686 476.479 360.577C476.463 360.453 476.484 360.328 476.539 360.217C476.595 360.106 476.683 360.014 476.791 359.953C476.963 359.817 477.153 359.706 477.356 359.624C477.757 359.454 478.176 359.33 478.604 359.252C479.456 359.074 480.334 359.051 481.194 359.185C481.423 359.213 481.644 359.288 481.843 359.404C481.95 359.471 482.04 359.563 482.104 359.671C482.169 359.78 482.207 359.902 482.214 360.028C482.199 360.487 482.046 360.931 481.776 361.302C481.297 362.027 480.731 362.69 480.089 363.276C479.779 363.582 479.446 363.864 479.093 364.119C479.001 364.194 478.899 364.256 478.79 364.305C478.717 364.329 478.64 364.336 478.564 364.326C478.488 364.316 478.415 364.288 478.351 364.246C478.167 364.115 477.998 363.965 477.845 363.799C477.588 363.496 477.265 363.257 476.9 363.099C476.588 363.048 476.226 363.343 475.888 363.579C475.536 363.856 475.136 364.065 474.707 364.195C474.587 364.245 474.458 364.271 474.328 364.271C474.198 364.271 474.069 364.245 473.948 364.195C473.887 364.143 473.842 364.076 473.817 364C473.791 363.924 473.787 363.843 473.805 363.765C473.815 363.648 473.838 363.532 473.872 363.419C473.898 363.328 473.915 363.235 473.923 363.141C473.748 363.169 473.587 363.255 473.468 363.385C473.172 363.655 472.978 364.077 472.523 364.313C472.405 364.372 472.274 364.398 472.143 364.389C472.026 364.373 471.911 364.348 471.797 364.313C471.587 364.254 471.393 364.17 471.19 364.094L470.009 363.579C469.613 363.402 469.233 363.225 468.837 363.09C468.654 363.013 468.461 362.965 468.263 362.947C468.128 362.947 468.052 363.057 468.086 363.242C468.137 363.425 468.227 363.595 468.349 363.74C468.471 363.886 468.623 364.004 468.795 364.086C468.88 364.126 468.971 364.155 469.065 364.17C469.102 364.173 469.14 364.166 469.174 364.15C469.208 364.134 469.238 364.109 469.259 364.077C469.4 363.934 469.522 363.772 469.621 363.596C470.042 362.871 470.39 362.105 470.659 361.311C470.796 360.909 470.911 360.501 471.005 360.087C471.053 359.885 471.09 359.679 471.114 359.472C471.169 359.284 471.169 359.085 471.114 358.898C471.047 358.789 470.811 358.898 470.65 359.042C470.49 359.185 470.33 359.303 470.178 359.446C469.866 359.733 469.579 360.054 469.334 360.366C468.761 360.99 468.187 361.648 467.648 362.281C467.361 362.601 467.074 362.922 466.804 363.234C466.527 363.57 466.193 363.856 465.817 364.077C465.698 364.108 465.571 364.091 465.463 364.03C465.356 363.968 465.277 363.867 465.244 363.748C465.159 363.546 465.168 363.293 465.058 363.175C464.948 363.057 464.898 363.175 464.805 363.175L464.544 363.343C464.375 363.461 464.206 363.596 464.037 363.731C463.71 364.02 463.333 364.246 462.924 364.398C462.809 364.423 462.689 364.417 462.577 364.382C462.464 364.346 462.363 364.282 462.283 364.195C462.142 364.029 462.015 363.851 461.903 363.664C461.785 363.487 461.676 363.301 461.499 363.242C461.316 363.186 461.123 363.172 460.933 363.2C460.526 363.277 460.146 363.463 459.837 363.74C459.242 364.336 458.756 365.033 458.403 365.798C458.024 366.556 457.713 367.346 457.475 368.16C457.212 368.96 457.072 369.797 457.062 370.639C457.053 370.828 457.097 371.014 457.188 371.179V371.221C457.211 371.212 457.232 371.198 457.247 371.179C457.316 371.112 457.378 371.039 457.433 370.96C457.646 370.603 457.837 370.234 458.007 369.855C458.674 368.294 459.237 366.691 459.694 365.056C459.938 364.24 460.14 363.412 460.301 362.576C460.386 362.162 460.435 361.741 460.444 361.319C460.463 361.124 460.425 360.928 460.335 360.754C460.312 360.718 460.278 360.692 460.237 360.68C460.197 360.667 460.154 360.67 460.115 360.686C460.015 360.697 459.917 360.717 459.82 360.745C459.004 360.982 458.22 361.316 457.484 361.741C456.733 362.146 455.999 362.584 455.282 363.048L455.316 362.972Z" fill="#2F2E41"/>
<path d="M408.663 362.972C407.963 362.491 407.246 362.028 406.495 361.606C405.76 361.159 404.972 360.805 404.15 360.551C404.042 360.521 403.932 360.498 403.821 360.484C403.757 360.469 403.69 360.472 403.627 360.493C403.565 360.513 403.509 360.551 403.467 360.602C403.357 360.809 403.308 361.043 403.324 361.277C403.328 361.707 403.37 362.136 403.45 362.559C403.602 363.402 403.813 364.246 404.024 365.089C404.48 366.741 405.043 368.361 405.711 369.939C405.879 370.339 406.083 370.722 406.318 371.086C406.385 371.183 406.465 371.271 406.554 371.348C406.613 371.406 406.691 371.442 406.773 371.449C406.828 371.45 406.882 371.433 406.925 371.399L407.001 371.314C407.126 371.108 407.19 370.872 407.187 370.631C407.16 369.77 407.006 368.917 406.731 368.101C406.478 367.279 406.157 366.481 405.77 365.714C405.396 364.929 404.885 364.218 404.26 363.613C403.929 363.315 403.519 363.119 403.079 363.048C402.856 363.014 402.628 363.031 402.413 363.099C402.208 363.205 402.042 363.373 401.94 363.58C401.842 363.764 401.723 363.936 401.586 364.094C401.525 364.168 401.444 364.224 401.354 364.255C401.263 364.286 401.165 364.292 401.072 364.271C400.675 364.129 400.309 363.915 399.992 363.639C399.823 363.512 399.655 363.377 399.477 363.259C399.389 363.194 399.296 363.135 399.199 363.082C399.146 363.049 399.085 363.032 399.022 363.032C398.959 363.032 398.898 363.049 398.845 363.082C398.676 363.293 398.718 363.521 398.634 363.706C398.612 363.801 398.553 363.883 398.471 363.935C398.389 363.987 398.29 364.005 398.195 363.984C397.837 363.756 397.518 363.471 397.251 363.141C396.964 362.829 396.686 362.508 396.407 362.188C395.834 361.538 395.294 360.889 394.72 360.248C394.433 359.927 394.147 359.615 393.835 359.312C393.677 359.162 393.51 359.021 393.337 358.89C393.249 358.821 393.153 358.764 393.05 358.721C392.992 358.695 392.929 358.681 392.865 358.679C392.825 358.679 392.787 358.688 392.751 358.706C392.716 358.723 392.686 358.749 392.662 358.78C392.564 358.994 392.534 359.232 392.578 359.463C392.595 359.679 392.629 359.894 392.679 360.104C392.971 361.366 393.431 362.583 394.045 363.723C394.158 363.919 394.294 364.1 394.45 364.263C394.498 364.312 394.556 364.351 394.62 364.375C394.684 364.4 394.753 364.411 394.821 364.406C394.942 364.397 395.059 364.366 395.167 364.313C395.376 364.211 395.559 364.064 395.705 363.884C395.85 363.703 395.955 363.493 396.011 363.267C396.036 363.131 396.018 362.989 395.96 362.863C395.92 362.797 395.865 362.742 395.8 362.702C395.729 362.668 395.65 362.654 395.572 362.66C395.347 362.681 395.126 362.732 394.914 362.812C394.501 362.955 394.113 363.133 393.716 363.31L392.544 363.807C392.35 363.883 392.156 363.959 391.971 364.018C391.877 364.05 391.781 364.072 391.684 364.086C391.602 364.086 391.522 364.069 391.448 364.035C391.127 363.875 390.916 363.461 390.604 363.192C390.436 363.004 390.205 362.884 389.955 362.854C389.908 362.848 389.86 362.852 389.814 362.867C389.769 362.881 389.728 362.906 389.693 362.939C389.66 362.973 389.635 363.014 389.619 363.059C389.603 363.104 389.596 363.152 389.6 363.2C389.607 363.32 389.627 363.439 389.659 363.554C389.718 363.74 389.744 363.984 389.659 363.993C389.497 364.011 389.333 364.011 389.17 363.993C388.776 363.875 388.409 363.68 388.091 363.419C387.908 363.285 387.716 363.164 387.517 363.057C387.311 362.913 387.057 362.853 386.808 362.888C386.381 363.054 386.004 363.327 385.712 363.681C385.576 363.828 385.423 363.958 385.256 364.069C385.181 364.128 385.113 364.136 385.096 364.119C385.007 364.077 384.922 364.026 384.843 363.968C384.502 363.71 384.181 363.428 383.882 363.124C383.251 362.556 382.685 361.919 382.195 361.226C381.967 360.9 381.833 360.518 381.807 360.121C381.807 359.742 382.195 359.548 382.608 359.497C383.445 359.347 384.302 359.347 385.138 359.497C385.551 359.574 385.954 359.69 386.345 359.843C386.546 359.919 386.739 360.018 386.918 360.138C387.07 360.256 387.213 360.417 387.171 360.577C387.084 360.747 386.937 360.879 386.758 360.948C386.572 361.032 386.378 361.108 386.184 361.176C385.783 361.318 385.375 361.439 384.961 361.538C383.293 361.856 381.599 362.02 379.9 362.028C381.621 362.069 383.341 361.944 385.037 361.656C385.459 361.564 385.881 361.446 386.285 361.311C386.479 361.235 386.69 361.167 386.884 361.074C386.996 361.031 387.098 360.967 387.185 360.884C387.272 360.802 387.342 360.703 387.39 360.594C387.407 360.471 387.387 360.347 387.333 360.235C387.279 360.124 387.194 360.032 387.087 359.969C386.91 359.836 386.718 359.725 386.513 359.641C386.112 359.471 385.693 359.347 385.265 359.269C384.414 359.084 383.536 359.058 382.675 359.193C382.446 359.227 382.226 359.305 382.026 359.421C381.918 359.487 381.828 359.578 381.763 359.687C381.698 359.796 381.661 359.919 381.655 360.045C381.676 360.503 381.828 360.945 382.093 361.319C382.57 362.045 383.137 362.708 383.78 363.293C384.092 363.596 384.425 363.878 384.776 364.136C384.869 364.206 384.968 364.268 385.071 364.322C385.144 364.347 385.222 364.353 385.298 364.342C385.375 364.33 385.447 364.3 385.509 364.254C385.698 364.129 385.871 363.982 386.024 363.816C386.279 363.508 386.602 363.266 386.969 363.107C387.281 363.065 387.643 363.352 387.981 363.596C388.334 363.872 388.734 364.08 389.162 364.212C389.282 364.264 389.411 364.291 389.541 364.291C389.672 364.291 389.801 364.264 389.921 364.212C389.98 364.161 390.025 364.095 390.05 364.021C390.075 363.947 390.08 363.867 390.064 363.79C390.055 363.673 390.032 363.557 389.997 363.445C389.972 363.353 389.955 363.26 389.946 363.166C389.946 363.166 389.946 363.166 389.988 363.166C390.165 363.191 390.326 363.277 390.444 363.411C390.731 363.681 390.933 364.094 391.38 364.339C391.5 364.399 391.635 364.422 391.768 364.406C391.885 364.396 392.001 364.373 392.114 364.339C392.325 364.271 392.519 364.195 392.721 364.111C393.118 363.951 393.506 363.774 393.902 363.596C394.298 363.419 394.678 363.251 395.075 363.116C395.258 363.039 395.451 362.988 395.648 362.964C395.783 362.964 395.859 363.082 395.825 363.259C395.771 363.44 395.68 363.609 395.558 363.754C395.436 363.899 395.286 364.018 395.117 364.103C395.032 364.144 394.941 364.17 394.847 364.178C394.81 364.182 394.773 364.176 394.739 364.161C394.705 364.146 394.675 364.123 394.653 364.094C394.508 363.953 394.386 363.791 394.29 363.613C393.869 362.888 393.522 362.122 393.253 361.327C393.118 360.923 393 360.484 392.898 360.104C392.848 359.899 392.814 359.691 392.797 359.48C392.756 359.292 392.771 359.095 392.839 358.915C392.907 358.805 393.143 358.915 393.295 359.059C393.467 359.179 393.627 359.315 393.776 359.463C394.088 359.75 394.349 360.062 394.661 360.383C395.235 361.007 395.808 361.656 396.348 362.297C396.635 362.618 396.922 362.939 397.192 363.251C397.467 363.589 397.801 363.875 398.178 364.094C398.297 364.123 398.422 364.104 398.527 364.043C398.632 363.982 398.71 363.882 398.744 363.765C398.828 363.554 398.82 363.31 398.929 363.192C399.039 363.073 399.089 363.192 399.174 363.192C399.269 363.24 399.359 363.296 399.444 363.36C399.612 363.478 399.781 363.613 399.95 363.748C400.276 364.035 400.654 364.259 401.063 364.406C401.178 364.435 401.298 364.432 401.411 364.398C401.524 364.364 401.625 364.3 401.704 364.212C401.846 364.046 401.973 363.868 402.084 363.681C402.202 363.504 402.311 363.31 402.489 363.251C402.675 363.209 402.868 363.209 403.054 363.251C403.46 363.326 403.839 363.51 404.15 363.782C404.747 364.381 405.232 365.08 405.584 365.848C405.964 366.606 406.274 367.397 406.512 368.21C406.776 369.011 406.915 369.847 406.925 370.69C406.935 370.876 406.891 371.06 406.799 371.221V371.264C406.775 371.256 406.755 371.241 406.74 371.221C406.672 371.159 406.612 371.088 406.563 371.011C406.345 370.654 406.153 370.282 405.989 369.897C405.321 368.34 404.757 366.739 404.302 365.106C404.066 364.263 403.847 363.461 403.695 362.626C403.609 362.213 403.561 361.792 403.551 361.37C403.537 361.172 403.575 360.974 403.661 360.796C403.712 360.729 403.762 360.712 403.88 360.737C403.984 360.744 404.086 360.764 404.184 360.796C404.997 361.037 405.781 361.368 406.52 361.783C407.263 362.188 408.005 362.626 408.713 363.09L408.663 362.972Z" fill="#2F2E41"/>
<path d="M433.799 353.905C433.85 354.035 433.95 354.14 434.078 354.197C434.206 354.254 434.351 354.258 434.482 354.209C434.585 354.169 434.674 354.098 434.735 354.006C434.813 353.889 434.933 353.807 435.071 353.779C435.208 353.75 435.351 353.778 435.469 353.854C435.588 353.938 435.67 354.065 435.697 354.209C435.721 354.347 435.8 354.47 435.916 354.551C436.031 354.632 436.174 354.663 436.313 354.639C436.416 354.62 436.512 354.573 436.591 354.504C436.639 354.454 436.696 354.414 436.76 354.387C436.824 354.36 436.893 354.346 436.962 354.346C437.031 354.346 437.1 354.36 437.164 354.387C437.227 354.414 437.285 354.454 437.333 354.504C437.385 354.556 437.425 354.618 437.451 354.686C437.477 354.754 437.489 354.827 437.485 354.9C437.48 355.04 437.531 355.176 437.626 355.278C437.72 355.381 437.852 355.442 437.991 355.449C438.101 355.458 438.21 355.431 438.303 355.373C438.361 355.335 438.425 355.309 438.493 355.296C438.56 355.283 438.63 355.284 438.697 355.298C438.765 355.312 438.829 355.339 438.886 355.378C438.942 355.417 438.991 355.467 439.028 355.524C439.104 355.648 439.128 355.796 439.096 355.938C439.078 356.005 439.074 356.076 439.083 356.145C439.093 356.214 439.116 356.281 439.151 356.341C439.186 356.402 439.233 356.454 439.289 356.497C439.344 356.539 439.408 356.57 439.476 356.587C439.58 356.617 439.691 356.617 439.796 356.587C439.928 356.538 440.074 356.543 440.202 356.602C440.33 356.66 440.43 356.767 440.479 356.899C440.509 356.966 440.524 357.038 440.524 357.11C440.524 357.183 440.509 357.255 440.479 357.321C440.417 357.448 440.407 357.594 440.451 357.728C440.495 357.862 440.59 357.973 440.715 358.038C440.82 358.09 440.939 358.105 441.053 358.08C441.192 358.063 441.333 358.101 441.445 358.186C441.556 358.271 441.631 358.397 441.652 358.536C441.668 358.677 441.629 358.819 441.542 358.932C441.499 358.987 441.467 359.049 441.448 359.116C441.429 359.183 441.424 359.254 441.432 359.323C441.441 359.392 441.463 359.459 441.498 359.519C441.533 359.579 441.579 359.632 441.635 359.674C441.717 359.741 441.817 359.782 441.922 359.792C441.991 359.797 442.06 359.815 442.123 359.846C442.185 359.876 442.242 359.919 442.288 359.972C442.334 360.024 442.369 360.085 442.392 360.151C442.415 360.218 442.424 360.288 442.419 360.358C442.404 360.501 442.334 360.634 442.225 360.729C442.172 360.773 442.127 360.827 442.095 360.888C442.062 360.949 442.042 361.017 442.036 361.086C442.03 361.155 442.037 361.224 442.058 361.291C442.079 361.357 442.113 361.418 442.158 361.471C442.226 361.554 442.317 361.616 442.419 361.648C442.524 361.674 442.617 361.732 442.688 361.813C442.758 361.894 442.802 361.995 442.813 362.102C442.824 362.209 442.802 362.316 442.75 362.41C442.697 362.504 442.617 362.58 442.52 362.627C442.398 362.694 442.307 362.807 442.268 362.942C442.228 363.076 442.243 363.22 442.31 363.343C442.354 363.437 442.428 363.514 442.52 363.563C442.583 363.595 442.638 363.639 442.683 363.692C442.728 363.746 442.762 363.807 442.783 363.874C442.804 363.941 442.812 364.011 442.806 364.08C442.8 364.15 442.78 364.218 442.748 364.28C442.715 364.344 442.668 364.401 442.612 364.446C442.555 364.491 442.489 364.523 442.419 364.541C442.353 364.56 442.29 364.591 442.236 364.634C442.181 364.677 442.136 364.73 442.102 364.79C442.069 364.851 442.047 364.917 442.039 364.986C442.031 365.055 442.037 365.124 442.057 365.191C442.082 365.296 442.141 365.391 442.225 365.461C442.306 365.529 442.365 365.619 442.394 365.721C442.423 365.822 442.421 365.93 442.388 366.031C442.356 366.131 442.294 366.22 442.211 366.285C442.128 366.35 442.027 366.389 441.922 366.397C441.781 366.41 441.652 366.477 441.56 366.584C441.469 366.691 441.423 366.83 441.432 366.97C441.439 367.075 441.478 367.175 441.542 367.257C441.604 367.341 441.639 367.44 441.645 367.544C441.651 367.647 441.626 367.75 441.574 367.839C441.522 367.929 441.445 368.002 441.353 368.048C441.26 368.094 441.156 368.113 441.053 368.101C440.914 368.076 440.772 368.106 440.655 368.185C440.538 368.263 440.457 368.385 440.429 368.522C440.411 368.637 440.429 368.755 440.479 368.86C440.54 368.986 440.549 369.132 440.503 369.265C440.457 369.397 440.361 369.506 440.235 369.568C440.102 369.619 439.954 369.619 439.821 369.568C439.731 369.535 439.633 369.527 439.539 369.545C439.444 369.563 439.356 369.606 439.284 369.67C439.212 369.734 439.159 369.817 439.13 369.909C439.102 370.001 439.098 370.099 439.121 370.192C439.137 370.261 439.14 370.331 439.128 370.4C439.116 370.469 439.091 370.535 439.053 370.594C439.015 370.653 438.966 370.704 438.908 370.744C438.85 370.784 438.785 370.811 438.716 370.825C438.584 370.857 438.445 370.835 438.328 370.766C438.21 370.69 438.066 370.664 437.928 370.694C437.791 370.724 437.671 370.808 437.595 370.926C437.537 371.017 437.508 371.123 437.51 371.23C437.515 371.299 437.505 371.369 437.483 371.435C437.46 371.5 437.425 371.561 437.378 371.613C437.332 371.665 437.276 371.707 437.213 371.737C437.15 371.766 437.082 371.783 437.013 371.787C436.94 371.79 436.867 371.778 436.799 371.752C436.73 371.726 436.668 371.686 436.616 371.635C436.517 371.535 436.382 371.48 436.241 371.48C436.1 371.48 435.965 371.535 435.865 371.635C435.79 371.711 435.74 371.808 435.722 371.913C435.697 372.052 435.619 372.176 435.504 372.258C435.389 372.34 435.246 372.374 435.106 372.352C435.036 372.339 434.969 372.313 434.91 372.274C434.85 372.234 434.8 372.184 434.761 372.124C434.681 372.006 434.559 371.924 434.42 371.896C434.282 371.868 434.137 371.895 434.018 371.972C433.929 372.031 433.862 372.117 433.824 372.217C433.785 372.315 433.717 372.4 433.629 372.46C433.541 372.519 433.437 372.551 433.331 372.551C433.225 372.551 433.121 372.519 433.033 372.46C432.945 372.4 432.877 372.315 432.837 372.217C432.812 372.152 432.775 372.093 432.727 372.044C432.679 371.994 432.621 371.954 432.557 371.926C432.494 371.899 432.426 371.884 432.356 371.884C432.287 371.883 432.218 371.896 432.154 371.922C432.051 371.962 431.963 372.032 431.901 372.124C431.821 372.238 431.7 372.317 431.563 372.343C431.426 372.37 431.284 372.343 431.167 372.267C431.048 372.184 430.966 372.056 430.94 371.913C430.915 371.774 430.836 371.651 430.721 371.571C430.605 371.49 430.463 371.458 430.324 371.483C430.219 371.501 430.121 371.551 430.045 371.626C429.946 371.723 429.813 371.777 429.674 371.777C429.536 371.777 429.402 371.723 429.303 371.626C429.252 371.572 429.212 371.509 429.186 371.439C429.16 371.37 429.148 371.296 429.151 371.221C429.154 371.152 429.142 371.082 429.117 371.017C429.093 370.951 429.056 370.892 429.008 370.841C428.96 370.79 428.903 370.749 428.839 370.72C428.775 370.691 428.707 370.675 428.637 370.673C428.529 370.668 428.423 370.698 428.333 370.758C428.213 370.829 428.07 370.851 427.934 370.818C427.798 370.785 427.681 370.699 427.608 370.58C427.57 370.523 427.545 370.457 427.533 370.389C427.521 370.321 427.524 370.251 427.54 370.184C427.563 370.09 427.56 369.992 427.531 369.9C427.503 369.808 427.45 369.726 427.378 369.662C427.306 369.598 427.218 369.554 427.123 369.536C427.028 369.518 426.931 369.527 426.84 369.56C426.706 369.606 426.559 369.597 426.431 369.536C426.303 369.474 426.205 369.365 426.157 369.231C426.107 369.101 426.107 368.956 426.157 368.826C426.219 368.699 426.229 368.553 426.185 368.419C426.141 368.285 426.046 368.174 425.921 368.109C425.816 368.058 425.698 368.043 425.584 368.067C425.444 368.084 425.303 368.046 425.192 367.961C425.08 367.876 425.006 367.75 424.985 367.611C424.968 367.47 425.008 367.328 425.094 367.215C425.147 367.138 425.18 367.05 425.188 366.957C425.197 366.864 425.181 366.771 425.143 366.686C425.105 366.601 425.045 366.528 424.97 366.472C424.895 366.417 424.807 366.383 424.715 366.372C424.645 366.366 424.577 366.347 424.514 366.315C424.452 366.284 424.396 366.24 424.351 366.187C424.305 366.133 424.271 366.071 424.249 366.005C424.228 365.938 424.22 365.868 424.226 365.798C424.23 365.728 424.248 365.66 424.28 365.597C424.312 365.535 424.357 365.48 424.411 365.435C424.517 365.345 424.584 365.218 424.598 365.079C424.612 364.941 424.572 364.803 424.487 364.693C424.414 364.612 424.321 364.551 424.217 364.516C424.113 364.49 424.019 364.432 423.948 364.351C423.878 364.27 423.834 364.169 423.823 364.062C423.812 363.955 423.834 363.847 423.887 363.754C423.939 363.66 424.019 363.584 424.116 363.537C424.198 363.49 424.267 363.422 424.314 363.34C424.362 363.258 424.387 363.164 424.387 363.069C424.387 362.974 424.362 362.881 424.314 362.799C424.267 362.717 424.198 362.649 424.116 362.601C424.054 362.569 423.999 362.525 423.954 362.472C423.909 362.418 423.874 362.357 423.853 362.29C423.832 362.223 423.824 362.153 423.83 362.084C423.836 362.014 423.856 361.946 423.888 361.884C423.921 361.82 423.968 361.763 424.025 361.718C424.081 361.673 424.147 361.641 424.217 361.623C424.352 361.584 424.467 361.492 424.535 361.369C424.603 361.246 424.619 361.1 424.58 360.965C424.553 360.862 424.494 360.77 424.411 360.703C424.357 360.659 424.313 360.604 424.28 360.542C424.247 360.48 424.227 360.412 424.221 360.342C424.215 360.272 424.223 360.202 424.244 360.135C424.265 360.068 424.299 360.006 424.344 359.953C424.39 359.898 424.447 359.854 424.51 359.822C424.574 359.79 424.644 359.772 424.715 359.767C424.855 359.754 424.985 359.687 425.076 359.58C425.167 359.473 425.213 359.334 425.204 359.194C425.197 359.089 425.159 358.989 425.094 358.907C425.033 358.823 424.997 358.724 424.991 358.62C424.985 358.517 425.01 358.414 425.062 358.324C425.114 358.235 425.191 358.162 425.284 358.116C425.376 358.07 425.481 358.051 425.584 358.063C425.721 358.088 425.863 358.058 425.978 357.979C426.093 357.9 426.173 357.779 426.199 357.642C426.224 357.528 426.209 357.409 426.157 357.304C426.11 357.209 426.093 357.102 426.108 356.997C426.122 356.892 426.168 356.794 426.238 356.715C426.309 356.636 426.402 356.58 426.505 356.555C426.607 356.529 426.715 356.534 426.815 356.57C426.947 356.619 427.093 356.614 427.221 356.556C427.349 356.497 427.449 356.39 427.498 356.258C427.528 356.153 427.528 356.043 427.498 355.938C427.465 355.804 427.486 355.662 427.557 355.543C427.629 355.425 427.744 355.339 427.878 355.305C427.947 355.284 428.021 355.28 428.092 355.292C428.164 355.303 428.232 355.331 428.291 355.373C428.374 355.429 428.471 355.462 428.572 355.466C428.672 355.47 428.771 355.447 428.859 355.398C428.947 355.349 429.019 355.276 429.068 355.188C429.116 355.1 429.139 355.001 429.135 354.9C429.13 354.831 429.139 354.762 429.162 354.697C429.185 354.632 429.221 354.572 429.267 354.52C429.313 354.469 429.37 354.428 429.432 354.399C429.495 354.37 429.563 354.354 429.632 354.352C429.705 354.347 429.779 354.358 429.847 354.384C429.916 354.411 429.977 354.451 430.029 354.504C430.128 354.603 430.263 354.659 430.404 354.659C430.545 354.659 430.68 354.603 430.779 354.504C430.854 354.428 430.904 354.331 430.923 354.225C430.934 354.157 430.959 354.092 430.995 354.033C431.032 353.974 431.08 353.924 431.136 353.884C431.193 353.844 431.257 353.815 431.324 353.8C431.392 353.785 431.462 353.783 431.53 353.795C431.602 353.805 431.672 353.83 431.733 353.869C431.794 353.909 431.846 353.961 431.884 354.023C431.938 354.104 432.013 354.168 432.101 354.209C432.189 354.25 432.287 354.266 432.383 354.256C432.48 354.245 432.571 354.209 432.648 354.15C432.725 354.091 432.785 354.012 432.821 353.922C432.871 353.791 432.972 353.686 433.1 353.63C433.228 353.573 433.373 353.569 433.504 353.618C433.633 353.675 433.738 353.777 433.799 353.905Z" fill="#02A59D"/>
<path d="M433.301 371.323C437.843 371.323 441.525 367.641 441.525 363.099C441.525 358.557 437.843 354.875 433.301 354.875C428.759 354.875 425.077 358.557 425.077 363.099C425.077 367.641 428.759 371.323 433.301 371.323Z" fill="white"/>
<path d="M433.302 370.774C431.778 370.774 430.289 370.323 429.022 369.476C427.756 368.629 426.769 367.426 426.186 366.019C425.603 364.611 425.451 363.062 425.749 361.568C426.047 360.074 426.781 358.702 427.859 357.625C428.937 356.548 430.31 355.816 431.804 355.52C433.299 355.223 434.847 355.377 436.254 355.961C437.661 356.545 438.863 357.534 439.709 358.801C440.554 360.069 441.004 361.558 441.002 363.082C441 365.123 440.188 367.079 438.744 368.522C437.3 369.964 435.342 370.774 433.302 370.774ZM433.302 355.668C431.832 355.668 430.395 356.104 429.173 356.92C427.951 357.737 426.999 358.897 426.436 360.255C425.874 361.613 425.727 363.107 426.013 364.549C426.3 365.99 427.008 367.314 428.047 368.353C429.086 369.393 430.41 370.1 431.852 370.387C433.293 370.674 434.787 370.527 436.145 369.964C437.503 369.402 438.664 368.449 439.48 367.227C440.297 366.005 440.733 364.569 440.733 363.099C440.733 361.128 439.95 359.238 438.556 357.844C437.162 356.451 435.272 355.668 433.302 355.668Z" fill="#02A59D"/>
<path d="M445.793 360.72H420.826V365.452H445.793V360.72Z" fill="white"/>
<path d="M424.107 363.132C424.112 362.771 424.259 362.425 424.516 362.171C424.773 361.917 425.121 361.774 425.482 361.774C425.788 361.78 426.084 361.883 426.326 362.07C426.363 362.111 426.384 362.165 426.384 362.221C426.384 362.277 426.363 362.332 426.326 362.373C426.285 362.41 426.233 362.43 426.178 362.43C426.124 362.43 426.071 362.41 426.031 362.373C425.859 362.236 425.643 362.164 425.423 362.171C425.172 362.169 424.929 362.266 424.748 362.441C424.662 362.525 424.593 362.626 424.547 362.738C424.501 362.849 424.477 362.969 424.479 363.09C424.474 363.212 424.496 363.332 424.543 363.444C424.589 363.557 424.659 363.657 424.748 363.74C424.931 363.913 425.172 364.012 425.423 364.018C425.644 364.018 425.857 363.943 426.031 363.807C426.053 363.791 426.078 363.778 426.105 363.772C426.132 363.765 426.159 363.763 426.187 363.767C426.214 363.771 426.241 363.78 426.264 363.794C426.288 363.809 426.309 363.827 426.326 363.849C426.363 363.89 426.383 363.942 426.383 363.997C426.383 364.052 426.363 364.104 426.326 364.145C426.084 364.331 425.788 364.434 425.482 364.44C425.129 364.44 424.789 364.305 424.533 364.061C424.277 363.818 424.125 363.485 424.107 363.132Z" fill="#02A59D"/>
<path d="M427.118 364.271V362.061C427.118 362.008 427.139 361.956 427.177 361.918C427.215 361.88 427.267 361.859 427.321 361.859H428.552C428.605 361.869 428.652 361.899 428.684 361.943C428.715 361.987 428.728 362.042 428.721 362.095C428.713 362.138 428.693 362.178 428.663 362.209C428.633 362.241 428.595 362.263 428.552 362.272H427.531V362.955H428.375C428.43 362.966 428.478 362.997 428.51 363.043C428.541 363.089 428.553 363.145 428.544 363.2C428.536 363.243 428.516 363.283 428.486 363.314C428.456 363.346 428.417 363.368 428.375 363.377H427.531V364.06H428.552C428.6 364.07 428.643 364.096 428.673 364.134C428.704 364.171 428.721 364.218 428.721 364.267C428.721 364.316 428.704 364.363 428.673 364.4C428.643 364.438 428.6 364.464 428.552 364.474H427.321C427.267 364.474 427.215 364.452 427.177 364.414C427.139 364.376 427.118 364.325 427.118 364.271Z" fill="#02A59D"/>
<path d="M431.15 364.17C431.166 364.223 431.161 364.279 431.136 364.328C431.111 364.377 431.068 364.414 431.016 364.431H430.94C430.889 364.43 430.839 364.416 430.796 364.389C430.746 364.356 430.703 364.313 430.67 364.263C430.611 364.118 430.585 363.963 430.594 363.807C430.594 363.75 430.576 363.694 430.543 363.647C430.518 363.601 430.48 363.563 430.434 363.537C430.374 363.494 430.304 363.465 430.231 363.453H429.784V364.296C429.771 364.342 429.743 364.383 429.705 364.411C429.667 364.44 429.621 364.456 429.573 364.456C429.526 364.456 429.479 364.44 429.441 364.411C429.403 364.383 429.375 364.342 429.362 364.296V362.095C429.364 362.041 429.388 361.989 429.427 361.951C429.466 361.914 429.519 361.893 429.573 361.893H430.248C430.458 361.893 430.66 361.976 430.809 362.125C430.957 362.274 431.041 362.475 431.041 362.685C431.043 362.803 431.019 362.92 430.969 363.027C430.92 363.134 430.846 363.227 430.754 363.301C430.806 363.335 430.85 363.382 430.881 363.436C430.964 363.558 431.008 363.702 431.007 363.849C430.999 363.922 430.999 363.996 431.007 364.069C431.037 364.073 431.066 364.085 431.091 364.102C431.116 364.12 431.136 364.143 431.15 364.17ZM430.628 362.66C430.625 362.558 430.584 362.46 430.511 362.388C430.439 362.316 430.342 362.274 430.239 362.272H429.776V363.04H430.239C430.335 363.04 430.428 363.005 430.5 362.941C430.572 362.877 430.617 362.789 430.628 362.694V362.66Z" fill="#02A59D"/>
<path d="M433.301 362.272H432.703V364.271C432.704 364.297 432.7 364.323 432.69 364.348C432.681 364.372 432.667 364.395 432.649 364.414C432.631 364.433 432.609 364.448 432.585 364.458C432.561 364.468 432.535 364.474 432.509 364.474C432.455 364.474 432.403 364.452 432.365 364.414C432.327 364.376 432.306 364.325 432.306 364.271V362.272H431.733C431.679 362.272 431.627 362.251 431.589 362.213C431.551 362.175 431.53 362.123 431.53 362.07C431.528 362.043 431.531 362.016 431.54 361.991C431.548 361.966 431.563 361.943 431.581 361.924C431.599 361.905 431.622 361.89 431.646 361.88C431.671 361.87 431.698 361.866 431.724 361.867H433.31C433.364 361.867 433.417 361.888 433.456 361.926C433.495 361.964 433.518 362.015 433.521 362.07C433.52 362.097 433.513 362.125 433.501 362.15C433.49 362.175 433.473 362.197 433.453 362.216C433.433 362.235 433.409 362.25 433.383 362.259C433.357 362.269 433.329 362.273 433.301 362.272Z" fill="#02A59D"/>
<path d="M434.136 362.061C434.135 362.029 434.142 361.998 434.155 361.969C434.168 361.941 434.187 361.915 434.212 361.895C434.236 361.875 434.264 361.86 434.295 361.852C434.326 361.845 434.358 361.844 434.389 361.85C434.443 361.85 434.496 361.871 434.535 361.909C434.574 361.947 434.598 361.998 434.6 362.053V364.263C434.598 364.317 434.574 364.368 434.535 364.406C434.496 364.444 434.443 364.465 434.389 364.465C434.362 364.466 434.336 364.462 434.311 364.453C434.286 364.444 434.263 364.43 434.243 364.412C434.224 364.394 434.208 364.372 434.197 364.348C434.185 364.324 434.179 364.298 434.178 364.271L434.136 362.061Z" fill="#02A59D"/>
<path d="M435.232 364.271V362.061C435.232 362.008 435.254 361.956 435.292 361.918C435.33 361.88 435.381 361.859 435.435 361.859H436.666C436.714 361.869 436.757 361.894 436.788 361.932C436.818 361.97 436.835 362.017 436.835 362.066C436.835 362.114 436.818 362.161 436.788 362.199C436.757 362.237 436.714 362.263 436.666 362.272H435.646V362.955H436.489C436.545 362.955 436.599 362.978 436.638 363.017C436.678 363.057 436.7 363.11 436.7 363.166C436.7 363.222 436.678 363.276 436.638 363.315C436.599 363.355 436.545 363.377 436.489 363.377H435.646V364.271C435.646 364.299 435.64 364.326 435.63 364.351C435.619 364.376 435.603 364.399 435.583 364.417C435.564 364.436 435.54 364.451 435.515 364.461C435.489 364.47 435.462 364.475 435.435 364.474C435.381 364.474 435.33 364.452 435.292 364.414C435.254 364.376 435.232 364.325 435.232 364.271Z" fill="#02A59D"/>
<path d="M437.552 362.061C437.552 362.005 437.574 361.952 437.614 361.912C437.653 361.873 437.707 361.85 437.763 361.85C437.817 361.85 437.87 361.871 437.909 361.909C437.948 361.947 437.971 361.998 437.973 362.053V364.263C437.971 364.317 437.948 364.369 437.909 364.406C437.87 364.444 437.817 364.465 437.763 364.465C437.736 364.466 437.709 364.462 437.684 364.453C437.659 364.444 437.637 364.43 437.617 364.412C437.597 364.394 437.582 364.372 437.57 364.348C437.559 364.324 437.553 364.298 437.552 364.271V362.061Z" fill="#02A59D"/>
<path d="M438.674 364.271V362.061C438.673 362.035 438.677 362.009 438.686 361.984C438.696 361.96 438.71 361.938 438.728 361.919C438.746 361.9 438.768 361.885 438.792 361.874C438.816 361.864 438.842 361.859 438.868 361.859H440.099C440.154 361.867 440.203 361.897 440.236 361.941C440.269 361.985 440.284 362.04 440.277 362.095C440.27 362.14 440.249 362.181 440.217 362.213C440.185 362.245 440.144 362.265 440.099 362.272H439.087V362.955H439.931C439.987 362.955 440.04 362.978 440.08 363.017C440.119 363.057 440.142 363.11 440.142 363.166C440.142 363.222 440.119 363.276 440.08 363.315C440.04 363.355 439.987 363.377 439.931 363.377H439.087V364.06H440.099C440.153 364.06 440.205 364.082 440.243 364.12C440.281 364.158 440.302 364.209 440.302 364.263C440.303 364.29 440.299 364.317 440.289 364.343C440.279 364.368 440.265 364.392 440.246 364.411C440.227 364.431 440.204 364.447 440.179 364.457C440.154 364.468 440.127 364.474 440.099 364.474H438.876C438.85 364.475 438.824 364.471 438.8 364.461C438.775 364.452 438.753 364.438 438.734 364.42C438.715 364.402 438.7 364.38 438.69 364.356C438.679 364.332 438.674 364.306 438.674 364.28V364.271Z" fill="#02A59D"/>
<path d="M440.893 364.271V362.061C440.892 362.03 440.899 362 440.911 361.972C440.924 361.944 440.942 361.919 440.966 361.899C440.989 361.879 441.016 361.864 441.046 361.856C441.076 361.847 441.107 361.845 441.137 361.85H441.576C441.923 361.85 442.255 361.988 442.5 362.233C442.745 362.478 442.883 362.811 442.883 363.158C442.883 363.504 442.745 363.837 442.5 364.082C442.255 364.327 441.923 364.465 441.576 364.465H441.137C441.108 364.47 441.078 364.469 441.05 364.461C441.022 364.454 440.995 364.441 440.972 364.422C440.949 364.404 440.93 364.381 440.916 364.355C440.903 364.329 440.895 364.3 440.893 364.271ZM441.297 364.06H441.534C441.757 364.039 441.964 363.935 442.115 363.769C442.266 363.602 442.349 363.386 442.349 363.162C442.349 362.938 442.266 362.721 442.115 362.555C441.964 362.389 441.757 362.285 441.534 362.264H441.297V364.06Z" fill="#02A59D"/>
<path d="M344.922 320.107C347.385 317.146 349.983 314.304 352.597 311.495C358.249 309.808 363.917 308.18 369.686 306.923C364.516 308.804 357.692 311.073 353.146 312.17C350.472 314.877 347.756 317.551 344.922 320.107Z" fill="#F7A48B"/>
<path d="M350.775 329.427C351.079 327.352 351.792 325.357 352.874 323.56C353.955 321.763 355.384 320.199 357.076 318.96C361.884 316.429 366.751 314.017 371.744 311.875C369.433 313.3 367.063 314.616 364.701 315.94C362.339 317.264 359.742 318.605 357.548 319.702C354.175 321.946 352.015 325.606 350.801 329.427H350.775Z" fill="#F7A48B"/>
<path d="M358.477 335.348C359.413 331.418 360.855 327.243 364.06 324.569C367.08 322.772 370.15 321.06 373.339 319.508C371.922 320.554 370.471 321.532 369.003 322.494C367.535 323.456 365.882 324.493 364.6 325.269C361.631 327.799 360.045 331.789 358.485 335.332L358.477 335.348Z" fill="#F7A48B"/>
<path d="M363.832 340.688C365.452 334.589 369.492 328.879 375.084 325.826C370.354 329.956 366.524 335.015 363.832 340.688Z" fill="#F7A48B"/>
<path d="M510.167 427.186L515.32 420.986L523.156 422.825L513.549 394.198L500.56 398.558L510.167 427.186Z" fill="#2F2E41"/>
<path opacity="0.2" d="M505.334 412.754L500.56 398.558L513.549 394.198L505.334 412.754Z" fill="black"/>
<path d="M511.871 394.763L521.124 422.344L521.411 422.412L512.107 394.687L511.871 394.763Z" fill="white"/>
<path d="M502.002 398.069L511.305 425.803L511.499 425.575L502.247 397.993L502.002 398.069Z" fill="white"/>
<path d="M485.833 427.135L493.559 424.841L499.059 430.72L507.991 397.782L494.774 394.198L485.833 427.135Z" fill="#2F2E41"/>
<path d="M506.278 397.327L497.633 429.202L497.835 429.413L506.515 397.386L506.278 397.327Z" fill="white"/>
<path d="M496.241 394.603L487.554 426.621L487.832 426.545L496.486 394.662L496.241 394.603Z" fill="white"/>
<path d="M505.629 362.297C505.711 362.5 505.847 362.676 506.022 362.807C506.197 362.938 506.404 363.02 506.622 363.042C506.839 363.065 507.058 363.028 507.256 362.935C507.455 362.843 507.624 362.698 507.746 362.517C507.881 362.319 508.071 362.165 508.293 362.076C508.516 361.986 508.76 361.965 508.994 362.015C509.228 362.065 509.443 362.183 509.609 362.355C509.776 362.527 509.888 362.745 509.93 362.981C509.986 363.295 510.163 363.575 510.424 363.76C510.684 363.944 511.007 364.019 511.322 363.967C511.562 363.926 511.783 363.811 511.955 363.638C512.129 363.473 512.348 363.364 512.585 363.323C512.821 363.283 513.064 363.313 513.284 363.41C513.503 363.508 513.688 363.668 513.817 363.871C513.945 364.073 514.01 364.31 514.004 364.549C513.996 364.768 514.048 364.984 514.153 365.176C514.258 365.367 514.414 365.526 514.603 365.636C514.791 365.746 515.007 365.803 515.225 365.8C515.444 365.798 515.657 365.735 515.843 365.621C515.978 365.532 516.129 365.472 516.287 365.442C516.445 365.413 516.608 365.416 516.765 365.451C516.922 365.485 517.071 365.551 517.202 365.644C517.334 365.737 517.445 365.855 517.53 365.992C517.619 366.129 517.678 366.283 517.704 366.444C517.73 366.605 517.723 366.77 517.682 366.928C517.604 367.234 517.649 367.559 517.806 367.833C517.963 368.107 518.222 368.309 518.526 368.396C518.763 368.458 519.014 368.443 519.242 368.354C519.471 368.265 519.722 368.249 519.96 368.307C520.199 368.365 520.414 368.494 520.577 368.677C520.741 368.86 520.844 369.089 520.874 369.333C520.903 369.576 520.858 369.823 520.744 370.04C520.675 370.183 520.635 370.338 520.626 370.497C520.617 370.655 520.64 370.814 520.692 370.963C520.745 371.113 520.826 371.251 520.932 371.369C521.038 371.487 521.166 371.583 521.309 371.652C521.522 371.751 521.759 371.789 521.992 371.761C522.232 371.719 522.479 371.751 522.7 371.854C522.922 371.956 523.106 372.123 523.23 372.333C523.354 372.543 523.411 372.785 523.393 373.028C523.375 373.271 523.284 373.503 523.131 373.693C522.937 373.945 522.85 374.262 522.888 374.577C522.926 374.893 523.086 375.181 523.333 375.38C523.527 375.526 523.758 375.614 524 375.633C524.158 375.642 524.313 375.683 524.455 375.753C524.597 375.823 524.724 375.92 524.828 376.04C524.933 376.159 525.012 376.298 525.063 376.448C525.113 376.598 525.133 376.757 525.121 376.915C525.112 377.077 525.069 377.236 524.995 377.382C524.921 377.527 524.817 377.655 524.691 377.758C524.453 377.965 524.304 378.257 524.276 378.571C524.248 378.886 524.342 379.199 524.539 379.445C524.696 379.631 524.905 379.766 525.138 379.833C525.291 379.875 525.434 379.947 525.56 380.044C525.685 380.142 525.79 380.263 525.868 380.401C525.946 380.538 525.997 380.69 526.016 380.848C526.036 381.005 526.024 381.165 525.982 381.318C525.886 381.633 525.671 381.899 525.383 382.06C525.188 382.161 525.025 382.314 524.912 382.501C524.798 382.688 524.738 382.904 524.738 383.123C524.738 383.342 524.798 383.557 524.912 383.744C525.025 383.932 525.188 384.084 525.383 384.186C525.596 384.298 525.77 384.472 525.883 384.685C525.997 384.897 526.044 385.139 526.018 385.379C525.993 385.618 525.896 385.845 525.741 386.029C525.586 386.213 525.379 386.347 525.147 386.412C524.936 386.472 524.746 386.588 524.596 386.748C524.446 386.908 524.343 387.105 524.297 387.32C524.251 387.534 524.264 387.756 524.335 387.964C524.406 388.171 524.532 388.355 524.7 388.496C524.822 388.595 524.923 388.718 524.997 388.857C525.072 388.995 525.118 389.147 525.134 389.304C525.15 389.461 525.134 389.619 525.089 389.77C525.043 389.921 524.968 390.061 524.868 390.183C524.766 390.31 524.638 390.415 524.493 390.491C524.348 390.566 524.188 390.611 524.025 390.621C523.808 390.64 523.6 390.717 523.424 390.844C523.247 390.971 523.108 391.144 523.022 391.344C522.935 391.544 522.905 391.763 522.933 391.979C522.961 392.195 523.047 392.399 523.181 392.57C523.28 392.693 523.354 392.834 523.398 392.985C523.442 393.136 523.456 393.295 523.439 393.452C523.422 393.608 523.374 393.76 523.298 393.898C523.222 394.036 523.119 394.158 522.996 394.257C522.863 394.362 522.709 394.438 522.545 394.48C522.381 394.522 522.21 394.529 522.043 394.501C521.726 394.458 521.406 394.542 521.151 394.735C520.896 394.928 520.729 395.214 520.685 395.53C520.653 395.764 520.691 396.002 520.794 396.213C520.934 396.501 520.954 396.832 520.849 397.134C520.745 397.436 520.525 397.685 520.238 397.825C520.092 397.895 519.933 397.936 519.77 397.945C519.608 397.954 519.446 397.93 519.293 397.875C519.145 397.82 518.988 397.794 518.83 397.8C518.672 397.806 518.517 397.843 518.374 397.908C518.231 397.974 518.102 398.068 517.994 398.184C517.887 398.3 517.804 398.435 517.75 398.584C517.674 398.817 517.674 399.068 517.75 399.301C517.809 399.534 517.796 399.781 517.714 400.007C517.632 400.234 517.484 400.431 517.289 400.573C517.093 400.715 516.86 400.794 516.619 400.802C516.378 400.81 516.14 400.745 515.936 400.616C515.801 400.527 515.65 400.466 515.491 400.437C515.332 400.408 515.169 400.411 515.012 400.446C514.854 400.482 514.705 400.549 514.574 400.643C514.443 400.738 514.333 400.858 514.249 400.996C514.117 401.202 514.052 401.443 514.064 401.688C514.073 402.007 513.956 402.317 513.738 402.551C513.52 402.784 513.219 402.923 512.9 402.936C512.584 402.933 512.283 402.809 512.056 402.59C511.832 402.368 511.529 402.243 511.213 402.243C510.897 402.243 510.593 402.368 510.369 402.59C510.203 402.765 510.091 402.985 510.049 403.223C510.022 403.379 509.965 403.528 509.881 403.663C509.796 403.797 509.686 403.913 509.557 404.004C509.428 404.096 509.282 404.161 509.127 404.197C508.973 404.232 508.813 404.236 508.657 404.21C508.335 404.15 508.05 403.965 507.864 403.695C507.776 403.561 507.663 403.446 507.53 403.356C507.397 403.267 507.247 403.205 507.09 403.174C506.933 403.143 506.771 403.144 506.614 403.177C506.457 403.21 506.309 403.275 506.177 403.366C505.974 403.497 505.817 403.689 505.73 403.914C505.61 404.211 505.378 404.448 505.084 404.574C504.79 404.7 504.459 404.706 504.161 404.589C503.856 404.462 503.614 404.219 503.486 403.914C503.429 403.767 503.343 403.633 503.233 403.52C503.123 403.406 502.991 403.316 502.846 403.254C502.701 403.192 502.544 403.159 502.386 403.158C502.229 403.157 502.072 403.188 501.926 403.248C501.698 403.335 501.503 403.491 501.369 403.695C501.234 403.893 501.043 404.047 500.82 404.136C500.597 404.225 500.353 404.245 500.118 404.194C499.883 404.144 499.669 404.024 499.503 403.851C499.337 403.678 499.226 403.459 499.185 403.223C499.129 402.909 498.951 402.63 498.691 402.446C498.43 402.263 498.107 402.19 497.793 402.244C497.554 402.283 497.333 402.395 497.16 402.565C496.936 402.787 496.633 402.912 496.317 402.912C496.001 402.912 495.698 402.787 495.473 402.565C495.362 402.454 495.275 402.323 495.215 402.178C495.156 402.033 495.126 401.878 495.128 401.721C495.137 401.502 495.086 401.284 494.98 401.091C494.874 400.898 494.718 400.738 494.527 400.628C494.337 400.518 494.121 400.461 493.901 400.465C493.681 400.469 493.466 400.533 493.28 400.65C493.145 400.738 492.994 400.798 492.835 400.827C492.677 400.855 492.514 400.852 492.357 400.817C492.199 400.781 492.051 400.715 491.92 400.621C491.789 400.527 491.678 400.408 491.593 400.271C491.507 400.133 491.448 399.979 491.422 399.818C491.396 399.657 491.403 399.493 491.442 399.334C491.494 399.123 491.488 398.901 491.424 398.692C491.36 398.483 491.241 398.296 491.079 398.15C490.918 398.003 490.719 397.904 490.505 397.861C490.291 397.819 490.07 397.835 489.864 397.909C489.564 398.018 489.234 398.003 488.944 397.869C488.655 397.735 488.431 397.491 488.321 397.192C488.256 397.043 488.223 396.882 488.223 396.72C488.223 396.557 488.256 396.396 488.321 396.247C488.389 396.105 488.429 395.951 488.438 395.793C488.447 395.635 488.424 395.477 488.372 395.328C488.319 395.179 488.238 395.042 488.132 394.925C488.026 394.808 487.898 394.712 487.756 394.645C487.544 394.541 487.306 394.503 487.072 394.535C486.831 394.579 486.582 394.548 486.359 394.445C486.136 394.343 485.949 394.174 485.825 393.963C485.701 393.751 485.645 393.506 485.664 393.262C485.684 393.017 485.778 392.784 485.934 392.595C486.068 392.424 486.154 392.22 486.183 392.004C486.211 391.788 486.18 391.569 486.093 391.369C486.007 391.169 485.868 390.997 485.691 390.87C485.515 390.742 485.307 390.665 485.09 390.647C484.773 390.627 484.477 390.483 484.265 390.246C484.053 390.009 483.944 389.699 483.96 389.381C483.971 389.218 484.015 389.059 484.091 388.914C484.166 388.768 484.271 388.64 484.399 388.538C484.566 388.397 484.692 388.213 484.763 388.006C484.834 387.799 484.847 387.576 484.801 387.362C484.756 387.148 484.652 386.95 484.502 386.79C484.353 386.63 484.162 386.514 483.952 386.454C483.799 386.413 483.655 386.341 483.53 386.243C483.405 386.146 483.3 386.025 483.222 385.887C483.144 385.749 483.093 385.597 483.074 385.44C483.054 385.283 483.066 385.123 483.108 384.97C483.153 384.813 483.23 384.666 483.333 384.538C483.436 384.411 483.563 384.305 483.707 384.228C483.901 384.127 484.064 383.974 484.178 383.787C484.292 383.599 484.352 383.384 484.352 383.165C484.352 382.946 484.292 382.731 484.178 382.543C484.064 382.356 483.901 382.203 483.707 382.102C483.426 381.952 483.215 381.696 483.12 381.392C483.026 381.087 483.055 380.758 483.201 380.474C483.277 380.329 483.382 380.201 483.51 380.098C483.637 379.995 483.785 379.919 483.943 379.875C484.253 379.789 484.515 379.583 484.673 379.303C484.831 379.023 484.872 378.692 484.787 378.382C484.717 378.15 484.582 377.942 484.399 377.784C484.211 377.631 484.074 377.425 484.005 377.193C483.937 376.961 483.94 376.714 484.015 376.483C484.09 376.253 484.233 376.051 484.425 375.904C484.617 375.757 484.849 375.671 485.09 375.658C485.307 375.639 485.515 375.562 485.691 375.435C485.868 375.308 486.007 375.135 486.093 374.935C486.18 374.736 486.211 374.516 486.183 374.301C486.154 374.085 486.068 373.881 485.934 373.71C485.737 373.46 485.647 373.142 485.684 372.826C485.72 372.51 485.879 372.221 486.128 372.023C486.26 371.919 486.412 371.844 486.575 371.803C486.738 371.763 486.907 371.757 487.072 371.786C487.284 371.812 487.499 371.781 487.695 371.697C487.891 371.613 488.061 371.478 488.188 371.307C488.315 371.135 488.394 370.933 488.417 370.721C488.441 370.509 488.407 370.294 488.321 370.1C488.206 369.882 488.161 369.635 488.191 369.392C488.221 369.148 488.324 368.919 488.487 368.736C488.65 368.553 488.866 368.424 489.104 368.366C489.343 368.308 489.593 368.324 489.822 368.413C490.028 368.489 490.25 368.508 490.466 368.467C490.681 368.426 490.881 368.326 491.044 368.179C491.206 368.032 491.326 367.843 491.388 367.633C491.451 367.423 491.455 367.199 491.399 366.987C491.322 366.682 491.366 366.358 491.524 366.086C491.682 365.813 491.94 365.613 492.243 365.528C492.401 365.487 492.566 365.48 492.727 365.506C492.888 365.532 493.042 365.591 493.179 365.68C493.315 365.765 493.467 365.823 493.626 365.85C493.784 365.876 493.946 365.872 494.103 365.835C494.26 365.799 494.408 365.733 494.539 365.64C494.67 365.546 494.781 365.428 494.866 365.292C494.99 365.086 495.052 364.849 495.043 364.608C495.034 364.29 495.151 363.981 495.369 363.748C495.588 363.516 495.889 363.38 496.207 363.369C496.364 363.366 496.519 363.395 496.664 363.455C496.809 363.514 496.941 363.603 497.051 363.714C497.276 363.935 497.579 364.058 497.894 364.058C498.209 364.058 498.512 363.935 498.738 363.714C498.907 363.54 499.021 363.32 499.067 363.082C499.093 362.926 499.15 362.776 499.234 362.642C499.319 362.508 499.429 362.392 499.558 362.3C499.687 362.208 499.833 362.143 499.988 362.108C500.142 362.073 500.302 362.068 500.458 362.095C500.78 362.155 501.065 362.34 501.251 362.609C501.373 362.791 501.543 362.935 501.741 363.028C501.939 363.12 502.158 363.157 502.375 363.135C502.593 363.112 502.8 363.031 502.975 362.9C503.15 362.769 503.286 362.593 503.368 362.39C503.427 362.243 503.514 362.108 503.624 361.995C503.735 361.881 503.867 361.79 504.013 361.727C504.158 361.665 504.315 361.631 504.474 361.629C504.632 361.627 504.79 361.656 504.937 361.715C505.233 361.815 505.48 362.023 505.629 362.297Z" fill="#02A59D"/>
<path d="M504.49 401.797C514.799 401.797 523.156 393.44 523.156 383.131C523.156 372.822 514.799 364.465 504.49 364.465C494.181 364.465 485.824 372.822 485.824 383.131C485.824 393.44 494.181 401.797 504.49 401.797Z" fill="white"/>
<path d="M504.481 400.49C501.046 400.49 497.688 399.471 494.832 397.562C491.976 395.654 489.75 392.941 488.435 389.767C487.121 386.593 486.778 383.101 487.449 379.731C488.119 376.362 489.774 373.268 492.204 370.839C494.634 368.411 497.729 366.757 501.098 366.088C504.468 365.419 507.96 365.764 511.133 367.08C514.307 368.396 517.018 370.623 518.926 373.48C520.833 376.337 521.85 379.696 521.849 383.131C521.85 385.412 521.401 387.67 520.529 389.777C519.656 391.884 518.377 393.799 516.764 395.411C515.151 397.023 513.236 398.302 511.128 399.173C509.021 400.045 506.762 400.492 504.481 400.49ZM504.481 366.203C501.131 366.203 497.856 367.196 495.071 369.058C492.285 370.919 490.115 373.565 488.833 376.66C487.551 379.755 487.216 383.161 487.87 386.447C488.525 389.733 490.139 392.75 492.508 395.119C494.878 397.487 497.896 399.1 501.182 399.752C504.468 400.405 507.874 400.068 510.969 398.785C514.063 397.502 516.708 395.33 518.568 392.543C520.428 389.757 521.42 386.481 521.418 383.131C521.414 378.641 519.628 374.337 516.452 371.163C513.277 367.989 508.971 366.205 504.481 366.203Z" fill="#02A59D"/>
<path d="M502.567 393.523L492.336 383.291L496.528 379.091L502.567 385.122L521.782 365.907L525.974 370.108L502.567 393.523Z" fill="#2F2E41"/>
<path d="M370.589 133.142L313.865 197.972L226.945 196.175L276.946 130.443L370.589 133.142Z" fill="#02A59D"/>
<path d="M494.798 324.442C494.798 324.442 485.613 315.021 493.609 315.021C493.828 315.021 501.58 314.177 506.708 313.612C508.21 313.44 509.73 313.712 511.079 314.394C512.428 315.076 513.548 316.138 514.3 317.45C516.966 322.287 518.33 327.734 518.255 333.257C518.255 333.257 515.556 351.037 511.052 352.842C511.052 352.842 483.083 354.698 493.913 343.868C493.913 343.868 482.501 338.883 492.723 333.257C492.723 333.257 486.499 333.931 487.072 329.427C487.064 329.427 485.756 324.856 494.798 324.442Z" fill="#F9B499"/>
<path d="M506.7 325.825C502.685 325.982 498.671 325.516 494.799 324.442C498.813 324.288 502.828 324.755 506.7 325.825Z" fill="#F7A48B"/>
<path d="M505.511 333.265C501.269 333.885 496.958 333.885 492.716 333.265C496.958 332.645 501.269 332.645 505.511 333.265Z" fill="#F7A48B"/>
<path d="M493.904 343.868C497.748 343.248 501.667 343.248 505.511 343.868C501.666 344.483 497.749 344.483 493.904 343.868Z" fill="#F7A48B"/>
<path d="M494.157 497.945L502.735 498.367" stroke="#FF0000" stroke-width="0.210869" stroke-miterlimit="10"/>
<path d="M424.976 473.299V488.928L522.658 494.234L522.144 471.409L424.976 473.299Z" fill="#2B338E"/>
<path d="M418.582 494.234L522.658 499.337V494.234L424.976 488.928L418.582 494.234Z" fill="#CCCCCC"/>
<path d="M418.582 494.234L419.788 507.417L522.144 514.764L522.658 499.337L418.582 494.234Z" fill="#B3B3B3"/>
<path d="M394.965 453.376L464.349 464.189L525.172 455.754L492.825 447.32L394.982 453.325C394.982 453.325 394.94 453.376 394.965 453.376Z" fill="#2F2E41"/>
<path d="M463.144 479.836L392.891 467.799L394.966 453.376L464.341 464.189L463.144 479.836Z" fill="white"/>
<path d="M460.064 469.461H459.971L395.589 459.963C395.433 459.936 395.293 459.85 395.199 459.723C395.105 459.596 395.063 459.437 395.083 459.28C395.094 459.202 395.121 459.127 395.161 459.059C395.202 458.991 395.256 458.932 395.319 458.885C395.383 458.838 395.455 458.804 395.532 458.785C395.608 458.766 395.688 458.762 395.766 458.774L460.123 468.263C460.202 468.269 460.279 468.29 460.349 468.325C460.42 468.36 460.483 468.409 460.534 468.468C460.586 468.528 460.625 468.597 460.65 468.672C460.675 468.746 460.685 468.825 460.68 468.904C460.674 468.983 460.653 469.06 460.618 469.13C460.583 469.201 460.534 469.264 460.475 469.315C460.415 469.367 460.346 469.406 460.271 469.431C460.196 469.456 460.117 469.466 460.039 469.461H460.064Z" fill="#E6E6E6"/>
<path d="M459.533 474.42H459.415L395.59 462.468C395.433 462.439 395.294 462.349 395.204 462.218C395.114 462.087 395.08 461.925 395.109 461.768C395.138 461.612 395.228 461.473 395.359 461.383C395.491 461.293 395.652 461.258 395.809 461.287L459.643 473.189C459.785 473.222 459.911 473.306 459.997 473.425C460.082 473.544 460.122 473.69 460.109 473.835C460.095 473.981 460.03 474.117 459.924 474.218C459.818 474.32 459.68 474.379 459.533 474.387V474.42Z" fill="#E6E6E6"/>
<path d="M390.892 425.651L419.789 447.328L516.983 441.542L489.637 423.247L390.892 425.651Z" fill="#5D6166"/>
<path d="M389.685 437.696C389.685 437.696 419.147 460.107 419.206 460.706C419.206 461.178 419.822 447.328 419.822 447.328L390.924 425.651L389.685 437.696Z" fill="#E6E6E6"/>
<g opacity="0.21">
<path d="M417.385 450.339C417.25 450.339 417.12 450.294 417.013 450.213L391.709 430.948C391.598 430.845 391.528 430.705 391.515 430.554C391.502 430.403 391.545 430.252 391.637 430.132C391.729 430.011 391.863 429.93 392.012 429.903C392.161 429.876 392.315 429.906 392.443 429.986L417.747 449.26C417.81 449.307 417.863 449.367 417.902 449.436C417.942 449.504 417.968 449.58 417.978 449.658C417.988 449.737 417.983 449.816 417.962 449.893C417.941 449.969 417.905 450.041 417.857 450.103C417.802 450.176 417.731 450.236 417.649 450.277C417.567 450.318 417.476 450.339 417.385 450.339Z" fill="black"/>
</g>
<g opacity="0.21">
<path d="M417.384 453.949C417.25 453.949 417.12 453.904 417.013 453.823L391.709 434.558C391.583 434.46 391.5 434.317 391.48 434.159C391.459 434.001 391.502 433.841 391.599 433.714C391.697 433.588 391.84 433.505 391.999 433.485C392.157 433.464 392.317 433.507 392.443 433.605L417.747 452.87C417.872 452.968 417.954 453.111 417.974 453.269C417.995 453.427 417.953 453.586 417.857 453.713C417.802 453.786 417.731 453.846 417.649 453.887C417.567 453.928 417.476 453.949 417.384 453.949Z" fill="black"/>
</g>
<g opacity="0.21">
<path d="M416.179 456.362C416.047 456.361 415.92 456.317 415.816 456.235L390.512 436.97C390.449 436.923 390.396 436.863 390.356 436.795C390.316 436.727 390.289 436.651 390.278 436.573C390.256 436.415 390.298 436.254 390.394 436.127C390.49 435.999 390.633 435.915 390.791 435.893C390.949 435.871 391.11 435.912 391.237 436.009L416.542 455.274C416.605 455.321 416.659 455.38 416.699 455.449C416.739 455.517 416.766 455.592 416.777 455.671C416.788 455.749 416.783 455.829 416.763 455.906C416.743 455.982 416.708 456.054 416.66 456.117C416.604 456.192 416.531 456.253 416.448 456.296C416.365 456.338 416.273 456.361 416.179 456.362Z" fill="black"/>
</g>
<path d="M419.173 460.706L419.789 447.328L516.982 441.542V455.282L419.173 460.706Z" fill="#525659"/>
<path d="M464.341 464.189L463.144 479.836L522.145 471.409L525.173 455.754L464.341 464.189Z" fill="#2F2E41"/>
<path opacity="0.2" d="M464.341 464.189L463.144 479.836L522.145 471.409L525.173 455.754L464.341 464.189Z" fill="black"/>
<path d="M458.327 476.833H458.225L395.589 466.391C395.446 466.349 395.324 466.256 395.245 466.13C395.166 466.003 395.136 465.853 395.161 465.706C395.186 465.559 395.264 465.427 395.38 465.334C395.496 465.241 395.643 465.193 395.791 465.201L458.402 475.635C458.481 475.647 458.556 475.675 458.623 475.717C458.691 475.758 458.749 475.813 458.796 475.877C458.842 475.941 458.875 476.014 458.893 476.091C458.911 476.169 458.913 476.248 458.9 476.327C458.877 476.464 458.807 476.589 458.703 476.681C458.599 476.773 458.466 476.827 458.327 476.833Z" fill="#E6E6E6"/>
<path d="M357.581 395.106L309.016 387.358C304.402 386.623 299.879 385.395 295.526 383.695C285.192 379.672 273.574 376.2 267.636 380.641C267.636 380.641 247.575 401.015 259.963 408.848C259.963 408.848 265.992 422.183 310.798 416.335L357.693 411.831C359.61 411.646 361.534 412.105 363.16 413.136C365.958 414.92 370.679 417.709 374.475 418.854C375.905 419.269 377.42 419.295 378.864 418.927L395.893 414.722C395.893 414.722 397.169 414.675 398.914 410.148C398.914 410.148 403.297 408.084 401.889 404.31C401.889 404.31 405.994 401.976 405.968 397.656C405.968 397.656 409.2 395.122 407.833 392.629C407.833 392.629 410.853 388.055 406.94 385.649L392.668 378.528C391.18 377.665 389.457 377.295 387.746 377.471C386.035 377.647 384.424 378.359 383.143 379.507L357.581 395.106Z" fill="#F9B499"/>
<path d="M339.202 226.779C339.3 227.384 339.159 228.003 338.809 228.505C338.459 229.008 337.928 229.355 337.327 229.472C337.035 229.544 336.731 229.555 336.435 229.507C336.138 229.458 335.854 229.351 335.6 229.19C335.346 229.029 335.127 228.819 334.956 228.572C334.785 228.325 334.666 228.046 334.605 227.752C334.502 227.148 334.64 226.528 334.989 226.025C335.338 225.522 335.87 225.176 336.471 225.06C336.764 224.99 337.067 224.979 337.364 225.028C337.66 225.077 337.944 225.184 338.199 225.345C338.453 225.505 338.673 225.714 338.845 225.961C339.017 226.207 339.139 226.485 339.202 226.779Z" fill="#263238"/>
<path d="M341.098 224.277C340.853 224.624 338.893 223.594 336.39 223.989C333.888 224.384 332.289 225.923 331.939 225.661C331.78 225.545 331.987 224.957 332.694 224.246C333.661 223.329 334.887 222.733 336.205 222.537C337.506 222.328 338.84 222.54 340.011 223.144C340.869 223.608 341.214 224.117 341.098 224.277Z" fill="#263238"/>
<path d="M314.729 231.419C314.832 232.024 314.693 232.645 314.342 233.149C313.991 233.652 313.457 233.998 312.854 234.112C312.562 234.182 312.259 234.193 311.963 234.144C311.667 234.095 311.383 233.987 311.13 233.826C310.876 233.666 310.657 233.456 310.486 233.21C310.314 232.963 310.194 232.685 310.132 232.391C310.032 231.786 310.172 231.166 310.522 230.663C310.872 230.16 311.405 229.814 312.007 229.698C312.299 229.628 312.602 229.617 312.898 229.666C313.194 229.715 313.478 229.823 313.731 229.984C313.985 230.144 314.204 230.354 314.375 230.6C314.547 230.847 314.667 231.125 314.729 231.419Z" fill="#263238"/>
<path d="M316.573 228.589C316.337 228.935 314.369 227.915 311.876 228.308C309.382 228.702 307.773 230.234 307.415 229.973C307.264 229.856 307.471 229.268 308.179 228.566C309.143 227.643 310.369 227.043 311.689 226.848C312.987 226.646 314.316 226.858 315.487 227.456C316.36 227.909 316.713 228.417 316.573 228.589Z" fill="#263238"/>
<path d="M328.555 245.698C328.534 245.561 330.031 245.051 332.5 244.335C333.125 244.166 333.717 243.949 333.751 243.495C333.704 242.827 333.453 242.189 333.031 241.669L330.388 237.098C326.722 230.627 323.899 225.194 324.167 225.046C324.434 224.898 327.603 230.065 331.346 236.577L333.915 241.186C334.437 241.892 334.693 242.76 334.637 243.637C334.579 243.877 334.467 244.101 334.309 244.291C334.151 244.481 333.952 244.632 333.726 244.732C333.388 244.884 333.032 244.994 332.667 245.058C330.159 245.586 328.587 245.843 328.555 245.698Z" fill="#263238"/>
<path d="M321.492 248.576C321.896 248.513 322.32 251.195 324.947 252.764C327.574 254.332 330.407 253.576 330.493 253.95C330.52 254.122 329.932 254.585 328.715 254.804C327.127 255.076 325.495 254.778 324.105 253.963C322.775 253.181 321.801 251.913 321.388 250.426C321.08 249.311 321.275 248.593 321.492 248.576Z" fill="#263238"/>
<path d="M315.713 218.669C315.57 219.388 313.025 219.455 310.149 220.271C307.272 221.086 305.024 222.252 304.532 221.704C304.314 221.439 304.625 220.728 305.485 219.923C306.627 218.905 307.994 218.173 309.474 217.786C310.946 217.37 312.497 217.312 313.995 217.619C315.14 217.887 315.765 218.335 315.713 218.669Z" fill="#263238"/>
<path d="M339.054 217.188C338.695 217.817 336.887 217.53 334.805 217.797C332.724 218.064 331.046 218.769 330.548 218.24C330.323 217.985 330.516 217.364 331.188 216.711C332.117 215.909 333.264 215.4 334.482 215.248C335.7 215.097 336.936 215.309 338.034 215.859C338.865 216.327 339.198 216.874 339.054 217.188Z" fill="#263238"/>
<path d="M226.131 142.437C225.754 141.309 225.527 140.327 225.448 139.49C225.37 138.653 225.465 137.861 225.734 137.112C225.996 136.339 226.43 135.557 227.036 134.766L228.577 132.834C229.183 132.043 229.58 131.365 229.767 130.801C229.972 130.205 230 129.647 229.851 129.126C229.688 128.555 229.372 128.108 228.903 127.786C228.428 127.439 227.857 127.226 227.19 127.149C226.516 127.046 225.795 127.105 225.025 127.326C223.909 127.645 222.96 128.226 222.181 129.067C221.401 129.908 220.902 130.883 220.683 131.993L216.097 131.454C216.302 130.106 216.755 128.875 217.457 127.761C218.158 126.647 219.062 125.677 220.167 124.85C221.298 124.016 222.571 123.396 223.985 122.991C225.673 122.508 227.263 122.388 228.757 122.632C230.242 122.85 231.519 123.371 232.587 124.193C233.655 125.015 234.381 126.096 234.765 127.436C235.021 128.33 235.103 129.179 235.011 129.984C234.937 130.757 234.661 131.575 234.183 132.437C233.705 133.299 232.996 134.294 232.057 135.422L231.255 136.417C230.61 137.166 230.219 137.909 230.081 138.647C229.968 139.377 230.078 140.232 230.412 141.21L226.131 142.437ZM230.668 150.12C229.849 150.355 229.056 150.259 228.29 149.834C227.524 149.409 227.023 148.787 226.789 147.968C226.547 147.124 226.639 146.319 227.064 145.553C227.489 144.787 228.111 144.286 228.93 144.052C229.749 143.817 230.542 143.913 231.308 144.338C232.074 144.763 232.578 145.397 232.82 146.241C233.054 147.06 232.959 147.853 232.534 148.619C232.109 149.385 231.487 149.885 230.668 150.12Z" fill="#2B338E"/>
<path d="M386.138 129.513C386.345 127.87 386.652 126.5 387.058 125.402C387.464 124.303 388.062 123.365 388.851 122.588C389.646 121.775 390.663 121.054 391.901 120.426L395.001 118.93C396.24 118.302 397.146 117.69 397.722 117.095C398.339 116.471 398.711 115.786 398.838 115.042C398.977 114.226 398.85 113.475 398.456 112.788C398.069 112.065 397.48 111.454 396.689 110.954C395.905 110.419 394.963 110.058 393.864 109.871C392.269 109.599 390.728 109.756 389.242 110.342C387.756 110.927 386.54 111.851 385.595 113.113L380.163 109.67C381.233 108.101 382.544 106.829 384.097 105.853C385.649 104.877 387.369 104.203 389.257 103.832C391.18 103.467 393.152 103.456 395.172 103.8C397.583 104.211 399.653 105.02 401.381 106.227C403.115 107.398 404.404 108.822 405.249 110.498C406.095 112.174 406.354 113.97 406.028 115.884C405.81 117.161 405.401 118.276 404.8 119.232C404.241 120.158 403.401 121.018 402.281 121.813C401.161 122.607 399.671 123.429 397.811 124.279L396.203 125.045C394.942 125.596 394.002 126.293 393.384 127.137C392.801 127.986 392.425 129.126 392.254 130.556L386.138 129.513ZM387.201 141.898C386.031 141.699 385.093 141.101 384.388 140.105C383.682 139.109 383.428 138.026 383.628 136.856C383.833 135.651 384.434 134.695 385.43 133.989C386.426 133.284 387.509 133.03 388.679 133.23C389.849 133.429 390.787 134.027 391.492 135.023C392.198 136.019 392.448 137.119 392.243 138.325C392.044 139.495 391.446 140.433 390.45 141.138C389.454 141.844 388.371 142.098 387.201 141.898Z" fill="#2B338E"/>
</svg>
