<svg width="139" height="139" viewBox="0 0 139 139" fill="none" xmlns="http://www.w3.org/2000/svg">
<path d="M11.8367 8.57891C11.4566 8.95898 11.4023 14.8502 11.4023 69.5C11.4023 124.15 11.4566 130.041 11.8367 130.421C12.2168 130.801 16.8592 130.855 58.885 130.855C94.7752 130.855 105.58 130.774 105.825 130.53C106.069 130.285 106.15 128.168 106.15 122.711C106.178 114.159 105.933 114.458 108.675 119.317C110.576 122.657 112.177 124.448 114.159 125.426C115.327 125.996 115.897 126.104 118.231 126.104C120.566 126.104 121.109 126.023 122.141 125.48C123.96 124.503 125.887 122.548 126.702 120.838C127.706 118.774 127.761 115.381 126.865 113.372C125.616 110.684 111.499 86.5764 111.01 86.3049C110.657 86.1148 110.304 86.142 109.924 86.332C109.625 86.5221 109.327 86.6035 109.272 86.5492C109.137 86.4135 105.635 80.3594 105.2 79.5178C104.82 78.7848 104.82 78.7033 105.635 77.8074C107.128 76.0971 109.028 72.6221 109.897 70.0158C112.367 62.5229 111.39 55.0842 107.019 48.2156L106.15 46.8582V27.8271C106.15 13.3842 106.069 8.71465 105.825 8.47031C105.58 8.22598 94.7752 8.14453 58.885 8.14453C16.8592 8.14453 12.2168 8.19883 11.8367 8.57891ZM103.707 27.4199C103.707 36.5146 103.653 43.9805 103.571 43.9805C103.49 43.9805 102.675 43.3561 101.752 42.623C99.7162 40.9941 95.9154 39.0666 93.1191 38.2522C90.2143 37.4377 84.7574 37.2477 81.6897 37.8721C70.0701 40.2068 61.8984 50.1703 61.8441 62.0342C61.8441 66.215 62.5229 69.1742 64.3418 72.8936C68.1697 80.7123 75.174 85.6262 83.8887 86.6578C86.0334 86.9021 87.2279 86.9021 89.2369 86.6578C90.6758 86.4678 91.8703 86.3592 91.9246 86.3863C91.9518 86.4406 92.9834 88.1781 94.1779 90.2414C96.2684 93.8793 96.3498 94.0422 95.834 94.3951C95.5354 94.6123 95.291 95.0738 95.291 95.4539C95.291 95.834 97.1643 99.3633 99.499 103.408L103.707 110.684V119.399V128.141H58.9121H14.1172V69.5V10.8594H58.9121H103.707V27.4199ZM91.626 40.6955C98.0873 42.2701 103.327 46.4781 106.395 52.5865C110.929 61.6541 108.132 73.3822 99.9334 79.5721C90.4314 86.7664 76.9115 85.2461 69.5271 76.1514C65.7264 71.4547 63.8531 65.102 64.6133 59.4279C65.9164 49.7088 72.7307 42.5416 82.667 40.3697C84.2688 40.0168 89.5898 40.2068 91.626 40.6955ZM104.929 84.5131C106.938 87.9609 106.938 87.9609 106.34 88.341C104.494 89.4813 99.0375 92.5762 98.8475 92.5762C98.6303 92.5762 94.748 86.0605 94.748 85.7348C94.748 85.6533 95.8883 85.0289 97.2729 84.323C98.6303 83.6443 100.395 82.5855 101.128 82.0154C101.888 81.4182 102.594 80.9566 102.703 80.9838C102.838 81.0381 103.843 82.6127 104.929 84.5131ZM117.254 101.942C121.163 108.729 124.476 114.675 124.638 115.164C125.833 119.426 122.575 123.634 118.096 123.58C116.358 123.553 114.349 122.711 113.29 121.571C112.693 120.919 98.5488 96.567 98.5488 96.1869C98.5488 95.9154 109.381 89.617 109.843 89.617C110.005 89.5898 113.345 95.1553 117.254 101.942Z" fill="white"/>
<path d="M20.7953 17.5379C20.1437 18.1623 20.1437 32.0623 20.7953 32.6867C21.1754 33.0668 25.0033 33.1211 58.8846 33.1211C87.7977 33.1211 96.6209 33.0396 96.8652 32.7953C97.3268 32.3338 97.3268 17.8908 96.8652 17.4293C96.6209 17.185 87.7977 17.1035 58.8846 17.1035C25.0033 17.1035 21.1754 17.1578 20.7953 17.5379ZM94.7477 25.1123V30.4062H58.9117H23.0758V25.1123V19.8184H58.9117H94.7477V25.1123Z" fill="white"/>
<path d="M20.7959 42.243C20.2258 42.8131 20.2529 43.5189 20.8502 44.0619C21.3117 44.4963 22.9949 44.5234 39.4469 44.5234C57.202 44.5234 57.5549 44.5234 58.0979 43.9805C58.7766 43.3018 58.7766 42.8402 58.1522 42.2701C57.6906 41.8357 56.0074 41.8086 39.4197 41.8086C23.2393 41.8086 21.176 41.8629 20.7959 42.243Z" fill="white"/>
<path d="M20.877 50.7404C20.334 51.1747 20.2797 51.3648 20.4969 52.0163L20.7684 52.8036L34.9942 52.8851C47.944 52.9394 49.2742 52.9122 49.7358 52.505C50.3602 51.9078 50.3602 51.4462 49.6815 50.7675C49.1656 50.2517 48.7856 50.2245 35.3199 50.2245C22.1529 50.2245 21.4742 50.2517 20.877 50.7404Z" fill="white"/>
<path d="M20.7954 59.3465C20.1981 59.9438 20.2524 60.7039 20.9583 61.1926C21.5012 61.5727 23.7274 61.627 39.555 61.627C57.2014 61.627 57.5544 61.627 58.0973 61.084C58.7761 60.4053 58.7761 59.9438 58.1516 59.3736C57.6901 58.9393 56.0069 58.9121 39.4192 58.9121C23.2387 58.9121 21.1755 58.9664 20.7954 59.3465Z" fill="white"/>
<path d="M20.6873 70.6402C20.28 71.0475 20.28 72.0248 20.6873 72.432C20.9316 72.6764 25.4654 72.7578 39.3925 72.7578C55.763 72.7578 57.8263 72.7035 58.2064 72.3234C58.7222 71.8348 58.7494 71.5633 58.3693 70.8303C58.0978 70.3416 57.582 70.3145 39.5554 70.3145C25.4925 70.3145 20.9316 70.3959 20.6873 70.6402Z" fill="white"/>
<path d="M20.7959 79.1648C20.2258 79.735 20.2529 80.4408 20.8502 80.9838C21.3117 81.4182 22.9949 81.4453 39.4469 81.4453C57.202 81.4453 57.5549 81.4453 58.0979 80.9023C58.7766 80.2236 58.7766 79.7621 58.1522 79.192C57.6906 78.7576 56.0074 78.7305 39.4197 78.7305C23.2393 78.7305 21.176 78.7848 20.7959 79.1648Z" fill="white"/>
<path d="M63.1197 84.5403C61.9523 85.0561 60.5949 86.685 60.3777 87.8795C60.2691 88.4225 60.2963 89.3455 60.4592 89.8885L60.7307 90.8659L57.3643 94.0694C54.0522 97.1914 53.9979 97.2457 53.1562 96.9471C52.6947 96.7842 51.9889 96.6485 51.6088 96.6485C50.9301 96.6485 49.1926 97.3815 48.2967 98.033C47.9709 98.2774 47.4008 98.1688 45.5547 97.4629C43.2742 96.6213 43.2199 96.567 43.057 95.5897C42.2426 90.5129 35.0211 90.5129 34.0709 95.5897C33.8809 96.567 33.8266 96.6213 31.2746 97.5444L28.6412 98.4674L27.7725 97.7073C24.3246 94.7209 18.9492 98.7118 20.741 102.974C21.6912 105.282 24.4061 106.395 26.6322 105.39C28.1525 104.712 28.7498 104.06 29.3471 102.295L29.8086 100.884L32.3063 99.9877L34.7768 99.0918L35.727 99.7977C36.3514 100.286 37.1387 100.585 38.0074 100.666C39.6906 100.829 40.4779 100.612 41.4824 99.7705L42.2969 99.0918L44.6859 100.015C47.1022 100.938 47.1022 100.938 47.2922 102.051C47.5365 103.571 48.351 104.63 49.7627 105.309C51.2016 106.015 52.2061 106.015 53.6449 105.363C55.4096 104.549 56.0611 103.408 56.0611 101.047L56.0883 99.0918L57.5543 97.5715C58.3688 96.7299 59.8619 95.3454 60.8664 94.4495L62.6854 92.8205L63.7713 93.1463C65.916 93.7979 68.658 92.2504 69.2553 90.0786C70.2326 86.3592 66.5676 83.0471 63.1197 84.5403ZM66.1604 87.4723C66.9477 88.2053 66.9477 89.237 66.1875 90.0514C65.4545 90.8387 64.4229 90.8387 63.6084 90.0786C62.8211 89.3455 62.8211 88.3139 63.5813 87.4995C64.3143 86.7121 65.3459 86.7121 66.1604 87.4723ZM40.0164 95.0739C40.6408 95.9426 40.5594 96.8385 39.7449 97.6258C39.2291 98.1688 38.9033 98.2774 38.3332 98.1688C37.4102 97.9516 36.65 97.0557 36.65 96.2141C36.65 94.6395 39.1477 93.7979 40.0164 95.0739ZM26.3064 100.069C26.6322 100.476 26.8766 100.992 26.8766 101.264C26.8766 102.105 25.8178 103.164 24.949 103.164C23.2658 103.164 22.4514 101.047 23.673 99.9063C24.5147 99.1461 25.6277 99.2004 26.3064 100.069ZM52.9662 99.852C54.215 100.884 53.4006 103.164 51.7988 103.164C50.3057 103.164 49.4098 101.752 50.0885 100.449C50.7129 99.2547 51.9074 99.0104 52.9662 99.852Z" fill="white"/>
<path d="M60.9754 97.5172C60.5953 98.033 60.541 99.6348 60.541 109.408C60.541 119.182 60.5953 120.783 60.9754 121.299C61.3555 121.869 61.5727 121.896 64.8848 121.896C68.1969 121.896 68.4141 121.869 68.7941 121.299C69.1742 120.783 69.2285 119.182 69.2285 109.408C69.2285 99.6348 69.1742 98.033 68.7941 97.5172C68.4141 96.9471 68.1969 96.9199 64.8848 96.9199C61.5727 96.9199 61.3555 96.9471 60.9754 97.5172ZM66.5137 109.408V119.182H64.8848H63.2559V109.408V99.6348H64.8848H66.5137V109.408Z" fill="white"/>
<path d="M34.6414 105.119C34.2613 105.635 34.207 106.883 34.207 113.209C34.207 119.535 34.2613 120.783 34.6414 121.299C35.0215 121.869 35.2387 121.896 38.5236 121.896C41.5371 121.896 42.0529 121.842 42.433 121.408C42.8402 120.973 42.8945 119.996 42.8945 113.236C42.8945 108.485 42.7859 105.363 42.623 105.037C42.3516 104.576 42.0258 104.521 38.6865 104.521C35.2387 104.521 35.0215 104.549 34.6414 105.119ZM40.1797 113.209V119.182H38.5508H36.9219V113.209V107.236H38.5508H40.1797V113.209Z" fill="white"/>
<path d="M74.3324 105.092C73.7623 105.417 73.6808 106.693 74.1695 107.182C74.4138 107.426 77.3187 107.508 85.5447 107.508C96.5127 107.508 96.6213 107.508 97.0285 106.938C97.4629 106.313 97.3543 105.662 96.7027 105.119C96.1597 104.684 75.0654 104.657 74.3324 105.092Z" fill="white"/>
<path d="M21.6098 109.843C20.9582 110.467 20.9582 120.838 21.6098 121.462C21.9355 121.815 22.6957 121.896 25.492 121.896C27.7996 121.896 29.0484 121.788 29.2656 121.571C29.51 121.326 29.5914 119.643 29.5914 115.598C29.5914 110.304 29.5643 109.951 29.0756 109.68C28.777 109.544 27.0666 109.408 25.2748 109.408C22.6957 109.408 21.9355 109.49 21.6098 109.843ZM27.148 115.652V119.182H25.5191H23.8902V115.652V112.123H25.5191H27.148V115.652Z" fill="white"/>
<path d="M47.9438 109.843C47.2922 110.467 47.2922 120.838 47.9438 121.462C48.2695 121.815 49.0297 121.896 51.826 121.896C54.1336 121.896 55.3824 121.788 55.5996 121.571C55.8439 121.326 55.9254 119.643 55.9254 115.598C55.9254 110.304 55.8982 109.951 55.4096 109.68C55.1109 109.544 53.4006 109.408 51.6088 109.408C49.0297 109.408 48.2695 109.49 47.9438 109.843ZM53.2105 115.652V119.182H51.7174H50.2242V115.652V112.123H51.7174H53.2105V115.652Z" fill="white"/>
<path d="M74.1695 112.449C73.9795 112.639 73.8438 113.127 73.8438 113.535C73.8438 114.105 74.0066 114.376 74.5496 114.566C75.6355 115.001 96.1598 114.919 96.7027 114.485C97.3543 113.969 97.4629 113.318 97.0285 112.693C96.6213 112.123 96.5127 112.123 85.5447 112.123C77.3188 112.123 74.4139 112.204 74.1695 112.449Z" fill="white"/>
<path d="M74.3324 119.48C73.7623 119.806 73.6808 121.082 74.1695 121.571C74.4138 121.815 77.3187 121.896 85.5447 121.896C96.5127 121.896 96.6213 121.896 97.0285 121.326C97.4629 120.702 97.3543 120.05 96.7027 119.507C96.1597 119.073 75.0654 119.046 74.3324 119.48Z" fill="white"/>
<path d="M82.5586 44.1162C78.8664 44.9578 74.577 47.5912 72.3508 50.4146C67.5455 56.5501 66.8397 64.4503 70.5319 71.1289C71.8893 73.5994 75.3371 76.9929 77.8348 78.2689C82.9115 80.9023 89.4 81.0923 94.341 78.7304C99.2006 76.4228 103.001 71.7533 104.386 66.3779C104.983 64.0703 104.902 60.0251 104.25 57.446C102.757 51.6091 98.1961 46.7224 92.332 44.7134C89.4815 43.7361 85.3549 43.4646 82.5586 44.1162ZM89.9973 46.831C95.8885 48.3242 100.504 52.9394 101.834 58.6406C102.404 61.0839 102.214 64.4775 101.4 66.9751C98.3319 76.2056 88.0154 80.4136 79.2194 75.9884C77.3461 75.0382 74.4684 72.432 73.2738 70.5587C71.1291 67.1923 70.3147 62.4685 71.2649 58.5863C72.6223 52.858 77.2375 48.1884 82.8572 46.8039C84.8391 46.3423 88.0697 46.3423 89.9973 46.831Z" fill="white"/>
<path d="M87.771 50.2519C87.4996 50.4962 87.4181 51.9622 87.4181 55.5458C87.4181 61.79 87.0109 61.3556 92.9021 61.3556C95.2369 61.3556 97.463 61.247 97.8431 61.0841C98.7933 60.7312 98.9562 59.7538 98.4404 57.6362C97.6802 54.487 95.7527 52.1523 92.8478 50.7948C91.1103 50.0075 88.2869 49.7089 87.771 50.2519ZM92.332 53.5097C93.4994 54.0798 94.9382 55.6816 95.4541 56.9032C96.1599 58.6136 96.1328 58.6407 92.9835 58.6407H90.133V55.6273C90.133 52.2609 90.0244 52.3423 92.332 53.5097Z" fill="white"/>
<path d="M81.5807 54.677C78.5401 55.6543 75.961 57.9891 74.9293 60.7582C74.142 62.8758 74.142 65.8078 74.9293 67.9254C75.7438 70.0973 77.7528 72.242 80.0333 73.3551C81.6622 74.1695 82.0694 74.251 84.2956 74.251C86.3588 74.251 86.9833 74.1424 88.2864 73.518C91.5985 71.9977 93.879 68.8484 94.1504 65.5092C94.3405 62.9844 94.3405 62.9844 89.5624 62.9844H85.5172V58.9664C85.5172 56.1973 85.4086 54.8398 85.1915 54.6227C84.7842 54.2154 82.9924 54.2426 81.5807 54.677ZM83.0739 61.2197C83.0739 64.8033 83.1282 65.1562 83.5897 65.4277C83.8883 65.5635 85.7887 65.6992 87.7977 65.6992C89.8338 65.6992 91.4899 65.8078 91.4899 65.9436C91.4899 66.568 90.5668 68.2783 89.6709 69.2557C86.9561 72.242 82.3409 72.4592 79.3817 69.7172C77.7528 68.224 77.0198 66.5408 77.0198 64.3418C77.0198 62.2514 77.4813 61.0297 78.9202 59.4551C79.9247 58.3148 82.3952 56.9031 82.8567 57.1746C82.9653 57.2561 83.0739 59.075 83.0739 61.2197Z" fill="white"/>
</svg>
