<svg width="282" height="70" viewBox="0 0 282 70" fill="none" xmlns="http://www.w3.org/2000/svg">
<path d="M210.036 64.8137C210.036 67.5981 212.301 69.8762 215.099 69.8762C217.884 69.8762 220.162 67.6114 220.162 64.8137C220.162 64.494 220.135 64.1742 220.069 63.8678C224.665 59.1916 230.98 61.3099 236.562 63.1884C239.334 64.1209 241.865 64.9602 244.023 64.9602C245.249 64.9602 246.355 64.6805 247.327 63.9877C248.979 62.802 249.845 60.6171 249.992 57.1799C253.642 57.06 257.2 56.5138 260.584 55.5546C264.581 54.4089 268.164 52.7436 271.215 50.5853C274.493 48.2672 277.064 45.4429 278.849 42.2188C280.781 38.715 281.754 34.7849 281.754 30.5217C281.754 29.829 281.194 29.2694 280.501 29.2694H277.357C276.664 29.2694 276.105 29.829 276.105 30.5217C276.105 31.2145 276.664 31.774 277.357 31.774H279.222C278.45 47.5345 262.942 54.7286 248.513 54.7286C234.324 54.7286 219.083 47.5345 218.31 31.774H220.082C220.775 31.774 221.334 31.2145 221.334 30.5217C221.334 29.829 220.775 29.2694 220.082 29.2694H217.031C216.338 29.2694 215.779 29.829 215.779 30.5217C215.779 38.8349 219.349 45.8026 226.117 50.6519C231.779 54.7153 239.334 57.0201 247.474 57.2066C247.341 59.6846 246.794 61.2966 245.848 61.976C244.236 63.1351 240.879 62.016 237.335 60.8303C234.364 59.8311 230.993 58.6987 227.689 58.5655C224.185 58.4189 221.308 59.3781 218.909 61.5231C217.977 60.4439 216.605 59.7645 215.086 59.7645C212.301 59.7512 210.036 62.016 210.036 64.8137ZM212.528 64.8137C212.528 63.4015 213.674 62.2558 215.086 62.2558C216.498 62.2558 217.644 63.4015 217.644 64.8137C217.644 66.2259 216.498 67.3716 215.086 67.3716C213.674 67.3716 212.528 66.2259 212.528 64.8137Z" fill="#000F9F"/>
<path d="M0.759277 11.7238H5.06261V33.5992H0.759277V11.7238Z" fill="#00A19B"/>
<path d="M10.7114 33.5992V10.8312H10.7381L22.8886 28.0704L21.0501 27.6574L33.1739 10.8312H33.2272V33.5992H28.9239V20.5566L29.1904 22.7814L21.7961 33.3061H21.7428L14.1354 22.7814L14.8815 20.7298V33.5992H10.7114Z" fill="#00A19B"/>
<path d="M56.6358 31.4011C56.3827 31.6808 55.9697 31.9606 55.4235 32.2537C54.8639 32.5468 54.2244 32.7999 53.505 33.0397C52.7855 33.2795 52.0394 33.466 51.2933 33.6259C50.5339 33.7725 49.8278 33.8524 49.1483 33.8524C46.7902 33.8524 44.7385 33.3994 42.9931 32.4802C41.2478 31.5609 39.9022 30.3219 38.9696 28.7366C38.0237 27.1512 37.5574 25.3394 37.5574 23.301C37.5574 21.3027 37.8638 19.5574 38.4633 18.0786C39.0629 16.5998 39.8889 15.3742 40.9281 14.3883C41.9673 13.4024 43.1663 12.683 44.5253 12.2034C45.8842 11.7238 47.3098 11.484 48.7886 11.484C50.2009 11.484 51.4799 11.6439 52.6523 11.9503C53.8247 12.2567 54.8106 12.6431 55.6233 13.096L54.2244 17.1061C53.8647 16.9062 53.3984 16.7064 52.7988 16.5066C52.1993 16.3067 51.5998 16.1469 50.9869 16.0136C50.3741 15.8804 49.8278 15.8138 49.3482 15.8138C47.7894 15.8138 46.4571 16.0803 45.3513 16.5998C44.2455 17.1194 43.4195 17.9188 42.8599 18.9579C42.3003 20.0104 42.0072 21.316 42.0072 22.8747C42.0072 24.2469 42.3137 25.4193 42.9265 26.4051C43.5394 27.391 44.392 28.1637 45.4978 28.6966C46.6037 29.2295 47.856 29.496 49.2549 29.496C49.8678 29.496 50.4274 29.456 50.947 29.3627C51.4665 29.2695 51.8929 29.1362 52.2526 28.9364V26.2852H48.4822V22.1286H56.6225V31.4011H56.6358Z" fill="#00A19B"/>
<path d="M81.5098 31.9606C81.1767 32.1737 80.697 32.4402 80.0709 32.7466C79.4447 33.053 78.7119 33.3194 77.8726 33.5326C77.0332 33.7458 76.114 33.8523 75.1281 33.8257C73.4494 33.7991 71.9439 33.506 70.6116 32.9331C69.2793 32.3602 68.1468 31.5742 67.2142 30.575C66.2816 29.5758 65.5488 28.4301 65.0559 27.1245C64.5629 25.8322 64.3098 24.4467 64.3098 22.9812C64.3098 21.3559 64.5763 19.8638 65.0959 18.5049C65.6155 17.146 66.3616 15.9736 67.3075 14.9744C68.2534 13.9753 69.3859 13.2025 70.6782 12.643C71.9705 12.0835 73.3961 11.817 74.9415 11.817C76.2472 11.817 77.4329 11.9902 78.5121 12.3499C79.5779 12.7096 80.4839 13.1093 81.2167 13.5623L79.9643 16.4799C79.3914 16.0802 78.6853 15.7072 77.8459 15.3475C77.0066 14.9878 76.074 14.8146 75.0348 14.8146C73.6892 14.8146 72.4501 15.1743 71.3044 15.8804C70.1719 16.5998 69.2526 17.559 68.5732 18.758C67.8937 19.957 67.5473 21.3292 67.5473 22.8347C67.5473 24.3668 67.8537 25.7256 68.4799 26.938C69.1061 28.1503 69.9854 29.0962 71.1445 29.789C72.2903 30.4818 73.6359 30.8281 75.1813 30.8281C76.2871 30.8281 77.2597 30.655 78.1124 30.3219C78.9517 29.9888 79.6445 29.6025 80.1775 29.1628L81.5098 31.9606Z" fill="#62CBC9"/>
<path d="M84.9204 22.8347C84.9204 21.3426 85.2002 19.9437 85.7731 18.6115C86.3326 17.2792 87.132 16.1069 88.1312 15.0944C89.1438 14.0685 90.3162 13.2692 91.6352 12.683C92.9542 12.0968 94.3797 11.8037 95.8852 11.8037C97.3907 11.8037 98.8162 12.0968 100.149 12.683C101.481 13.2692 102.667 14.0685 103.679 15.0944C104.705 16.1202 105.491 17.2926 106.077 18.6115C106.65 19.9437 106.943 21.3426 106.943 22.8347C106.943 24.3668 106.65 25.7923 106.077 27.1112C105.504 28.4434 104.705 29.6025 103.679 30.615C102.653 31.6275 101.481 32.4135 100.149 32.9731C98.8162 33.5326 97.3907 33.8257 95.8852 33.8257C94.3797 33.8257 92.9675 33.5459 91.6352 32.9731C90.3029 32.4002 89.1438 31.6275 88.1312 30.6417C87.1187 29.6558 86.3326 28.4834 85.7731 27.1512C85.2135 25.8189 84.9204 24.3801 84.9204 22.8347ZM88.1312 22.8747C88.1312 24.3401 88.4776 25.6724 89.1704 26.8847C89.8632 28.0971 90.8092 29.0563 91.9949 29.7624C93.1806 30.4818 94.5129 30.8282 95.9785 30.8282C97.4307 30.8282 98.7363 30.4685 99.8954 29.7624C101.068 29.043 102 28.0837 102.693 26.8847C103.386 25.6857 103.732 24.3268 103.732 22.848C103.732 21.3692 103.386 20.0103 102.68 18.798C101.974 17.5723 101.041 16.6131 99.8554 15.8937C98.683 15.1743 97.3641 14.8279 95.9119 14.8279C94.4463 14.8279 93.1273 15.1876 91.9416 15.907C90.7559 16.6264 89.8366 17.599 89.1438 18.8246C88.4776 20.0237 88.1312 21.3825 88.1312 22.8747Z" fill="#62CBC9"/>
<path d="M111.7 33.5992V11.3374H111.726L123.144 27.5375L121.812 27.271L133.19 11.3374H133.243V33.5992H130.152V18.385L130.325 19.957L122.358 31.2811H122.305L114.164 19.957L114.697 18.5049V33.5992H111.7Z" fill="#62CBC9"/>
<path d="M145.233 12.0568C147.605 12.0568 149.47 12.6563 150.816 13.842C152.161 15.0277 152.841 16.693 152.841 18.838C152.841 19.6906 152.708 20.5299 152.455 21.3692C152.201 22.1952 151.788 22.9546 151.215 23.6474C150.643 24.3401 149.91 24.873 148.991 25.286C148.071 25.6857 146.939 25.8988 145.62 25.8988H142.436V33.6259H139.345V12.0568H145.233ZM145.58 22.8347C146.393 22.8347 147.072 22.7015 147.618 22.435C148.165 22.1686 148.591 21.8222 148.897 21.4092C149.204 20.9962 149.417 20.5565 149.55 20.1036C149.683 19.6506 149.75 19.2376 149.75 18.8779C149.75 18.4782 149.683 18.0652 149.55 17.6123C149.417 17.1726 149.204 16.7463 148.897 16.36C148.591 15.9736 148.178 15.6539 147.658 15.4141C147.139 15.1743 146.499 15.0411 145.726 15.0411H142.422V22.8214H145.58V22.8347Z" fill="#62CBC9"/>
<path d="M152.921 33.5992L162.407 11.1642H162.58L172.066 33.5992H168.469L161.567 16.0403L163.792 14.5881L156.012 33.6126H152.921V33.5992ZM158.663 25.5125H166.39L167.456 28.1903H157.744L158.663 25.5125Z" fill="#62CBC9"/>
<path d="M187.161 16.1202C186.401 15.7205 185.602 15.3874 184.723 15.1077C183.857 14.8279 183.004 14.6947 182.191 14.6947C181.059 14.6947 180.166 14.9478 179.513 15.454C178.861 15.9603 178.527 16.6531 178.527 17.5457C178.527 18.1585 178.741 18.6914 179.18 19.1444C179.62 19.5973 180.179 19.997 180.872 20.3301C181.565 20.6631 182.298 20.9829 183.071 21.276C183.963 21.5957 184.829 21.9954 185.655 22.475C186.481 22.9546 187.174 23.6074 187.707 24.4201C188.24 25.2327 188.506 26.3252 188.506 27.6841C188.506 28.8165 188.213 29.8423 187.64 30.7749C187.067 31.7074 186.255 32.4402 185.189 32.9864C184.123 33.5326 182.857 33.7991 181.365 33.7991C179.98 33.7991 178.661 33.5726 177.422 33.1329C176.183 32.6933 175.117 32.1604 174.224 31.5476L175.623 29.0829C176.316 29.6158 177.168 30.0821 178.181 30.4818C179.194 30.8814 180.153 31.0813 181.059 31.0813C181.738 31.0813 182.391 30.9614 183.017 30.7349C183.643 30.5084 184.176 30.1487 184.603 29.6558C185.029 29.1628 185.242 28.51 185.242 27.6974C185.242 27.0179 185.056 26.4451 184.683 25.9788C184.31 25.4992 183.817 25.0995 183.217 24.7664C182.618 24.4334 181.965 24.127 181.272 23.8738C180.593 23.6207 179.913 23.3409 179.207 23.0212C178.501 22.7148 177.861 22.3284 177.275 21.8755C176.689 21.4225 176.209 20.863 175.85 20.1968C175.476 19.5307 175.303 18.7314 175.303 17.7722C175.303 16.5998 175.57 15.5873 176.116 14.7346C176.662 13.882 177.422 13.2026 178.394 12.7096C179.367 12.2167 180.473 11.9502 181.725 11.9103C183.151 11.9103 184.403 12.0835 185.469 12.4299C186.535 12.7762 187.48 13.2026 188.293 13.6955L187.161 16.1202Z" fill="#62CBC9"/>
<path d="M204.467 16.1202C203.708 15.7205 202.909 15.3874 202.029 15.1077C201.163 14.8279 200.311 14.6947 199.498 14.6947C198.365 14.6947 197.473 14.9478 196.82 15.454C196.167 15.9603 195.834 16.6531 195.834 17.5457C195.834 18.1585 196.047 18.6914 196.487 19.1444C196.927 19.5973 197.486 19.997 198.179 20.3301C198.872 20.6631 199.604 20.9829 200.377 21.276C201.27 21.5957 202.136 21.9954 202.962 22.475C203.788 22.9546 204.481 23.6074 205.014 24.4201C205.547 25.2327 205.813 26.3252 205.813 27.6841C205.813 28.8165 205.52 29.8423 204.947 30.7749C204.374 31.7074 203.561 32.4402 202.496 32.9864C201.43 33.5326 200.164 33.7991 198.672 33.7991C197.286 33.7991 195.967 33.5726 194.728 33.1329C193.489 32.6933 192.423 32.1604 191.531 31.5476L192.93 29.0829C193.622 29.6158 194.475 30.0821 195.488 30.4818C196.5 30.8814 197.459 31.0813 198.365 31.0813C199.045 31.0813 199.698 30.9614 200.324 30.7349C200.95 30.5084 201.483 30.1487 201.909 29.6558C202.336 29.1628 202.549 28.51 202.549 27.6974C202.549 27.0179 202.362 26.4451 201.989 25.9788C201.616 25.4992 201.123 25.0995 200.524 24.7664C199.924 24.4334 199.271 24.127 198.579 23.8738C197.899 23.6207 197.22 23.3409 196.514 23.0212C195.807 22.7148 195.168 22.3284 194.582 21.8755C193.996 21.4225 193.516 20.863 193.156 20.1968C192.783 19.5307 192.61 18.7314 192.61 17.7722C192.61 16.5998 192.876 15.5873 193.423 14.7346C193.969 13.882 194.728 13.2026 195.701 12.7096C196.673 12.2167 197.779 11.9502 199.032 11.9103C200.457 11.9103 201.71 12.0835 202.775 12.4299C203.841 12.7762 204.787 13.2026 205.6 13.6955L204.467 16.1202Z" fill="#62CBC9"/>
<path d="M3.42399 45.8825C3.22415 45.7759 3.01099 45.6827 2.77118 45.616C2.54469 45.5361 2.3182 45.5095 2.10503 45.5095C1.81193 45.5095 1.57211 45.5761 1.39891 45.7093C1.22572 45.8425 1.13246 46.029 1.13246 46.2688C1.13246 46.4287 1.18574 46.5753 1.30564 46.6952C1.42555 46.8151 1.5721 46.9216 1.75862 47.0149C1.94514 47.1082 2.13167 47.1881 2.34483 47.268C2.58465 47.348 2.81115 47.4545 3.02432 47.5878C3.23748 47.721 3.42399 47.8942 3.57054 48.1073C3.7171 48.3205 3.78372 48.6136 3.78372 48.9733C3.78372 49.2664 3.70378 49.5462 3.55723 49.7993C3.41068 50.0524 3.18418 50.2389 2.9044 50.3855C2.62461 50.532 2.29155 50.5986 1.89186 50.5986C1.51882 50.5986 1.17242 50.5454 0.852669 50.4254C0.519595 50.3055 0.239813 50.1723 0 49.9991L0.373041 49.3463C0.559563 49.4929 0.786046 49.6128 1.0525 49.7194C1.31896 49.8259 1.57211 49.8792 1.81192 49.8792C1.98512 49.8792 2.15832 49.8526 2.33152 49.786C2.50472 49.7194 2.63794 49.6261 2.75784 49.4929C2.87775 49.3597 2.93105 49.1865 2.93105 48.9733C2.93105 48.8001 2.87775 48.6402 2.78449 48.5203C2.69123 48.4004 2.55801 48.2805 2.39814 48.2006C2.23826 48.1073 2.06506 48.0274 1.87854 47.9608C1.70534 47.8942 1.51882 47.8142 1.3323 47.7343C1.14577 47.6544 0.97257 47.5478 0.826017 47.4279C0.679464 47.308 0.546237 47.1614 0.452976 46.9883C0.359715 46.8151 0.306422 46.6019 0.306422 46.3488C0.306422 46.0424 0.373042 45.7759 0.519595 45.5494C0.666147 45.323 0.865988 45.1498 1.11912 45.0165C1.37226 44.8833 1.66537 44.8167 1.99844 44.8034C2.37149 44.8034 2.70456 44.8433 2.99767 44.9366C3.27745 45.0299 3.53058 45.1364 3.74375 45.2697L3.42399 45.8825Z" fill="#000F9F"/>
<path d="M5.78224 48.4804C5.78224 48.7202 5.83554 48.9467 5.95545 49.1332C6.07536 49.333 6.23523 49.4929 6.43508 49.5995C6.63492 49.7194 6.8614 49.7726 7.11454 49.7726C7.381 49.7726 7.60749 49.7194 7.82066 49.5995C8.0205 49.4796 8.18038 49.333 8.30028 49.1332C8.42019 48.9333 8.47349 48.7202 8.47349 48.4804V44.8034H9.28619V48.4937C9.28619 48.9067 9.19293 49.2664 8.99308 49.5861C8.79324 49.8925 8.54011 50.1457 8.20703 50.3189C7.87396 50.4921 7.51424 50.5853 7.10122 50.5853C6.68821 50.5853 6.32849 50.5054 5.99542 50.3189C5.66234 50.1457 5.40921 49.9059 5.20937 49.5861C5.02285 49.2797 4.91626 48.9067 4.91626 48.4937V44.8034H5.74228V48.4804H5.78224Z" fill="#000F9F"/>
<path d="M12.3905 44.8034C13.0167 44.8034 13.5096 44.9632 13.8693 45.2696C14.229 45.5894 14.4022 46.029 14.4022 46.5886C14.4022 46.815 14.3623 47.0415 14.2957 47.2547C14.229 47.4678 14.1225 47.681 13.9626 47.8542C13.816 48.0407 13.6162 48.1739 13.3764 48.2938C13.1366 48.4004 12.8301 48.4537 12.4837 48.4537H11.6444V50.5054H10.8184V44.79H12.3905V44.8034ZM12.4837 47.6677C12.6969 47.6677 12.8834 47.6277 13.03 47.5611C13.1765 47.4945 13.2831 47.4012 13.363 47.2947C13.443 47.1881 13.4963 47.0682 13.5363 46.9483C13.5762 46.8284 13.5895 46.7218 13.5895 46.6285C13.5895 46.522 13.5762 46.4154 13.5363 46.2955C13.4963 46.1756 13.443 46.069 13.363 45.9624C13.2831 45.8558 13.1765 45.7759 13.03 45.7093C12.8967 45.6427 12.7235 45.616 12.5237 45.616H11.6444V47.681H12.4837V47.6677Z" fill="#000F9F"/>
<path d="M17.1334 44.8034C17.7596 44.8034 18.2525 44.9632 18.6122 45.2696C18.972 45.5894 19.1452 46.029 19.1452 46.5886C19.1452 46.815 19.1052 47.0415 19.0386 47.2547C18.972 47.4678 18.8654 47.681 18.7055 47.8542C18.5589 48.0407 18.3591 48.1739 18.1193 48.2938C17.8795 48.4004 17.573 48.4537 17.2266 48.4537H16.3873V50.5054H15.5613V44.79H17.1334V44.8034ZM17.2266 47.6677C17.4398 47.6677 17.6263 47.6277 17.7729 47.5611C17.9194 47.4945 18.026 47.4012 18.106 47.2947C18.1859 47.1881 18.2392 47.0682 18.2792 46.9483C18.3191 46.8284 18.3325 46.7218 18.3325 46.6285C18.3325 46.522 18.3191 46.4154 18.2792 46.2955C18.2392 46.1756 18.1859 46.069 18.106 45.9624C18.026 45.8558 17.9194 45.7759 17.7729 45.7093C17.6397 45.6427 17.4665 45.616 17.2666 45.616H16.3873V47.681H17.2266V47.6677Z" fill="#000F9F"/>
<path d="M19.9578 47.6677C19.9578 47.268 20.0377 46.895 20.1843 46.5486C20.3308 46.2022 20.544 45.8825 20.8104 45.6161C21.0769 45.3496 21.3833 45.1364 21.743 44.9766C22.0894 44.8167 22.4758 44.7501 22.8755 44.7501C23.2752 44.7501 23.6482 44.83 24.008 44.9766C24.3677 45.1364 24.6741 45.3496 24.9406 45.6161C25.207 45.8825 25.4202 46.2022 25.5801 46.5486C25.7266 46.895 25.8065 47.268 25.8065 47.6677C25.8065 48.0674 25.7266 48.4537 25.5801 48.8001C25.4335 49.1465 25.2203 49.4662 24.9406 49.7327C24.6608 49.9991 24.3544 50.2123 24.008 50.3588C23.6482 50.5054 23.2752 50.5853 22.8755 50.5853C22.4758 50.5853 22.1028 50.5054 21.743 50.3588C21.3966 50.2123 21.0769 49.9991 20.8104 49.746C20.544 49.4796 20.3308 49.1731 20.1843 48.8268C20.0377 48.4804 19.9578 48.0674 19.9578 47.6677ZM20.8104 47.6677C20.8104 48.0541 20.9037 48.4138 21.0902 48.7335C21.2767 49.0532 21.5299 49.3064 21.8363 49.4929C22.1561 49.6794 22.5024 49.7727 22.8888 49.7727C23.2752 49.7727 23.6216 49.6794 23.928 49.4929C24.2344 49.3064 24.4876 49.0532 24.6741 48.7335C24.8606 48.4138 24.9539 48.0541 24.9539 47.6677C24.9539 47.2814 24.8606 46.9217 24.6741 46.5886C24.4876 46.2555 24.2344 46.0157 23.928 45.8159C23.6216 45.6161 23.2619 45.5361 22.8888 45.5361C22.5024 45.5361 22.1427 45.6294 21.8363 45.8292C21.5299 46.0157 21.2767 46.2822 21.0902 46.6019C20.9037 46.9217 20.8104 47.2814 20.8104 47.6677Z" fill="#000F9F"/>
<path d="M28.6176 44.8034C29.0173 44.8034 29.377 44.87 29.6835 45.0165C29.9899 45.1498 30.243 45.3629 30.4162 45.6294C30.5894 45.8958 30.6827 46.2156 30.6827 46.6152C30.6827 46.8417 30.6427 47.0682 30.5761 47.2814C30.5095 47.4945 30.4029 47.7077 30.243 47.8809C30.0831 48.0541 29.8966 48.2006 29.6435 48.3072C29.3904 48.4138 29.0839 48.467 28.7242 48.467H27.8849V50.5187H27.0588V44.8034H28.6176ZM28.7109 47.6677C29.004 47.6677 29.2305 47.6144 29.3904 47.4945C29.5502 47.3879 29.6568 47.2414 29.7234 47.0815C29.79 46.9216 29.8167 46.7751 29.8167 46.6286C29.8167 46.522 29.8034 46.4154 29.7634 46.2955C29.7234 46.1756 29.6702 46.069 29.5902 45.9624C29.5103 45.8559 29.4037 45.7626 29.2571 45.696C29.1106 45.6294 28.9507 45.6027 28.7509 45.6027H27.8715V47.6677H28.7109ZM29.6701 48.1473L31.149 50.5054H30.1897L28.6842 48.1606L29.6701 48.1473Z" fill="#000F9F"/>
<path d="M31.7886 44.8034H35.5989V45.6027H34.0801V50.5187H33.2541V45.6027H31.7886V44.8034Z" fill="#000F9F"/>
<path d="M36.7981 44.8034H37.6241V50.5187H36.7981V44.8034Z" fill="#000F9F"/>
<path d="M44.2189 50.7185L39.809 46.3221L40.0488 46.4021L40.0621 50.5187H39.2361V44.6169H39.2627L43.6193 49.0133L43.4328 48.96L43.4195 44.79H44.2455V50.7052H44.2189V50.7185Z" fill="#000F9F"/>
<path d="M50.3607 50.0124C50.2808 50.0791 50.1742 50.1457 50.0276 50.2123C49.8811 50.2789 49.7212 50.3455 49.548 50.3988C49.3748 50.4521 49.1883 50.492 49.0017 50.532C48.8152 50.5587 48.642 50.5853 48.4822 50.5853C47.8693 50.5853 47.3497 50.4654 46.8967 50.2256C46.4571 49.9858 46.1107 49.6527 45.8575 49.2264C45.6177 48.8001 45.4978 48.3338 45.4978 47.7876C45.4978 47.2947 45.5777 46.8683 45.7243 46.482C45.8842 46.109 46.0973 45.7892 46.3638 45.5228C46.6436 45.2697 46.95 45.0698 47.2964 44.9366C47.6428 44.8034 48.0158 44.7368 48.4155 44.7368C48.7619 44.7368 49.0684 44.7767 49.3615 44.8567C49.6546 44.9366 49.9077 45.0299 50.1209 45.1498L49.8411 45.9091C49.7345 45.8425 49.6013 45.7892 49.4547 45.7359C49.2948 45.6826 49.135 45.6427 48.9751 45.6027C48.8152 45.5761 48.6553 45.5494 48.5221 45.5494C48.0825 45.5494 47.6961 45.6294 47.3763 45.8159C47.0566 45.9891 46.8035 46.2422 46.6169 46.5619C46.4437 46.8817 46.3505 47.268 46.3505 47.7077C46.3505 48.1073 46.4437 48.467 46.6169 48.7735C46.8035 49.0799 47.0566 49.3197 47.3763 49.4929C47.6961 49.6661 48.0691 49.7593 48.4955 49.7593C48.682 49.7593 48.8685 49.746 49.055 49.706C49.2416 49.6661 49.3881 49.6128 49.5213 49.5462V48.4937H48.4155V47.6943H50.3607V50.0124Z" fill="#000F9F"/>
<path d="M53.8513 44.8034H54.6773V50.5187H53.8513V44.8034Z" fill="#000F9F"/>
<path d="M61.2589 50.7185L56.849 46.3221L57.0888 46.4021L57.1021 50.5187H56.2761V44.6169H56.3028L60.6594 49.0133L60.4728 48.96L60.4595 44.79H61.2855V50.7052H61.2589V50.7185Z" fill="#000F9F"/>
<path d="M62.498 44.8034H66.3084V45.6027H64.7896V50.5187H63.9636V45.6027H62.498V44.8034Z" fill="#000F9F"/>
<path d="M67.4941 44.8034H71.2379V45.6027H68.3202V47.2547H70.9315V48.0541H68.3202V49.7327H71.3578V50.532H67.5075V44.8034H67.4941Z" fill="#000F9F"/>
<path d="M74.2089 44.8034C74.6086 44.8034 74.9683 44.87 75.2748 45.0165C75.5812 45.1498 75.8343 45.3629 76.0075 45.6294C76.1807 45.8958 76.274 46.2156 76.274 46.6152C76.274 46.8417 76.234 47.0682 76.1674 47.2814C76.1008 47.4945 75.9942 47.7077 75.8343 47.8809C75.6745 48.0541 75.4879 48.2006 75.2348 48.3072C74.9817 48.4138 74.6752 48.467 74.3155 48.467H73.4762V50.5187H72.6501V44.8034H74.2089ZM74.3155 47.6677C74.6086 47.6677 74.8351 47.6144 74.995 47.4945C75.1549 47.3879 75.2614 47.2414 75.3281 47.0815C75.3947 46.9216 75.4213 46.7751 75.4213 46.6286C75.4213 46.522 75.408 46.4154 75.368 46.2955C75.3281 46.1756 75.2748 46.069 75.1948 45.9624C75.1149 45.8559 75.0083 45.7626 74.8618 45.696C74.7152 45.6294 74.5553 45.6027 74.3555 45.6027H73.4762V47.6677H74.3155ZM75.2748 48.1473L76.7536 50.5054H75.7944L74.2889 48.1606L75.2748 48.1473Z" fill="#000F9F"/>
<path d="M82.8688 50.7185L78.4589 46.3221L78.6987 46.4021L78.712 50.5187H77.886V44.6169H77.9126L82.2692 49.0133L82.0827 48.96L82.0694 44.79H82.8954V50.7052H82.8688V50.7185Z" fill="#000F9F"/>
<path d="M83.9214 50.5187L86.4394 44.5636H86.4927L89.0108 50.5187H88.0515L86.2262 45.8558L86.8124 45.4695L84.7474 50.5187H83.9214ZM85.4535 48.3738H87.5053L87.785 49.0799H85.2137L85.4535 48.3738Z" fill="#000F9F"/>
<path d="M89.1707 44.8034H92.981V45.6027H91.4622V50.5187H90.6362V45.6027H89.1707V44.8034Z" fill="#000F9F"/>
<path d="M94.1667 44.8034H94.9928V50.5187H94.1667V44.8034Z" fill="#000F9F"/>
<path d="M96.2583 47.6677C96.2583 47.268 96.3383 46.895 96.4848 46.5486C96.6314 46.2022 96.8445 45.8825 97.111 45.6161C97.3774 45.3496 97.6839 45.1364 98.0436 44.9766C98.39 44.8167 98.7763 44.7501 99.176 44.7501C99.5757 44.7501 99.9488 44.83 100.308 44.9766C100.668 45.1364 100.975 45.3496 101.241 45.6161C101.508 45.8825 101.721 46.2022 101.881 46.5486C102.027 46.895 102.107 47.268 102.107 47.6677C102.107 48.0674 102.027 48.4537 101.881 48.8001C101.734 49.1465 101.521 49.4662 101.241 49.7327C100.961 49.9991 100.655 50.2123 100.308 50.3588C99.9488 50.5054 99.5757 50.5853 99.176 50.5853C98.7763 50.5853 98.4033 50.5054 98.0436 50.3588C97.6972 50.2123 97.3774 49.9991 97.111 49.746C96.8445 49.4796 96.6314 49.1731 96.4848 48.8268C96.3383 48.4804 96.2583 48.0674 96.2583 47.6677ZM97.111 47.6677C97.111 48.0541 97.2042 48.4138 97.3908 48.7335C97.5773 49.0532 97.8304 49.3064 98.1368 49.4929C98.4566 49.6794 98.803 49.7727 99.1894 49.7727C99.5757 49.7727 99.9221 49.6794 100.229 49.4929C100.535 49.3064 100.788 49.0532 100.975 48.7335C101.161 48.4138 101.254 48.0541 101.254 47.6677C101.254 47.2814 101.161 46.9217 100.975 46.5886C100.788 46.2555 100.535 46.0157 100.229 45.8159C99.9221 45.6161 99.5624 45.5361 99.1894 45.5361C98.803 45.5361 98.4433 45.6294 98.1368 45.8292C97.8304 46.0157 97.5773 46.2822 97.3908 46.6019C97.2042 46.9217 97.111 47.2814 97.111 47.6677Z" fill="#000F9F"/>
<path d="M108.329 50.7185L103.919 46.3221L104.159 46.4021L104.172 50.5187H103.346V44.6169H103.373L107.729 49.0133L107.543 48.96L107.53 44.79H108.356V50.7052H108.329V50.7185Z" fill="#000F9F"/>
<path d="M109.395 50.5187L111.913 44.5636H111.966L114.484 50.5187H113.525L111.7 45.8558L112.286 45.4695L110.221 50.5187H109.395ZM110.914 48.3738H112.965L113.245 49.0799H110.674L110.914 48.3738Z" fill="#000F9F"/>
<path d="M115.497 44.8034H116.323V49.7194H119.187V50.5187H115.497V44.8034Z" fill="#000F9F"/>
<path d="M121.452 50.5187V44.6169H121.465L124.49 48.9067L124.13 48.8401L127.154 44.6169H127.168V50.5187H126.342V46.482L126.395 46.895L124.277 49.8925H124.263L122.105 46.895L122.252 46.5086V50.5187H121.452Z" fill="#000F9F"/>
<path d="M128.78 44.8034H132.524V45.6027H129.606V47.2547H132.217V48.0541H129.606V49.7327H132.643V50.532H128.793V44.8034H128.78Z" fill="#000F9F"/>
<path d="M133.949 50.5187V44.8034H135.534C136.107 44.8034 136.587 44.8833 136.973 45.0565C137.373 45.2297 137.693 45.4562 137.933 45.7493C138.186 46.029 138.359 46.3488 138.479 46.6952C138.585 47.0415 138.652 47.3879 138.652 47.7343C138.652 48.1606 138.572 48.547 138.426 48.8934C138.279 49.2397 138.066 49.5328 137.799 49.7726C137.533 50.0125 137.226 50.199 136.893 50.3322C136.56 50.4654 136.187 50.532 135.814 50.532H133.949V50.5187ZM134.762 49.7194H135.641C136.054 49.7194 136.427 49.6394 136.747 49.4796C137.067 49.3197 137.32 49.0932 137.506 48.7868C137.693 48.4804 137.786 48.1073 137.786 47.681C137.786 47.3213 137.733 47.0149 137.613 46.7485C137.493 46.4953 137.333 46.2688 137.146 46.109C136.947 45.9358 136.733 45.8159 136.494 45.7226C136.254 45.6427 136.001 45.6027 135.748 45.6027H134.762V49.7194Z" fill="#000F9F"/>
<path d="M139.904 44.8034H140.73V50.5187H139.904V44.8034Z" fill="#000F9F"/>
<path d="M146.553 50.0791C146.459 50.1323 146.339 50.2123 146.166 50.2922C146.006 50.3722 145.806 50.4388 145.58 50.5054C145.354 50.5587 145.114 50.5853 144.847 50.5853C144.394 50.5853 143.995 50.5054 143.648 50.3455C143.302 50.199 142.995 49.9858 142.742 49.7194C142.489 49.4529 142.303 49.1465 142.169 48.8001C142.036 48.4537 141.969 48.094 141.969 47.6943C141.969 47.268 142.036 46.8683 142.183 46.5086C142.329 46.1489 142.516 45.8425 142.769 45.5761C143.022 45.3096 143.315 45.1098 143.661 44.9632C144.008 44.8167 144.381 44.7368 144.794 44.7368C145.14 44.7368 145.46 44.79 145.74 44.8833C146.02 44.9766 146.259 45.0831 146.459 45.203L146.126 45.9757C145.98 45.8692 145.78 45.7759 145.567 45.6826C145.34 45.5894 145.1 45.5361 144.821 45.5361C144.461 45.5361 144.128 45.6294 143.835 45.8159C143.528 46.0024 143.288 46.2555 143.115 46.5753C142.929 46.895 142.849 47.2547 142.849 47.6544C142.849 48.054 142.929 48.4271 143.102 48.7468C143.262 49.0665 143.502 49.3197 143.808 49.5062C144.114 49.6927 144.474 49.786 144.874 49.786C145.167 49.786 145.433 49.746 145.647 49.6527C145.873 49.5595 146.046 49.4662 146.193 49.3463L146.553 50.0791Z" fill="#000F9F"/>
<path d="M147.219 50.5187L149.737 44.5636H149.79L152.308 50.5187H151.349L149.524 45.8558L150.11 45.4695L148.045 50.5187H147.219ZM148.751 48.3738H150.803L151.082 49.0799H148.511L148.751 48.3738Z" fill="#000F9F"/>
<path d="M153.334 44.8034H154.16V49.7194H157.024V50.5187H153.334V44.8034Z" fill="#000F9F"/>
<path d="M163.779 50.0124C163.699 50.0791 163.593 50.1457 163.446 50.2123C163.3 50.2789 163.14 50.3455 162.966 50.3988C162.793 50.4521 162.607 50.492 162.42 50.532C162.234 50.5587 162.06 50.5853 161.901 50.5853C161.288 50.5853 160.768 50.4654 160.315 50.2256C159.875 49.9858 159.529 49.6527 159.276 49.2264C159.036 48.8001 158.916 48.3338 158.916 47.7876C158.916 47.2947 158.996 46.8683 159.143 46.482C159.303 46.109 159.516 45.7892 159.782 45.5228C160.062 45.2697 160.368 45.0698 160.715 44.9366C161.061 44.8034 161.434 44.7368 161.834 44.7368C162.18 44.7368 162.487 44.7767 162.78 44.8567C163.073 44.9366 163.326 45.0299 163.539 45.1498L163.26 45.9091C163.153 45.8425 163.02 45.7892 162.873 45.7359C162.713 45.6826 162.553 45.6427 162.394 45.6027C162.234 45.5761 162.074 45.5494 161.941 45.5494C161.501 45.5494 161.115 45.6294 160.795 45.8159C160.475 45.9891 160.222 46.2422 160.035 46.5619C159.862 46.8817 159.769 47.268 159.769 47.7077C159.769 48.1073 159.862 48.467 160.035 48.7735C160.222 49.0799 160.475 49.3197 160.795 49.4929C161.115 49.6661 161.488 49.7593 161.914 49.7593C162.1 49.7593 162.287 49.746 162.473 49.706C162.66 49.6661 162.807 49.6128 162.94 49.5462V48.4937H161.834V47.6943H163.779V50.0124Z" fill="#000F9F"/>
<path d="M166.777 44.8034C167.177 44.8034 167.536 44.87 167.843 45.0165C168.149 45.1498 168.402 45.3629 168.575 45.6294C168.749 45.8958 168.842 46.2156 168.842 46.6152C168.842 46.8417 168.802 47.0682 168.735 47.2814C168.669 47.4945 168.562 47.7077 168.402 47.8809C168.242 48.0541 168.056 48.2006 167.803 48.3072C167.55 48.4138 167.243 48.467 166.883 48.467H166.044V50.5187H165.218V44.8034H166.777ZM166.87 47.6677C167.163 47.6677 167.39 47.6144 167.55 47.4945C167.709 47.3879 167.816 47.2414 167.883 47.0815C167.949 46.9216 167.976 46.7751 167.976 46.6286C167.976 46.522 167.963 46.4154 167.923 46.2955C167.883 46.1756 167.829 46.069 167.749 45.9624C167.669 45.8559 167.563 45.7626 167.416 45.696C167.27 45.6294 167.11 45.6027 166.91 45.6027H166.031V47.6677H166.87ZM167.829 48.1473L169.308 50.5054H168.349L166.843 48.1606L167.829 48.1473Z" fill="#000F9F"/>
<path d="M169.868 50.5187L172.386 44.5636H172.439L174.957 50.5187H173.998L172.173 45.8558L172.759 45.4695L170.694 50.5187H169.868ZM171.387 48.3738H173.438L173.718 49.0799H171.147L171.387 48.3738Z" fill="#000F9F"/>
<path d="M175.97 50.5187V44.8034H177.555C178.128 44.8034 178.608 44.8833 178.994 45.0565C179.394 45.2297 179.713 45.4562 179.953 45.7493C180.206 46.029 180.38 46.3488 180.5 46.6952C180.606 47.0415 180.673 47.3879 180.673 47.7343C180.673 48.1606 180.593 48.547 180.446 48.8934C180.3 49.2397 180.087 49.5328 179.82 49.7726C179.554 50.0125 179.247 50.199 178.914 50.3322C178.581 50.4654 178.208 50.532 177.835 50.532H175.97V50.5187ZM176.796 49.7194H177.675C178.088 49.7194 178.461 49.6394 178.781 49.4796C179.101 49.3197 179.354 49.0932 179.54 48.7868C179.727 48.4804 179.82 48.1073 179.82 47.681C179.82 47.3213 179.767 47.0149 179.647 46.7485C179.527 46.4953 179.367 46.2688 179.181 46.109C178.981 45.9358 178.768 45.8159 178.528 45.7226C178.288 45.6427 178.035 45.6027 177.782 45.6027H176.796V49.7194Z" fill="#000F9F"/>
<path d="M182.671 48.4804C182.671 48.7202 182.724 48.9467 182.844 49.1332C182.964 49.333 183.124 49.4929 183.324 49.5995C183.524 49.7194 183.75 49.7726 184.003 49.7726C184.27 49.7726 184.496 49.7194 184.71 49.5995C184.909 49.4796 185.069 49.333 185.189 49.1332C185.309 48.9333 185.362 48.7202 185.362 48.4804V44.8034H186.175V48.4937C186.175 48.9067 186.082 49.2664 185.882 49.5861C185.682 49.8925 185.429 50.1457 185.096 50.3189C184.763 50.4921 184.403 50.5853 183.99 50.5853C183.577 50.5853 183.217 50.5054 182.884 50.3189C182.551 50.1457 182.298 49.9059 182.098 49.5861C181.912 49.2797 181.805 48.9067 181.805 48.4937V44.8034H182.631V48.4804H182.671Z" fill="#000F9F"/>
<path d="M187.028 50.5187L189.546 44.5636H189.599L192.117 50.5187H191.158L189.333 45.8558L189.919 45.4695L187.854 50.5187H187.028ZM188.547 48.3738H190.598L190.878 49.0799H188.307L188.547 48.3738Z" fill="#000F9F"/>
<path d="M192.264 44.8034H196.074V45.6027H194.555V50.5187H193.729V45.6027H192.264V44.8034Z" fill="#000F9F"/>
<path d="M197.273 44.8034H201.017V45.6027H198.099V47.2547H200.71V48.0541H198.099V49.7327H201.137V50.532H197.286V44.8034H197.273Z" fill="#000F9F"/>
<path d="M205.4 45.8825C205.2 45.7759 204.987 45.6827 204.747 45.616C204.521 45.5361 204.294 45.5095 204.081 45.5095C203.788 45.5095 203.548 45.5761 203.375 45.7093C203.202 45.8425 203.109 46.029 203.109 46.2688C203.109 46.4287 203.162 46.5753 203.282 46.6952C203.402 46.8151 203.548 46.9216 203.735 47.0149C203.921 47.1082 204.108 47.1881 204.321 47.268C204.561 47.348 204.787 47.4545 205 47.5878C205.214 47.721 205.4 47.8942 205.547 48.1073C205.693 48.3205 205.76 48.6136 205.76 48.9733C205.76 49.2664 205.68 49.5462 205.533 49.7993C205.387 50.0524 205.16 50.2389 204.881 50.3855C204.601 50.532 204.268 50.5986 203.868 50.5986C203.495 50.5986 203.149 50.5454 202.829 50.4254C202.496 50.3055 202.216 50.1723 201.976 49.9991L202.349 49.3463C202.536 49.4929 202.762 49.6128 203.029 49.7194C203.295 49.8259 203.548 49.8792 203.788 49.8792C203.961 49.8792 204.134 49.8526 204.308 49.786C204.481 49.7194 204.614 49.6261 204.734 49.4929C204.854 49.3597 204.907 49.1865 204.907 48.9733C204.907 48.8001 204.854 48.6402 204.761 48.5203C204.667 48.4004 204.534 48.2805 204.374 48.2006C204.214 48.1073 204.041 48.0274 203.855 47.9608C203.681 47.8942 203.495 47.8142 203.308 47.7343C203.122 47.6544 202.949 47.5478 202.802 47.4279C202.656 47.308 202.522 47.1614 202.429 46.9883C202.336 46.8151 202.283 46.6019 202.283 46.3488C202.283 46.0424 202.349 45.7759 202.496 45.5494C202.642 45.323 202.842 45.1498 203.095 45.0165C203.348 44.8833 203.641 44.8167 203.975 44.8034C204.348 44.8034 204.681 44.8433 204.974 44.9366C205.254 45.0299 205.507 45.1364 205.72 45.2697L205.4 45.8825Z" fill="#000F9F"/>
<path d="M236.523 26.4184H233.365C234.231 31.6408 237.642 36.0106 242.291 38.1954C243.331 38.6884 244.436 39.0747 245.595 39.3278L249.059 47.6144V39.7009V36.5967C246.142 36.5967 243.464 35.6242 241.306 33.9855C238.907 32.1604 237.162 29.4959 236.523 26.4184Z" fill="#00A19B"/>
<path d="M261.596 21.196H264.754C263.888 15.9736 260.477 11.6039 255.827 9.41897C254.788 8.92604 253.682 8.53969 252.523 8.28656L249.059 0V7.91353V11.0177C251.977 11.0177 254.655 11.9902 256.813 13.6289C259.225 15.454 260.957 18.1185 261.596 21.196Z" fill="#00A19B"/>
<path d="M238.881 16.0535C240.719 13.6422 243.384 11.9102 246.448 11.2708V8.11334C241.225 8.9793 236.856 12.3898 234.671 17.0394C234.178 18.0785 233.791 19.1843 233.538 20.3433L225.251 23.8072H233.165H236.269C236.256 20.8896 237.229 18.2118 238.881 16.0535Z" fill="#62CBC9"/>
<path d="M264.967 23.8072H261.863C261.863 26.7248 260.89 29.4026 259.252 31.5609C257.413 33.9722 254.748 35.7041 251.684 36.3436V39.501C256.907 38.6351 261.277 35.2245 263.462 30.575C263.955 29.5358 264.341 28.4301 264.594 27.271L272.881 23.8072H264.967Z" fill="#62CBC9"/>
<path d="M251.95 31.2944H246.168V26.5383H241.412V20.7564H246.168V16.0002H251.95V20.7564H256.707V26.5383H251.95V31.2944Z" fill="#00A19B" stroke="white" stroke-width="1.113" stroke-miterlimit="10"/>
</svg>
