<svg width="733" height="692" viewBox="0 0 733 692" fill="none" xmlns="http://www.w3.org/2000/svg">
<path d="M34.4549 150.031C-11.7738 107.097 1.17475 23.6389 21.6634 -14.2151L68.6224 -22.6659L802.737 -24.9226L816.627 641.616C801.188 666.513 756.06 677.748 741.25 681.421C555.065 708.137 480.709 619.8 448.559 556.244C404.5 430 367.5 410.561 281.146 392.131C161.103 366.511 96.0152 303.939 83.6876 244.586C76.7276 194.61 47.9658 160.726 34.4549 150.031Z" fill="url(#paint0_linear_1_3808)" fill-opacity="0.2"/>
<path d="M84.7947 139.207C33.8991 97.5598 23.6401 25.1873 43.1639 -12.7152L107.533 -30.4753L821.547 -38.2123L826.182 625.637C811.456 650.572 779.373 664.247 765.172 667.968C586.569 695.289 500.039 607.413 483.776 543.83C452.614 422 398.663 373.986 343.019 357.289C229.793 323.314 148.99 319.813 132.402 233.548C125.535 183.621 97.8027 149.851 84.7947 139.207Z" fill="url(#paint1_linear_1_3808)"/>
<defs>
<linearGradient id="paint0_linear_1_3808" x1="76.9401" y1="-27.4843" x2="737.638" y2="708.425" gradientUnits="userSpaceOnUse">
<stop stop-color="#02A59D"/>
<stop offset="0.651042" stop-color="#6FCEC3"/>
</linearGradient>
<linearGradient id="paint1_linear_1_3808" x1="77.0001" y1="-10" x2="730.326" y2="650.897" gradientUnits="userSpaceOnUse">
<stop stop-color="#02A59D"/>
<stop offset="0.651042" stop-color="#6FCEC3"/>
</linearGradient>
</defs>
</svg>
