<svg width="121" height="121" viewBox="0 0 121 121" fill="none" xmlns="http://www.w3.org/2000/svg">
<path d="M59.1766 2.12686C58.6566 2.22139 57.8059 2.50499 57.2859 2.71768C56.6951 2.97765 55.6553 3.14307 54.3555 3.1667C50.527 3.21397 48.6363 4.77374 45.8477 10.162C43.8389 13.9905 42.4918 15.6921 41.0975 16.1175C39.1359 16.6847 38.3561 18.5044 39.4668 19.9224C39.9867 20.5841 41.8537 21.7894 44.1225 22.9001L45.5641 23.6327L45.6586 27.8157C45.8004 32.6841 46.084 33.8421 47.951 36.7017C49.0854 38.4032 51.5668 40.9556 52.9139 41.7355C53.3156 41.9718 53.6465 42.279 53.6465 42.4208C53.6229 42.539 53.2684 43.5079 52.843 44.5478L52.0395 46.4384L47.951 46.5802C44.5242 46.6747 43.5789 46.7929 42.3027 47.2419C38.2852 48.6362 35.1656 51.6376 33.7477 55.4188C33.2514 56.7423 33.2041 57.2622 33.1332 64.0921L33.0623 71.371L33.7004 71.9618L34.3385 72.5526H42.799H51.2832V79.3825V86.2124L43.4844 90.7263C39.1832 93.2077 35.6146 95.2401 35.4965 95.2401C35.402 95.2401 34.7639 94.2239 34.0549 92.995C32.3533 89.97 31.6207 89.4028 30.1318 90.0882C29.6828 90.3009 29.1865 91.0571 28.2648 92.9714C27.5559 94.413 24.909 99.8958 22.3566 105.142C19.8043 110.389 17.7246 114.903 17.7246 115.186C17.7246 115.801 18.2918 116.651 18.8826 116.982C19.6152 117.36 45.8713 119.18 46.5094 118.873C47.2184 118.566 47.8092 117.195 47.5256 116.462C47.4074 116.155 46.7693 114.974 46.1076 113.839C45.4459 112.681 44.9023 111.665 44.9023 111.594C44.9023 111.381 60.1691 102.566 60.5236 102.566C60.949 102.566 76.0977 111.358 76.0977 111.594C76.0977 111.712 75.5068 112.823 74.7979 114.052C73.4744 116.368 73.2145 117.431 73.8053 118.188C74.5379 119.157 74.5615 119.157 88.3395 118.164C95.5947 117.644 101.645 117.219 101.787 117.219C102.306 117.219 103.275 115.966 103.275 115.281C103.275 114.855 101.007 109.916 97.4381 102.519C92.6406 92.6169 91.4826 90.419 90.9391 90.1354C89.4502 89.3556 88.7412 89.8755 86.9688 92.9714C86.0234 94.6729 85.598 95.2165 85.3145 95.122C85.1254 95.0274 81.5805 93.0423 77.4684 90.679L69.9768 86.3778L69.9531 79.4534V72.5526H79.0281H88.1268L88.7885 71.9855L89.4502 71.4183V64.3521C89.4502 57.6167 89.4266 57.2386 88.9066 55.7261C87.7723 52.4411 85.2908 49.6288 82.1713 48.0927C79.5717 46.8401 78.1301 46.5565 74.1361 46.5565H70.6385L69.9295 44.9968C68.7951 42.4444 68.7715 42.5626 70.5439 41.2628C73.309 39.2304 75.625 36.1345 76.6176 33.0858C77.0193 31.8097 77.1375 30.7226 77.2793 26.705C77.3738 23.3964 77.5156 21.6239 77.752 21.1513C77.9646 20.6786 78.0592 19.5442 78.0592 17.8427C78.0592 14.6759 77.5865 12.9743 76.0268 10.8237C74.5379 8.74405 71.3002 5.69542 69.2914 4.49014C65.9592 2.52862 61.8234 1.55968 59.1766 2.12686ZM64.2104 6.64073C67.9916 7.9169 72.5764 11.9345 73.6162 14.9122C73.9471 15.8339 74.1125 18.1972 73.8525 18.1972C73.7816 18.1972 73.0018 17.8427 72.1273 17.3937C69.2678 15.9521 64.2104 14.4632 60.3109 13.896C58.8693 13.6833 58.2785 13.4942 58.1131 13.187C57.9949 12.9507 57.924 11.4618 57.9477 9.87843L58.0186 6.97159L58.8457 6.56983C60.0037 5.97901 62.3906 6.02628 64.2104 6.64073ZM53.6701 9.02764C53.6701 9.97295 53.741 11.5091 53.8355 12.4544L54.0246 14.156L52.3467 15.314C51.4486 15.9757 49.9361 17.2046 48.9908 18.0554C48.0691 18.9062 47.1238 19.6151 46.9111 19.6151C46.4857 19.6151 45.1387 18.9771 45.1387 18.7644C45.1387 18.6935 45.6113 18.079 46.2021 17.4173C46.7693 16.7556 48.0219 14.7232 48.9672 12.9034C50.1252 10.6819 51.0469 9.21671 51.8031 8.46046C53.3865 6.85342 53.6465 6.92432 53.6701 9.02764ZM61.5635 18.339C65.1793 19.048 68.3225 20.0878 70.9693 21.4349L73.049 22.522L72.9781 27.0358L72.9072 31.5733L72.1037 33.204C70.284 36.938 65.8883 40.0575 62.107 40.3411C58.9639 40.5774 55.7262 39.1831 53.0557 36.4417C50.3379 33.6767 49.6289 31.597 49.6289 26.5159V23.1128L51.3068 21.553C53.3156 19.686 54.9227 18.4099 55.8916 17.8899C56.7188 17.4409 57.3332 17.4882 61.5635 18.339ZM59.8383 44.4296C61.2799 44.6423 62.8396 44.5478 64.8012 44.1224C64.943 44.0987 65.4156 44.9495 65.8883 46.0366L66.7154 47.9981L64.0213 50.6923L61.3271 53.3864L58.5385 50.7395L55.7498 48.0927L56.6479 46.013C57.2859 44.5478 57.6404 43.9806 57.8768 44.0751C58.0658 44.146 58.9402 44.3114 59.8383 44.4296ZM56.2461 54.2372C58.2549 56.246 60.1691 57.9948 60.5473 58.1603C60.9018 58.302 61.4689 58.3493 61.7998 58.2784C62.1543 58.1839 64.1158 56.4587 66.2664 54.3554L70.1186 50.5741H73.4035C76.9721 50.5741 78.6027 50.8577 80.5643 51.8503C83.1402 53.1737 85.1018 56.0333 85.2672 58.7747L85.3617 60.2636H82.9748C80.7061 60.2636 80.5879 60.2399 80.5879 59.7673C80.5879 58.113 78.9809 56.8604 77.6574 57.4749C76.4521 57.9948 76.334 58.6329 76.334 63.8085V68.5351L61.2799 68.4878L46.2021 68.4169L46.1313 63.4304C46.084 58.4438 46.084 58.4438 45.4932 57.9003C44.1461 56.6478 42.0664 57.5931 42.0664 59.4601V60.2636H39.5613H37.0326L37.1744 59.011C37.458 56.1751 38.9469 53.7645 41.4047 52.2048C43.2717 50.9995 45.1623 50.5978 49.1563 50.5978L52.583 50.5741L56.2461 54.2372ZM42.0664 66.4081V68.5351H39.585H37.1035V66.5735C37.1035 65.4864 37.1744 64.5175 37.2689 64.4466C37.3398 64.3521 38.4742 64.2812 39.7504 64.2812H42.0664V66.4081ZM85.3145 66.4081V68.5351H82.9512H80.5879V66.4081V64.2812H82.9512H85.3145V66.4081ZM65.6992 80.1624C65.6992 85.8106 65.7938 87.9376 66.0064 88.3866C66.3373 89.072 85.3381 100.179 86.1889 100.203C87.2051 100.203 87.8668 99.6595 88.7648 98.0524C89.2848 97.1544 89.7338 96.4218 89.8047 96.4218C89.9465 96.4218 98.1234 113.248 98.0289 113.319C97.8635 113.461 79.5953 114.666 79.5008 114.548C79.4299 114.477 79.7371 113.745 80.2098 112.894C81.1551 111.24 81.2732 110.2 80.6588 109.467C80.4225 109.207 75.9559 106.537 70.7566 103.535C63.9504 99.6122 61.0672 98.0761 60.5236 98.0761C60.0037 98.0761 57.0969 99.6358 50.1961 103.63C44.9023 106.678 40.4594 109.349 40.2703 109.585C39.7268 110.318 39.8922 111.358 40.8611 112.965C41.5465 114.099 41.7119 114.525 41.452 114.572C41.192 114.643 25.4525 113.579 23.4674 113.367C22.9947 113.319 23.2547 112.681 26.965 105.048C29.1629 100.51 31.0535 96.7054 31.148 96.6108C31.2662 96.4927 31.7152 97.0599 32.1643 97.8634C33.0859 99.5177 33.8186 100.203 34.693 100.203C35.0238 100.203 36.1346 99.7067 37.198 99.1159C49.4162 92.097 54.3318 89.1901 54.7809 88.7175C55.3008 88.1267 55.3008 88.0794 55.3008 80.3278V72.5526H60.5H65.6992V80.1624Z" fill="white"/>
<path d="M15.054 12.171C10.2093 13.1636 5.6009 16.425 2.93039 20.6789C-2.93054 30.1084 0.567112 42.5156 10.5165 47.5021C15.5267 50.0072 21.6239 50.1017 26.7759 47.7857C34.6693 44.1935 39.1595 35.3785 37.387 26.8707C36.5363 22.7585 34.0548 18.6464 30.888 16.0468C29.1864 14.6761 25.807 12.9273 23.7509 12.3837C21.7894 11.8638 17.0864 11.7457 15.054 12.171ZM22.9238 16.4486C26.8468 17.6066 30.4154 20.5843 32.0933 24.1293C33.2749 26.6107 33.6058 28.0759 33.6058 30.6755C33.6058 40.105 24.7435 47.1476 15.5976 44.997C10.3511 43.7681 5.95539 39.4197 4.60832 34.1496C4.1593 32.3535 4.1593 28.8558 4.60832 27.0597C6.04992 21.4115 11.0601 16.8976 16.8974 15.9759C18.1499 15.7869 21.6003 16.0468 22.9238 16.4486Z" fill="white"/>
<path d="M11.4852 23.4201C10.4217 24.6727 10.5871 25.0744 13.4703 27.9813L16.0699 30.6281L13.5885 33.0859C12.076 34.5748 11.0598 35.8037 10.9889 36.1818C10.7762 37.1035 11.4143 38.1906 12.3123 38.4979C13.3994 38.876 14.1793 38.4033 16.7789 35.8037L19.024 33.5586L21.5291 36.0637C23.5379 38.0488 24.1524 38.5451 24.7195 38.5688C26.0666 38.616 26.941 37.718 26.941 36.3473C26.941 36.04 25.9957 34.882 24.4123 33.2986L21.8836 30.7227L24.2705 28.2885C25.594 26.965 26.752 25.5707 26.8229 25.2399C27.1537 23.9164 26.2084 22.6875 24.8613 22.6875C24.1287 22.6875 23.727 22.9947 21.4818 25.2162L18.9059 27.7449L16.3299 25.2162C14.0611 22.9475 13.683 22.6875 12.9268 22.6875C12.2887 22.6875 11.9578 22.8529 11.4852 23.4201Z" fill="white"/>
<path d="M98.3122 12.1709C93.9401 13.0689 90.0407 15.4795 87.3229 18.9535C78.8151 29.801 84.2034 45.4931 97.6032 48.9435C100.085 49.5816 104.149 49.5816 106.702 48.9199C117.573 46.1312 123.647 34.4566 119.7 23.94C117.478 18.0318 112.066 13.4471 105.827 12.1945C103.653 11.7455 100.439 11.7455 98.3122 12.1709ZM106.111 16.4484C111.05 17.89 115.139 22.1203 116.391 27.0596C116.84 28.8556 116.84 32.3533 116.391 34.1494C115.044 39.4195 110.625 43.768 105.402 44.9969C96.2797 47.1474 87.4174 40.1285 87.3702 30.7226C87.3702 28.1939 87.7247 26.6105 88.859 24.2C90.8206 20.1115 95.0508 16.8738 99.5174 16.0939C101.195 15.7867 104.48 15.9521 106.111 16.4484Z" fill="white"/>
<path d="M104.055 28.1703L98.5722 33.6531L96.8234 31.9516C94.7201 29.9428 94.1292 29.6355 92.9712 30.1318C92.0732 30.5099 91.6005 31.408 91.8132 32.3769C91.9786 33.0859 96.9652 38.167 97.816 38.4742C98.1232 38.5924 98.6195 38.6396 98.9031 38.5687C99.1867 38.5215 102.33 35.5674 105.875 32.0224C111.996 25.9016 112.35 25.4998 112.35 24.6726C112.35 23.5855 111.428 22.6875 110.294 22.6875C109.656 22.6875 108.9 23.3492 104.055 28.1703Z" fill="white"/>
</svg>
