<svg width="111" height="111" viewBox="0 0 111 111" fill="none" xmlns="http://www.w3.org/2000/svg">
<g clip-path="url(#clip0_1_4334)">
<path d="M6.74198 0.303612C5.59295 0.93232 5.65799 -0.910454 5.63631 35.7282C5.63631 72.8222 5.57127 70.7192 6.8287 71.2829C7.65252 71.6515 103.347 71.6515 104.17 71.2829C105.428 70.7192 105.363 72.8005 105.363 35.7716C105.363 -1.25732 105.428 0.823921 104.17 0.260254C103.303 -0.151665 7.47909 -0.108307 6.74198 0.303612ZM101.027 35.7716V67.2071H55.4996H9.97225V35.7716V4.33603H55.4996H101.027V35.7716Z" fill="white"/>
<path d="M15.4139 8.97549C14.2648 9.6042 14.3299 8.43349 14.3082 35.7282C14.3082 63.3698 14.2431 62.0474 15.5006 62.611C16.3027 62.9796 45.9172 62.9796 46.7193 62.611C47.348 62.3292 47.9117 61.4187 47.9117 60.7032C47.9117 59.9878 47.348 59.0772 46.7193 58.7954C46.3074 58.6003 42.6002 58.5353 32.4107 58.5353H18.6441V35.7716V13.0079H55.4996H92.3551V35.7716V58.5353H78.5885C63.6295 58.5353 63.8896 58.5136 63.3476 59.7276C62.8273 60.8333 63.2609 62.1558 64.2799 62.611C65.082 62.9796 94.6965 62.9796 95.4986 62.611C96.756 62.0474 96.691 63.3698 96.691 35.7716C96.691 8.17334 96.756 9.4958 95.4986 8.93213C94.6314 8.52021 16.1293 8.56357 15.4139 8.97549Z" fill="white"/>
<path d="M46.3292 20.8992C45.1368 21.3328 44.0962 22.2217 43.4241 23.3707L42.8171 24.3897L42.7521 35.3162C42.7087 45.0504 42.7304 46.3512 43.0556 47.3268C43.9228 49.95 47.088 51.576 49.6679 50.6871C51.0337 50.2319 68.1606 40.2375 68.9628 39.4354C70.8489 37.5492 70.914 34.2539 69.0929 32.216C68.6376 31.6957 65.4073 29.7229 59.4021 26.2758C54.4591 23.4358 50.0798 20.986 49.6679 20.8559C48.714 20.509 47.3481 20.5307 46.3292 20.8992ZM56.8655 29.8313C61.5483 32.5196 65.5374 34.8826 65.7542 35.0561C66.3179 35.5764 66.2095 36.1184 65.429 36.7037C64.2149 37.5926 48.3888 46.6113 48.0419 46.6113C47.8685 46.6113 47.5649 46.4596 47.3915 46.2645C47.088 45.961 47.0446 44.7252 47.0446 35.7715C47.0446 26.8178 47.088 25.5821 47.3915 25.2785C47.5649 25.0834 47.8685 24.9317 48.0419 24.9317C48.2153 24.9317 52.2044 27.143 56.8655 29.8313Z" fill="white"/>
<path d="M54.4378 58.8387C52.5517 59.8793 53.3538 62.8711 55.5001 62.8711C56.6058 62.8711 57.6681 61.8088 57.6681 60.7248C57.6681 59.0988 55.8686 58.0365 54.4378 58.8387Z" fill="white"/>
<path d="M13.3761 76.9629C10.9263 77.5916 8.80165 79.326 7.65263 81.689C6.85048 83.2933 6.8288 83.4017 6.76376 86.09C6.65536 89.884 7.154 91.5967 9.01845 93.6562L9.7122 94.415L8.08622 95.2822C4.11884 97.3851 1.1704 101.396 0.303215 105.927C-0.0653395 107.921 -0.0870192 109.07 0.259856 109.808C0.845207 111.087 -3.03545 111 55.478 111C96.7128 111 109.374 110.935 109.807 110.74C111 110.198 111.238 108.854 110.696 105.927C109.807 101.374 106.967 97.5152 102.87 95.2605L101.244 94.3717L101.786 93.873C102.653 93.0492 103.564 91.4883 103.954 90.1224C104.236 89.1469 104.301 88.2146 104.236 86.1117C104.171 83.5535 104.127 83.25 103.477 81.9058C102.523 79.8896 101.309 78.6322 99.336 77.6566C97.7534 76.8978 97.58 76.8545 95.5204 76.8545C93.5259 76.8545 93.2007 76.9195 91.9216 77.5265C89.862 78.5238 88.6046 79.7162 87.6507 81.689C86.8485 83.2933 86.8268 83.4017 86.7618 86.09C86.6534 89.884 87.152 91.5967 89.0382 93.6562L89.7102 94.4367L88.3661 95.1305C86.1114 96.3012 83.5315 98.6426 82.4042 100.529C82.1657 100.897 82.1657 100.897 81.9272 100.529C80.7999 98.6426 78.22 96.3012 75.9653 95.1305L74.6212 94.4367L75.2933 93.6562C77.1794 91.5967 77.678 89.884 77.5696 86.1117C77.5046 83.5535 77.4612 83.25 76.8108 81.9058C75.8569 79.8896 74.6429 78.6322 72.67 77.6566C71.0874 76.8978 70.914 76.8545 68.8544 76.8545C66.8599 76.8545 66.5347 76.9195 65.2556 77.5265C63.196 78.5238 61.9386 79.7162 60.9847 81.689C60.1825 83.2933 60.1608 83.4017 60.0958 86.09C59.9874 89.884 60.486 91.5967 62.3722 93.6562L63.0442 94.4367L61.4616 95.2389C59.6405 96.1928 57.4292 98.1222 56.3452 99.7049C55.9333 100.312 55.5647 100.811 55.4997 100.811C55.4347 100.811 55.2179 100.529 55.0011 100.182C53.9604 98.4258 51.2071 96.041 48.9524 94.9353L47.9335 94.4367L48.6272 93.6779C50.5134 91.5967 51.012 89.9056 50.9036 86.09C50.8386 83.4234 50.8169 83.2933 50.0364 81.689C49.0608 79.7162 47.8034 78.5021 45.7872 77.5482C44.4647 76.9195 44.1612 76.8545 42.1667 76.8545C40.1938 76.8545 39.8686 76.9195 38.5895 77.5265C36.53 78.5238 35.2725 79.7162 34.3186 81.689C33.5165 83.2933 33.4948 83.4017 33.4298 86.09C33.3214 89.884 33.82 91.5967 35.7061 93.6562L36.3782 94.4367L35.0341 95.1305C32.7794 96.3012 30.1995 98.6426 29.0722 100.529C28.8337 100.897 28.8337 100.897 28.5952 100.529C27.4679 98.6426 24.888 96.3012 22.6333 95.1305L21.2892 94.4367L21.9612 93.6562C23.8474 91.5967 24.346 89.884 24.2376 86.09C24.1725 83.4234 24.1509 83.2933 23.3704 81.689C21.8745 78.6756 19.2729 76.9846 15.9776 76.8328C15.002 76.7894 13.8313 76.8545 13.3761 76.9629ZM18.0589 81.8842C18.5358 82.2094 19.1645 82.9248 19.4464 83.4668C19.9233 84.3556 19.9667 84.6592 19.9017 86.8705C19.8366 89.1469 19.7933 89.342 19.1862 90.2308C17.4085 92.7674 13.5929 92.7674 11.8151 90.2308C11.2081 89.342 11.1647 89.1469 11.0997 86.9139C11.0347 84.8326 11.078 84.4424 11.4899 83.5752C11.9886 82.5346 13.0075 81.624 14.0265 81.2988C15.1755 80.9303 17.105 81.2121 18.0589 81.8842ZM44.7249 81.8842C45.2018 82.2094 45.8306 82.9248 46.1124 83.4668C46.5893 84.3556 46.6327 84.6592 46.5677 86.8705C46.5026 89.1469 46.4593 89.342 45.8522 90.2308C44.0745 92.7674 40.2589 92.7674 38.4811 90.2308C37.8741 89.342 37.8307 89.1469 37.7657 86.9139C37.7007 84.8326 37.744 84.4424 38.1559 83.5752C38.6546 82.5346 39.6735 81.624 40.6925 81.2988C41.8415 80.9303 43.771 81.2121 44.7249 81.8842ZM71.3909 81.8842C71.8679 82.2094 72.4966 82.9248 72.7784 83.4668C73.2554 84.3556 73.2987 84.6592 73.2337 86.8705C73.1686 89.1469 73.1253 89.342 72.5182 90.2308C70.7405 92.7674 66.9249 92.7674 65.1472 90.2308C64.5401 89.342 64.4968 89.1469 64.4317 86.9139C64.3667 84.8326 64.41 84.4424 64.822 83.5752C65.3206 82.5346 66.3395 81.624 67.3585 81.2988C68.5075 80.9303 70.437 81.2121 71.3909 81.8842ZM98.0569 81.8842C98.5339 82.2094 99.1626 82.9248 99.4444 83.4668C99.9214 84.3556 99.9647 84.6592 99.8997 86.8705C99.8346 89.1469 99.7913 89.342 99.1843 90.2308C97.4065 92.7674 93.5909 92.7674 91.8132 90.2308C91.2061 89.342 91.1628 89.1469 91.0977 86.9139C91.0327 84.8326 91.0761 84.4424 91.488 83.5752C91.9866 82.5346 93.0056 81.624 94.0245 81.2988C95.1735 80.9303 97.103 81.2121 98.0569 81.8842ZM18.2106 98.0139C21.1591 98.6859 24.0858 101.071 25.43 103.867C25.8419 104.756 26.2538 105.732 26.3188 106.079L26.4489 106.664H15.5007H4.55243L4.68251 106.079C4.74755 105.732 5.15946 104.756 5.57138 103.867C6.87216 101.136 9.62548 98.8594 12.5739 98.0789C13.788 97.732 16.9099 97.7103 18.2106 98.0139ZM46.1774 98.4041C49.4294 99.7265 52.2694 102.913 52.9849 106.079L53.1149 106.664H42.1667H31.2184L31.3485 106.079C31.4136 105.732 31.8255 104.756 32.2374 103.867C33.5382 101.157 36.2481 98.9027 39.2399 98.0572C40.7792 97.6236 44.7032 97.8187 46.1774 98.4041ZM71.5427 98.0139C74.4911 98.6859 77.4179 101.071 78.762 103.867C79.1739 104.756 79.5858 105.732 79.6509 106.079L79.7809 106.664H68.8327H57.8845L58.0145 106.079C58.253 105.038 59.1419 103.195 59.944 102.111C61.2231 100.377 64.0198 98.4908 66.036 98.0139C67.2067 97.7537 70.372 97.732 71.5427 98.0139ZM98.2087 98.0139C101.157 98.6859 104.084 101.071 105.428 103.867C105.84 104.756 106.252 105.732 106.317 106.079L106.447 106.664H95.4987H84.5505L84.6806 106.079C84.919 104.995 85.8513 103.109 86.7184 101.981C88.0192 100.269 90.6858 98.4908 92.702 98.0139C93.8727 97.7537 97.038 97.732 98.2087 98.0139Z" fill="white"/>
</g>
<defs>
<clipPath id="clip0_1_4334">
<rect width="111" height="111" fill="white"/>
</clipPath>
</defs>
</svg>
